<svg width="2338" height="480" viewBox="0 0 2338 480" fill="none" xmlns="http://www.w3.org/2000/svg">
<path d="M0 253.194C0 190.282 34.9204 114.479 111.437 114.479C150.979 114.479 173.575 137.168 192.576 183.578V127.37C192.576 124.276 194.63 122.214 197.711 122.214H267.552C270.633 122.214 272.687 124.276 272.687 127.37V379.533C272.687 382.627 270.633 384.69 267.552 384.69H197.711C194.63 384.69 192.576 382.627 192.576 379.533V323.325C177.683 359.422 159.196 391.393 111.437 391.393C40.5693 391.393 0 324.356 0 253.194ZM83.1927 253.194C83.1927 291.353 102.707 323.841 140.709 323.841C183.332 323.841 197.711 285.681 197.711 253.194C197.711 215.55 178.197 182.031 140.709 182.031C97.0582 182.031 83.1927 223.285 83.1927 253.194ZM330.349 472.854V127.37C330.349 124.276 332.403 122.214 335.484 122.214H404.666C407.747 122.214 409.801 124.276 409.801 127.37V183.578C425.207 139.231 451.911 114.479 490.426 114.479C565.916 114.479 601.35 185.641 601.35 253.194C601.35 326.419 559.24 392.425 490.426 392.425C447.803 392.425 421.613 359.422 409.801 322.294V474.884C409.801 479.01 406.771 479.883 403.639 479.883H337.162C332.556 479.883 330.349 476.914 330.349 472.854ZM404.152 253.194C404.152 285.681 418.018 323.841 461.668 323.841C497.616 323.841 518.671 293.416 518.671 253.194C518.671 218.644 502.751 182.031 461.668 182.031C424.18 182.031 404.152 215.034 404.152 253.194ZM645.514 252.678C645.514 165.014 707.138 113.447 782.628 113.447C860.686 113.447 920.256 167.593 920.256 252.678C920.256 326.419 869.416 392.425 782.628 392.425C708.165 392.425 645.514 338.795 645.514 252.678ZM725.112 252.678C725.112 280.009 738.464 323.841 782.628 323.841C826.792 323.841 840.144 280.009 840.144 252.678C840.144 216.066 819.603 181 782.628 181C745.654 181 725.112 216.066 725.112 252.678ZM967.501 379.017C967.501 382.111 969.555 384.174 972.636 384.174H1042.48C1045.56 384.174 1047.61 382.111 1047.61 379.017V19.5955C1047.61 16.5014 1045.56 14.4388 1042.48 14.4388H972.636C969.555 14.4388 967.501 16.5014 967.501 19.5955V379.017ZM1099.99 43.8319C1099.99 68.5841 1120.02 88.1795 1145.18 88.1795C1169.83 88.1795 1189.86 68.5841 1189.86 43.8319C1189.86 19.5955 1169.83 0 1145.18 0C1120.02 0 1099.99 19.5955 1099.99 43.8319ZM1105.13 379.017C1105.13 382.111 1107.18 384.174 1110.26 384.174H1180.62C1183.7 384.174 1185.75 382.111 1185.75 379.017V127.37C1185.75 124.276 1183.7 122.214 1180.62 122.214H1110.26C1107.18 122.214 1105.13 124.276 1105.13 127.37V379.017ZM1231.97 184.61V127.37C1231.97 124.276 1234.03 122.214 1237.11 122.214H1281.27V54.661C1281.27 51.567 1283.33 49.5043 1286.41 49.5043H1356.76C1359.84 49.5043 1361.9 51.567 1361.9 54.661V122.214H1427.12C1430.2 122.214 1432.25 124.276 1432.25 127.37V184.61C1432.25 187.704 1430.2 189.766 1427.12 189.766H1360.87V279.493C1360.87 312.496 1377.82 320.231 1402.47 320.231C1409.14 320.231 1416.84 319.715 1423.01 319.2C1428.14 318.168 1431.22 320.747 1431.22 325.903V375.923C1431.22 380.564 1429.17 383.143 1424.55 384.174C1414.79 386.237 1402.47 387.784 1381.41 387.784C1318.25 387.784 1281.27 362 1281.27 292.385V189.766H1237.11C1234.03 189.766 1231.97 187.704 1231.97 184.61ZM1487.2 43.8319C1487.2 68.5841 1507.23 88.1795 1532.39 88.1795C1557.04 88.1795 1577.07 68.5841 1577.07 43.8319C1577.07 19.5955 1557.04 0 1532.39 0C1507.23 0 1487.2 19.5955 1487.2 43.8319ZM1491.82 379.017C1491.82 382.111 1493.87 384.174 1496.96 384.174H1566.8C1569.88 384.174 1571.93 382.111 1571.93 379.017V127.37C1571.93 124.276 1569.88 122.214 1566.8 122.214H1496.96C1493.87 122.214 1491.82 124.276 1491.82 127.37V379.017ZM1622.26 252.678C1622.26 174.296 1672.07 113.447 1758.35 113.447C1827.16 113.447 1865.67 151.091 1883.13 194.923C1884.68 198.533 1883.13 200.596 1880.05 201.627L1817.4 223.285C1814.32 224.316 1812.27 223.285 1811.24 220.191C1803.54 198.533 1784.54 181 1758.35 181C1722.4 181 1702.37 213.487 1702.37 252.678C1702.37 285.681 1716.75 323.841 1758.35 323.841C1777.86 323.841 1803.02 311.98 1810.73 285.681C1811.75 283.103 1813.29 281.556 1815.35 282.071L1880.05 303.214C1882.62 304.245 1884.16 305.277 1884.16 307.855C1870.3 351.171 1825.11 392.425 1758.35 392.425C1681.32 392.425 1622.26 338.795 1622.26 252.678ZM1920.62 253.194C1920.62 190.282 1955.54 114.479 2032.06 114.479C2071.6 114.479 2094.2 137.168 2113.2 183.578V127.37C2113.2 124.276 2115.25 122.214 2118.33 122.214H2188.17C2191.26 122.214 2193.31 124.276 2193.31 127.37V379.533C2193.31 382.627 2191.26 384.69 2188.17 384.69H2118.33C2115.25 384.69 2113.2 382.627 2113.2 379.533V323.325C2098.31 359.422 2079.82 391.393 2032.06 391.393C1961.19 391.393 1920.62 324.356 1920.62 253.194ZM2003.82 253.194C2003.82 291.353 2023.33 323.841 2061.33 323.841C2103.95 323.841 2118.33 285.681 2118.33 253.194C2118.33 215.55 2098.82 182.031 2061.33 182.031C2017.68 182.031 2003.82 223.285 2003.82 253.194ZM2258.02 379.017C2258.02 382.111 2260.07 384.174 2263.15 384.174H2332.48C2335.56 384.174 2337.61 382.111 2337.61 379.017V19.5955C2337.61 16.5014 2335.56 14.4388 2332.48 14.4388H2263.15C2260.07 14.4388 2258.02 16.5014 2258.02 19.5955V379.017Z" fill="white"/>
<path d="M147.866 428.193C174.816 428.193 199.347 432.013 222.496 441.391C240.461 448.892 256.433 458.395 270.418 470.43C271.292 471.182 271.786 472.282 271.786 473.435V475.985C271.786 478.202 269.989 480 267.771 480H27.2711C25.0537 480 23.2561 478.202 23.2561 475.985V474.141C23.2561 472.991 23.7475 471.895 24.6166 471.142C38.8999 458.768 54.9193 449.039 73.2375 441.391C95.6953 432.013 120.917 428.193 147.866 428.193Z" fill="white"/>
</svg>
