<?xml version="1.0" encoding="utf-8"?>
<!-- Generator: Adobe Illustrator 18.0.0, SVG Export Plug-In . SVG Version: 6.00 Build 0)  -->
<!DOCTYPE svg PUBLIC "-//W3C//DTD SVG 1.1//EN" "http://www.w3.org/Graphics/SVG/1.1/DTD/svg11.dtd">
<svg version="1.1" xmlns="http://www.w3.org/2000/svg" xmlns:xlink="http://www.w3.org/1999/xlink" x="0px" y="0px" width="63px"
	 height="63px" viewBox="0 0 63 63" style="enable-background:new 0 0 63 63;" xml:space="preserve">
<style type="text/css">
	.st0{fill:none;stroke:#880015;}
	.st1{fill:#880015;}
</style>
<g id="seal">
	<path class="st0" d="M28.8,2.1c-15,1.4-26.7,14-26.7,29.3c0,16.2,13.2,29.4,29.4,29.4s29.4-13.2,29.4-29.4
		c0-15.3-11.8-27.9-26.7-29.3"/>
	<path class="st0" d="M28.8,6.5C16.2,7.9,6.4,18.5,6.4,31.4c0,13.8,11.2,25.1,25.1,25.1c13.8,0,25.1-11.2,25.1-25.1
		c0-12.9-9.8-23.6-22.3-24.9"/>
	<path class="st0" d="M28.8,10.9c-10.1,1.3-18,10-18,20.5c0,11.4,9.3,20.7,20.7,20.7s20.7-9.3,20.7-20.7c0-10.5-7.8-19.2-18-20.5"/>
</g>
<g id="text">
	<g>
		<path class="st1" d="M19.9,19l1.5,1h4.4l0.9-1.2c0.7,0.4,1.1,0.8,1.4,1.2c0.1,0.1,0.2,0.3,0.2,0.4c0,0.2-0.4,0.5-1.1,0.9v20.6
			c0,0.6-0.1,1.1-0.4,1.4c-0.2,0.3-0.6,0.5-1,0.7c-0.4,0.2-0.7,0.3-1,0.3c0-0.4-0.1-0.8-0.2-0.9c-0.1-0.2-0.4-0.4-0.8-0.6
			c-0.4-0.2-0.9-0.3-1.4-0.4v-0.6c1,0.3,1.9,0.4,2.7,0.4c0.4,0,0.6-0.1,0.7-0.2c0.1-0.1,0.2-0.3,0.2-0.7v-9.4
			c-0.3,0.3-0.6,0.6-0.8,0.8c-0.4,0.4-0.9,0.7-1.2,1c-0.4,0.3-0.7,0.5-1.1,0.7c-0.2,0.7-0.4,1-0.5,1c-0.1,0-0.6-0.6-1.2-1.9v0.2
			c-0.1,1.2-0.2,2.4-0.3,3.7c-0.1,1-0.3,1.9-0.5,2.8c-0.2,0.8-0.4,1.5-0.7,2.2c-0.2,0.6-0.6,1.3-1.1,1.9l-0.3-0.2
			c0.2-0.6,0.4-1.2,0.6-1.8c0.2-0.6,0.3-1.2,0.4-1.8c0.1-0.7,0.2-1.6,0.3-2.5c0.1-1.1,0.2-2.2,0.2-3.4C20,33,20,31.2,20,29.3
			C20,25,20,21.6,19.9,19z M21.3,33.2c0.6-0.1,1.2-0.3,1.7-0.5c0.5-0.2,1-0.4,1.6-0.7c0.5-0.2,1-0.5,1.6-0.9v-2.4
			c-0.1,0.1-0.2,0.1-0.3,0.1c-0.1,0-0.2-0.1-0.4-0.2c-0.8-0.5-1.6-1-2.5-1.4c-0.6-0.3-1.1-0.5-1.5-0.6v2.8
			C21.4,30.7,21.3,32,21.3,33.2z M21.4,25.7c0.8,0.1,1.6,0.2,2.2,0.3c0.8,0.2,1.4,0.4,1.8,0.7c0.4,0.2,0.6,0.4,0.7,0.7v-6.6h-4.8
			V25.7z M28.1,23.5c0.8,0.2,1.9,0.3,3.2,0.3h2.5c0.1-1.1,0.3-2,0.4-2.7c0.1-0.9,0.1-1.7,0.1-2.5c0.9,0.2,1.5,0.5,2,0.7
			c0.3,0.1,0.4,0.2,0.4,0.4c0,0.2-0.1,0.3-0.3,0.4c-0.3,0.1-0.6,0.2-0.9,0.3c-0.2,1.2-0.3,2.4-0.5,3.4h6l1.3-1.5
			c0.7,0.5,1.4,1.1,2,1.5c0.1,0.1,0.2,0.2,0.2,0.4c0,0.3-0.1,0.4-0.4,0.4h-9.3c-0.3,1.4-0.6,2.9-1,4.4c-0.4,1.5-0.7,2.7-1.1,3.7
			c-0.4,1-0.8,2-1.2,2.8c-0.4,0.9-0.8,1.8-1.4,2.5c-0.5,0.8-1.1,1.6-1.8,2.3L28,39.8c0.8-1,1.4-2,1.9-3c0.5-0.9,1-1.8,1.4-2.8
			c0.3-0.8,0.6-1.7,0.9-2.6c0.3-1,0.5-2.1,0.8-3.3c0.3-1.1,0.5-2.3,0.7-3.5h-2.4c-1.3,0-2.2,0.1-2.7,0.1L28.1,23.5z M37.2,27.7
			c0.9,0.3,1.7,0.6,2.4,1c0.1,0.1,0.2,0.2,0.2,0.4c0,0.1-0.2,0.2-0.6,0.3c-0.4,0.1-0.7,0.1-0.9,0.1c-0.6,1.7-1.2,3.3-1.8,4.8
			c-0.6,1.5-1.3,2.8-2,4c-0.6,1-1.4,1.9-2.2,3c1-0.1,1.9-0.2,2.6-0.4c1-0.2,2.1-0.4,3.4-0.7c1.1-0.3,2.3-0.6,3.6-1.1
			c-0.2-0.4-0.5-0.8-0.7-1.2c-0.4-0.6-0.9-1.2-1.5-1.9l0.3-0.4c0.7,0.6,1.4,1.3,2,2c0.6,0.6,1.2,1.2,1.5,1.8
			c0.4,0.6,0.7,1.1,0.9,1.5c0.1,0.4,0.2,0.8,0.2,1.2c0,0.3,0,0.5-0.1,0.7c-0.1,0.2-0.3,0.3-0.6,0.3c-0.2,0-0.4-0.1-0.5-0.2
			c-0.2-0.1-0.3-0.4-0.4-1c-0.1-0.7-0.4-1.4-0.7-2.1c0-0.1-0.1-0.1-0.1-0.2c-1.2,0.5-2.2,0.9-3.1,1.2c-1.1,0.4-2.1,0.7-3.1,1
			C35,42,34,42.3,33,42.5c-0.2,0.7-0.3,1-0.4,1c-0.1,0-0.6-0.7-1.3-2.2c0.1,0,0.2,0,0.2,0c0.9-1.2,1.7-2.4,2.3-3.5
			c0.5-1,1-2.1,1.5-3.3c0.5-1.2,0.9-2.3,1.2-3.4C36.8,30,37,28.9,37.2,27.7z"/>
	</g>
</g>
</svg>
