<?xml version="1.0" encoding="UTF-8" standalone="no"?>
<!-- Created with Inkscape (http://www.inkscape.org/) -->
<svg xmlns:svg="http://www.w3.org/2000/svg" xmlns="http://www.w3.org/2000/svg" xmlns:inkscape="http://www.inkscape.org/namespaces/inkscape" xmlns:sodipodi="http://sodipodi.sourceforge.net/DTD/sodipodi-0.dtd" xmlns:ns1="http://sozi.baierouge.fr" xmlns:xlink="http://www.w3.org/1999/xlink" xmlns:dc="http://purl.org/dc/elements/1.1/" xmlns:cc="http://web.resource.org/cc/" version="1.0" width="819.79944" height="921.46692" id="svg4157" inkscape:version="0.91 r13725" xmlns:rdf="http://www.w3.org/1999/02/22-rdf-syntax-ns#">
  <defs id="defs4159"/>
  <g transform="translate(-42.759296,-335.17542)" id="layer1">
    <path d="M 462.85714,1255.6482 C 432.53676,1253.6879 389.19701,1246.3286 380.37195,1241.6417 C 378.45509,1240.6237 376.06169,1239.7908 375.05327,1239.7908 C 374.04485,1239.7908 368.41318,1238.1922 362.53846,1236.2383 C 356.66373,1234.2845 348.03214,1232.2426 343.35714,1231.7008 C 338.68214,1231.159 333.05714,1230.0764 330.85714,1229.295 C 328.65714,1228.5137 324.43367,1227.5645 321.47166,1227.1858 C 318.13436,1226.759 315.4827,1225.7923 314.49941,1224.644 C 313.50547,1223.4831 311.58106,1222.7908 309.34844,1222.7908 C 300.2144,1222.7908 255.87444,1204.2744 230.02119,1189.6637 C 210.70914,1178.7497 201.44116,1172.6788 189.82911,1163.3361 C 187.06369,1161.1112 183.05426,1157.9408 180.91925,1156.2908 C 176.29373,1152.716 156.55754,1135.9479 154.38297,1133.7452 C 153.54376,1132.8951 150.68795,1129.6363 148.03672,1126.5033 C 145.38548,1123.3703 141.5604,1119.1158 139.53652,1117.0488 C 133.34298,1110.7235 125.98978,1101.8325 116.99292,1089.7908 C 112.26727,1083.4658 108.05351,1077.8273 107.62899,1077.2608 C 107.20447,1076.6943 105.99103,1074.6693 104.93245,1072.7608 C 103.87387,1070.8523 102.71091,1069.0658 102.34809,1068.7908 C 101.36729,1068.0473 90.366913,1048.6053 85.091123,1038.2908 C 62.416143,993.95968 48.426313,948.85752 43.841983,905.30658 C 42.735533,894.79543 42.562193,870.54576 42.941163,779.29075 C 43.691893,598.52067 43.776823,366.52364 43.097943,351.0449 C 42.538113,338.28058 42.649103,336.71108 44.165143,335.95323 C 45.095743,335.48804 56.882143,335.28766 70.357143,335.50795 C 83.832143,335.72823 135.13214,335.86104 184.35714,335.80307 C 314.54698,335.64975 359.98375,335.64293 506.35714,335.75474 C 578.68214,335.80999 671.95085,335.65405 713.62095,335.40821 C 795.61189,334.92449 791.53896,334.68269 792.9024,340.11508 C 793.20395,341.31654 792.97963,348.10042 792.40391,355.19037 C 791.82818,362.28032 791.35714,370.26584 791.35714,372.93597 L 791.35714,377.79075 L 825.10714,377.80606 C 843.66964,377.81448 859.33996,378.15198 859.93008,378.55606 C 860.5202,378.96014 861.34204,380.19075 861.7564,381.29075 C 862.40286,383.00691 862.48668,452.8929 861.85774,465.79075 C 861.73706,468.26575 861.92012,489.41575 862.26455,512.79075 C 862.60898,536.16575 862.65821,555.40324 862.37396,555.54073 C 862.08971,555.67821 861.93217,581.55321 862.02386,613.04073 C 862.36099,728.80334 862.34395,769.92391 861.92803,844.29075 C 861.49035,922.54727 861.57529,920.7084 857.42442,941.79075 C 856.82883,944.81575 855.61816,951.34075 854.73403,956.29075 C 851.25557,975.76584 846.73488,991.99355 837.85867,1016.8675 C 833.87804,1028.0224 818.53948,1060.1711 812.20165,1070.643 C 810.08717,1074.1367 808.35714,1077.1603 808.35714,1077.362 C 808.35714,1078.3416 788.35833,1108.3997 785.85714,1111.1794 C 785.30714,1111.7906 782.17871,1115.6658 778.90507,1119.7908 C 770.52704,1130.3476 738.69505,1161.9105 727.35714,1170.903 C 706.15659,1187.7177 687.75351,1200.7065 676.21921,1206.9958 C 664.05718,1213.6273 637.39605,1225.7908 635.02227,1225.7908 C 633.55645,1225.7908 632.35714,1226.2504 632.35714,1226.8122 C 632.35714,1227.374 631.34464,1228.2283 630.10714,1228.7107 C 626.57066,1230.0893 615.06721,1234.8364 612.85714,1235.8292 C 607.05243,1238.4368 599.18726,1241.1159 593.85714,1242.3012 C 590.55714,1243.0351 584.25714,1244.538 579.85714,1245.6409 C 572.18094,1247.5652 550.57354,1251.5545 535.85714,1253.7645 C 528.06444,1254.9348 492.45817,1256.8391 482.35714,1256.6258 C 478.78214,1256.5504 470.00714,1256.1104 462.85714,1255.6482 z M 500.35714,1251.7908 C 500.35714,1251.1899 495.46795,1250.7074 488.10714,1250.582 C 463.80673,1250.1678 453.21887,1250.8326 468.85714,1251.7908 C 486.28291,1252.8584 500.35714,1252.8584 500.35714,1251.7908 z M 527.35714,1247.4573 C 539.91742,1247.2519 549.89664,1246.6508 551.35714,1246.0116 C 553.27646,1245.1717 549.07572,1244.9028 533.2716,1244.8541 C 521.94956,1244.8193 489.54956,1244.5712 461.2716,1244.3029 C 412.35291,1243.8388 410.07558,1243.8965 414.35714,1245.4911 C 418.0831,1246.8789 424.36144,1247.2638 450.85714,1247.729 C 468.45714,1248.0379 488.03214,1248.1823 494.35714,1248.0498 C 500.68214,1247.9173 515.53214,1247.6507 527.35714,1247.4573 z M 525.35714,1240.121 C 522.88214,1240.013 492.50714,1239.4339 457.85714,1238.8342 C 423.20714,1238.2344 392.26964,1237.507 389.10714,1237.2176 C 385.94436,1236.9282 383.35714,1237.0998 383.35714,1237.599 C 383.35714,1239.9775 395.6488,1240.4167 460.85714,1240.3685 C 498.80714,1240.3404 527.83214,1240.229 525.35714,1240.121 z M 481.60714,1235.1285 C 480.91964,1234.8511 479.79464,1234.8511 479.10714,1235.1285 C 478.41964,1235.4059 478.98214,1235.6329 480.35714,1235.6329 C 481.73214,1235.6329 482.29464,1235.4059 481.60714,1235.1285 z M 579.35714,1234.7122 C 562.76688,1233.7242 504.70424,1233.7315 495.85714,1234.7226 C 491.77646,1235.1798 510.33497,1235.4963 540.35714,1235.4817 C 573.69512,1235.4654 587.44888,1235.194 579.35714,1234.7122 z M 416.85714,1230.7908 C 417.19706,1230.2408 416.58542,1229.7908 415.49794,1229.7908 C 411.85323,1229.7908 410.63262,1228.8005 411.12197,1226.2407 C 411.55722,1223.9638 412.0157,1223.7908 417.61347,1223.7908 C 422.16498,1223.7908 423.96901,1224.2183 424.9969,1225.5408 C 426.29237,1227.2074 426.42191,1227.2074 427.71738,1225.5408 C 428.89073,1224.0312 430.89091,1223.7908 442.27475,1223.7908 C 449.53317,1223.7908 458.60383,1223.2735 462.43178,1222.6414 C 466.25972,1222.0092 469.6464,1221.7467 469.95774,1222.058 C 470.26908,1222.3694 469.54881,1223.5991 468.35714,1224.7908 C 467.16547,1225.9824 466.42416,1227.1911 466.70978,1227.4767 C 466.9954,1227.7624 469.53594,1227.6788 472.35543,1227.291 C 477.33469,1226.6062 477.43188,1226.5308 475.74308,1224.6647 C 473.60588,1222.3031 474.43188,1221.4686 480.52814,1219.8303 C 485.99767,1218.3605 487.75555,1219.0672 486.91912,1222.3998 C 486.21411,1225.2088 487.42727,1225.398 495.30792,1223.7079 C 500.71457,1222.5484 502.35388,1220.8441 497.35714,1221.5774 C 495.16827,1221.8987 494.35714,1221.6146 494.35714,1220.5267 C 494.35714,1218.3582 496.66897,1216.7767 500.8249,1216.1023 C 504.0126,1215.585 504.54519,1215.7939 505.06021,1217.7633 C 505.61356,1219.8793 506.00567,1219.9757 511.52138,1219.3517 C 518.72255,1218.537 542.6599,1210.7414 537.77381,1210.8022 C 537.26964,1210.8084 532.35714,1212.2129 526.85714,1213.9232 C 512.33532,1218.4389 511.35714,1218.5442 511.35714,1215.591 C 511.35714,1213.3208 512.75978,1212.6922 533.10714,1205.8445 C 545.06964,1201.8186 556.52671,1197.6846 558.5673,1196.6577 C 562.84415,1194.5056 564.93996,1194.3067 565.95943,1195.9563 C 566.38143,1196.6391 565.47401,1198.0866 563.76845,1199.4513 C 560.17013,1202.3305 561.27225,1202.3921 568.33792,1199.7066 C 575.8329,1196.858 576.0065,1196.6869 572.99991,1195.1116 C 571.54639,1194.35 570.36271,1193.4038 570.36952,1193.0088 C 570.39138,1191.7409 576.39479,1188.4139 597.81113,1177.8009 C 609.33582,1172.0897 620.48521,1165.863 622.58756,1163.9636 C 624.6899,1162.0643 626.65956,1160.7598 626.96459,1161.0649 C 628.15589,1162.2562 625.30929,1165.4279 620.47948,1168.2908 C 615.58662,1171.1909 613.68377,1173.2802 615.15081,1174.1413 C 615.53929,1174.3694 616.75714,1174.1947 617.85714,1173.7532 C 620.62325,1172.6431 653.07629,1147.1742 662.84744,1138.4452 C 672.91985,1129.4471 695.76898,1106.4337 699.24034,1101.7908 C 700.67958,1099.8658 702.42123,1097.6945 703.11068,1096.9658 C 703.80012,1096.2371 705.80647,1093.5371 707.56922,1090.9658 C 709.33197,1088.3945 711.62359,1085.3908 712.66171,1084.2908 C 713.69983,1083.1908 714.96267,1081.3908 715.46802,1080.2908 C 715.97337,1079.1908 717.16765,1077.1322 718.12199,1075.7162 C 731.34092,1056.1023 743.43119,1034.805 751.85727,1016.2908 C 761.23208,995.69192 769.01209,973.13383 773.41275,953.79075 C 774.60147,948.56575 776.39958,941.36575 777.40856,937.79075 C 779.92665,928.86862 782.19717,916.57712 782.7655,908.79075 C 784.17186,889.52313 784.93605,868.88748 785.54295,833.79075 C 785.61428,829.66575 785.5668,790.96575 785.43744,747.79075 C 785.30808,704.61575 785.21472,624.06575 785.22997,568.79075 C 785.28538,367.99049 785.08429,346.79653 783.10997,345.35239 C 779.33376,342.59024 777.54337,342.57875 322.15716,342.39457 C 143.98543,342.32251 65.135783,342.61214 64.406573,343.34133 C 63.791263,343.95664 63.045483,353.07159 62.606563,365.34133 C 61.976173,382.9633 61.618893,386.29075 60.357143,386.29075 C 59.064743,386.29075 58.884173,383.34978 59.052453,365.04075 C 59.225203,346.24546 59.064993,343.79075 57.665543,343.79075 C 56.325473,343.79075 56.166173,344.82292 56.624683,350.53502 C 56.922433,354.24437 56.785373,357.9906 56.320093,358.85998 C 55.854823,359.72935 55.376893,363.44443 55.258043,367.11571 C 55.112023,371.62616 54.641783,373.79075 53.807953,373.79075 C 53.129253,373.79075 52.291603,372.66575 51.946503,371.29075 C 50.356653,364.95629 49.456403,370.19738 49.155283,387.54075 C 48.434433,429.05855 48.665673,727.4284 49.420143,729.29075 C 49.871273,730.40433 50.274253,720.87531 50.329383,707.79075 C 50.383833,694.86575 50.615243,676.19075 50.843633,666.29075 C 51.072013,656.39075 51.295203,631.54602 51.339593,611.08025 C 51.386063,589.65705 51.809893,573.62897 52.338553,573.30224 C 55.404943,571.40711 55.593543,577.21699 54.867153,651.19691 L 54.139653,725.29075 L 56.498403,726.29075 C 58.559743,727.16466 58.894413,728.06846 59.152733,733.45889 C 59.415053,738.93277 59.218083,739.70011 57.402733,740.27628 C 55.075023,741.01507 54.673083,743.31427 56.733433,744.1049 C 57.780973,744.50688 58.253423,748.29462 58.711323,759.96189 C 59.042193,768.39276 59.703533,777.99075 60.180943,781.29075 C 61.260923,788.75579 60.069323,792.16005 56.607933,791.49836 C 54.669613,791.12783 54.305433,791.42418 54.554443,793.16935 C 54.748483,794.52925 55.712673,795.41173 57.240503,795.62778 C 59.535093,795.95225 59.600273,796.19049 58.990503,802.02447 C 58.642153,805.35728 58.357143,809.81812 58.357143,811.93744 C 58.357143,815.12408 58.011123,815.79075 56.357143,815.79075 C 54.738093,815.79075 54.357143,816.45742 54.357143,819.29075 C 54.357143,822.25425 54.702033,822.79047 56.607143,822.78893 C 58.728353,822.78721 58.837743,823.13066 58.518323,828.78893 C 58.267283,833.23575 57.800403,834.79075 56.716303,834.79075 C 55.911543,834.79075 54.783283,836.13847 54.209063,837.78569 C 53.344533,840.26567 52.761133,840.67927 50.816103,840.19109 C 48.844453,839.69624 48.473903,839.97812 48.508993,841.94615 C 48.597883,846.93152 49.385243,848.79075 51.407583,848.79075 C 53.581653,848.79075 54.098333,847.91704 54.660083,843.29075 C 54.879423,841.48438 55.687383,840.16211 56.690753,839.96743 C 58.524273,839.61167 58.505363,839.49946 58.515353,850.79075 C 58.533343,871.13204 58.575853,870.79075 56.024263,870.79075 C 54.197703,870.79075 53.745543,871.27909 53.940933,873.04075 C 54.078183,874.27825 54.227973,875.93926 54.273813,876.73188 C 54.336123,877.80958 54.698953,877.70555 55.712533,876.3194 C 56.542373,875.18453 57.705633,874.7105 58.712533,875.09689 C 60.584193,875.81511 60.841473,882.56392 59.705173,901.13519 L 59.053213,911.79075 L 56.282733,911.79075 C 53.267023,911.79075 52.166653,909.61773 50.839143,901.04075 C 50.477353,898.70325 49.735143,896.79075 49.189793,896.79075 C 48.570093,896.79075 48.504803,898.00958 49.015693,900.04075 C 49.465303,901.82825 49.714073,905.54075 49.568523,908.29075 C 49.241173,914.47558 50.125743,918.78319 51.324763,916.84315 C 52.460283,915.00583 54.657453,925.84449 54.175003,930.90343 C 53.726123,935.61038 54.669433,935.87566 56.783903,931.63711 C 58.855923,927.48364 58.771153,926.25437 56.250793,923.90629 C 54.901523,922.64926 54.439123,921.46712 54.964293,920.61737 C 55.415223,919.88777 55.800573,917.97865 55.820653,916.37489 C 55.865073,912.82498 58.110263,911.73871 58.724963,914.96971 C 60.784613,925.79567 61.690443,931.58492 61.581653,933.22704 C 61.511103,934.292 62.331723,938.33296 63.405263,942.20694 C 65.452323,949.59401 65.920933,954.79075 64.539983,954.79075 C 64.090553,954.79075 62.927953,951.41907 61.956443,947.29813 C 60.984933,943.1772 59.777653,939.55064 59.273603,939.23912 C 57.805473,938.33177 58.216123,945.14375 59.917173,949.91502 C 60.775193,952.32167 61.237973,955.52058 60.945583,957.0237 C 60.548833,959.06334 61.052513,960.39521 62.931003,962.2737 C 66.084233,965.42693 66.276243,965.41257 66.045403,962.04075 C 65.922353,960.24328 66.349063,959.29075 67.277333,959.29075 C 68.159913,959.29075 69.528613,961.9406 70.892953,966.29075 C 72.100443,970.14075 74.048853,975.46556 75.222763,978.12366 C 76.396673,980.78175 77.357143,983.59425 77.357143,984.37366 C 77.357143,986.90264 75.339623,985.87538 73.206733,982.2604 C 71.734873,979.76578 70.618243,978.89049 69.400653,979.27694 C 68.260143,979.63893 67.308143,979.0575 66.585023,977.55729 C 65.034563,974.34071 65.156943,977.60955 66.724643,981.28685 C 67.512043,983.13381 68.741263,984.28444 69.929543,984.28685 C 71.304713,984.28963 72.716913,986.07817 74.857143,990.52759 C 78.012403,997.08721 79.353443,998.28169 79.362723,994.54075 C 79.365783,993.30325 79.844523,990.57579 80.426573,988.47972 C 81.879833,983.2463 84.367343,983.88305 85.897203,989.8801 C 86.540793,992.40295 88.538903,997.35243 90.337463,1000.8789 C 97.133733,1014.2047 96.881623,1013.4422 95.404503,1016.2023 C 93.818753,1019.1653 95.116033,1021.4711 98.655563,1021.9807 C 100.28263,1022.215 101.50155,1024.0012 103.64413,1029.2908 C 105.20359,1033.1408 107.86547,1039.1749 109.5594,1042.7 C 111.96819,1047.7128 112.40369,1049.4866 111.55802,1050.8407 C 110.75113,1052.1327 110.83414,1053.0439 111.88514,1054.4314 C 113.23046,1056.2075 113.29496,1056.19 113.32534,1054.0408 C 113.3738,1050.612 114.79756,1051.3016 119.27207,1056.9214 C 123.49111,1062.2203 124.51128,1065.7908 121.80625,1065.7908 C 120.58597,1065.7908 120.77398,1066.4836 122.68819,1069.0408 C 127.06561,1074.8885 128.48585,1078.5877 127.78594,1082.3186 C 127.23108,1085.2762 127.41177,1085.7908 129.0053,1085.7908 C 130.03421,1085.7908 131.41586,1084.9264 132.07562,1083.8699 C 133.07861,1082.2639 132.84916,1081.3216 130.67551,1078.1199 C 127.04284,1072.7692 125.97385,1068.7853 128.17695,1068.8082 C 129.16638,1068.8185 131.39883,1071.416 133.60714,1075.1263 C 137.53391,1081.7239 138.19568,1084.3446 136.11048,1085.0396 C 135.26362,1085.3219 135.72654,1086.5513 137.55392,1088.873 C 139.03348,1090.7528 143.1758,1096.1158 146.75908,1100.7908 C 154.92528,1111.4449 155.22826,1111.7908 156.39657,1111.7908 C 156.92488,1111.7908 157.35714,1110.8908 157.35714,1109.7908 C 157.35714,1106.7816 158.45849,1107.3038 163.89473,1112.8906 C 166.62406,1115.6956 171.66964,1119.7859 175.10714,1121.9803 C 178.54464,1124.1747 181.35714,1126.6188 181.35714,1127.4118 C 181.35714,1129.7447 178.35604,1130.2213 175.24362,1128.3828 C 172.05183,1126.4973 170.61248,1126.9263 169.43312,1130.1144 C 168.78688,1131.8613 169.4032,1132.8091 172.9432,1135.5121 C 178.0721,1139.4283 179.14718,1139.6454 176.97215,1136.3259 C 174.71896,1132.8871 174.92196,1132.6403 178.4024,1134.5873 C 181.28153,1136.1978 181.50244,1136.1953 182.45209,1134.5408 C 183.95355,1131.9248 184.88643,1132.3086 190.91523,1138.0229 C 193.95131,1140.9006 197.09277,1143.6229 197.89626,1144.0726 C 198.69974,1144.5222 199.35714,1145.4643 199.35714,1146.1661 C 199.35714,1148.0365 194.686,1152.112 193.43117,1151.3365 C 192.84045,1150.9714 192.35714,1151.1334 192.35714,1151.6966 C 192.35714,1154.0538 202.10916,1156.81 203.34936,1154.8033 C 203.9048,1153.9046 204.94352,1154.0665 207.47444,1155.4462 C 209.33492,1156.4604 211.98214,1157.5198 213.35714,1157.8003 C 215.0155,1158.1387 215.85714,1158.9804 215.85714,1160.3006 C 215.85714,1163.1653 211.81856,1163.4184 207.23277,1160.841 L 203.43907,1158.7088 L 201.42102,1160.7269 L 199.40298,1162.7449 L 201.46202,1163.8469 C 203.10599,1164.7267 203.76967,1164.6088 204.75439,1163.2622 C 205.8894,1161.7099 206.46085,1161.8191 211.92243,1164.631 C 215.18652,1166.3116 219.20714,1168.6071 220.85714,1169.7321 C 224.80072,1172.4209 226.79284,1172.4734 225.38962,1169.8514 C 224.72761,1168.6145 224.70245,1167.6954 225.32014,1167.3136 C 226.34169,1166.6823 233.82752,1170.1248 234.77828,1171.6632 C 235.61276,1173.0134 232.63975,1175.0802 231.15094,1174.1849 C 230.18941,1173.6067 230.20961,1173.8414 231.22958,1175.0988 C 231.98443,1176.0294 233.14478,1176.7908 233.80814,1176.7908 C 234.4715,1176.7908 237.16811,1178.2174 239.80061,1179.9611 C 244.08889,1182.8015 244.68463,1182.957 245.52544,1181.4545 C 246.76802,1179.2341 250.08927,1180.9074 250.5373,1183.9795 C 250.75858,1185.4967 251.85867,1186.4307 254.10714,1187.0102 C 257.55018,1187.8977 258.40936,1190.324 256.10714,1192.6581 C 255.10526,1193.6738 255.24245,1194.2098 256.79827,1195.3581 C 259.43717,1197.3058 260.35714,1197.1591 260.35714,1194.7908 C 260.35714,1192.2928 263.41869,1192.1298 266.94435,1194.4399 C 268.76024,1195.6297 269.37708,1196.8133 269.15917,1198.6899 C 268.92601,1200.6977 269.34087,1201.3598 270.97854,1201.5935 C 272.76444,1201.8483 273.02277,1201.4924 272.61197,1199.3435 C 271.90435,1195.6418 274.85636,1195.9754 284.70481,1200.7099 C 304.82119,1210.3805 318.53228,1214.8358 335.85714,1217.3312 C 342.04851,1218.2229 343.35463,1218.7912 343.38856,1220.6081 C 343.43916,1223.3174 347.42667,1225.4343 353.67547,1226.0692 C 358.65701,1226.5753 359.32255,1226.454 358.30303,1225.2256 C 357.6481,1224.4364 355.78777,1223.7908 354.16895,1223.7908 C 350.47733,1223.7908 347.35714,1222.1714 347.35714,1220.2556 C 347.35714,1218.2537 353.46307,1218.3311 360.42564,1220.4212 C 363.4212,1221.3205 373.38632,1222.5538 382.64522,1223.1712 C 391.87867,1223.787 399.75367,1224.7408 400.14522,1225.2908 C 400.53678,1225.8408 402.35201,1226.3606 404.17908,1226.446 C 408.33993,1226.6405 408.79623,1227.1018 407.40298,1229.7051 C 406.341,1231.6894 406.52854,1231.7908 411.26294,1231.7908 C 413.99983,1231.7908 416.51722,1231.3408 416.85714,1230.7908 z M 411.30275,1145.5408 C 406.52355,1135.2995 390.21557,1108.1627 386.34092,1104.0037 C 385.20699,1102.7866 383.58623,1101.7908 382.73923,1101.7908 C 381.89223,1101.7908 378.62906,1104.0262 375.48775,1106.7584 C 365.88648,1115.1094 351.01448,1120.7908 338.75576,1120.7908 C 311.75913,1120.7908 288.39617,1103.4175 280.45295,1077.4354 C 279.30025,1073.665 278.35714,1069.0991 278.35714,1067.289 C 278.35714,1063.5083 275.63702,1060.7363 265.60214,1054.2908 C 259.41418,1050.3162 257.70484,1047.362 260.88653,1046.1411 C 262.21359,1045.6319 262.18511,1045.3854 260.67128,1044.2785 C 259.08606,1043.1194 258.95467,1040.9827 259.23349,1020.8968 C 259.44007,1006.0148 259.19932,998.79075 258.49679,998.79075 C 257.92283,998.79075 256.13535,1000.7033 254.52461,1003.0408 C 250.52249,1008.8486 236.01653,1027.638 232.82285,1031.1507 C 231.39274,1032.7237 229.2404,1034.0123 228.03989,1034.0144 C 225.94954,1034.0179 215.21487,1030.1695 212.60714,1028.4817 C 210.57244,1027.1649 211.17619,1024.1393 213.81927,1022.4075 C 215.17344,1021.5202 218.88594,1018.3735 222.06927,1015.4147 C 225.2526,1012.456 230.95984,1007.4987 234.75204,1004.3984 C 245.31905,995.75961 249.35714,991.91885 249.35714,990.50703 C 249.35714,989.79812 246.14596,988.10945 242.22118,986.75443 C 238.26307,985.3879 234.50294,983.40009 233.77772,982.29075 C 233.05859,981.19075 232.01018,977.41866 231.44792,973.90832 C 230.12372,965.64111 229.35714,965.01073 229.35714,972.18901 C 229.35714,977.17589 228.69686,979.14543 224.27542,987.34717 C 221.48048,992.53177 218.81288,997.00909 218.34742,997.29676 C 216.92962,998.17301 216.47096,994.7213 216.7424,985.218 C 216.88493,980.22798 216.7156,973.54739 216.36611,970.37224 C 215.75755,964.84342 215.83909,964.55727 218.29391,963.60722 C 223.16649,961.72145 227.5059,961.41679 228.45725,962.89367 C 229.16465,963.99184 229.48912,963.80936 229.9738,962.04075 C 231.09392,957.9534 233.15441,958.85051 250.57231,971.00908 C 255.91566,974.739 261.00058,977.79075 261.87214,977.79075 C 262.7437,977.79075 267.07407,974.07825 271.49518,969.54075 C 275.91629,965.00325 288.04386,952.65246 298.44535,942.09455 C 308.84683,931.53665 317.35714,922.4018 317.35714,921.7949 C 317.35714,921.04851 315.4965,920.88601 311.60714,921.29273 C 288.40227,923.71935 285.35714,923.55293 285.35714,919.85816 C 285.35714,918.75979 286.36964,917.34697 287.60714,916.71857 C 290.53089,915.23389 377.35714,827.76946 377.35714,826.30889 C 377.35714,825.69739 375.54231,819.81815 373.32418,813.24391 C 361.03091,776.80829 353.43128,742.6068 347.33698,696.29075 C 343.91401,670.27653 344.10747,671.0553 343.23814,679.79075 C 342.82763,683.91575 342.53456,721.82376 342.58688,764.03078 L 342.682,840.77081 L 339.07645,843.53078 C 337.0934,845.04876 330.01278,850.90325 323.34175,856.54075 C 316.67072,862.17825 310.82642,866.79075 310.35442,866.79075 C 308.97987,866.79075 308.80859,863.0833 309.59216,850.29075 C 309.99642,843.69075 310.28238,818.26575 310.22762,793.79075 C 310.17286,769.31575 310.20062,729.95008 310.28931,706.31149 C 310.43854,666.53761 310.32095,663.23746 308.71272,662.06149 C 306.25099,660.26143 303.59022,660.48673 302.46427,662.59057 C 300.74473,665.80356 300.27822,686.76481 299.87813,778.79075 C 299.66173,828.56575 299.45598,871.36923 299.42091,873.90961 C 299.35932,878.37041 299.13028,878.7126 292.72738,883.90961 C 284.60839,890.4995 279.52294,894.97992 273.85041,900.54075 C 271.46595,902.87825 268.59297,904.79075 267.46601,904.79075 C 265.45443,904.79075 265.42677,904.44799 265.95286,886.04075 C 266.55353,865.02409 266.66455,730.70176 266.12003,683.79075 C 265.92531,667.01575 265.40086,652.50325 264.95458,651.54075 C 264.31718,650.16605 261.35773,648.93213 261.35697,650.04075 C 261.35687,650.17825 260.64242,653.89075 259.76928,658.29075 C 258.37147,665.3348 258.17956,681.10245 258.16331,790.24387 L 258.14486,914.19699 L 253.47936,918.74387 C 250.91334,921.24465 244.3236,927.22193 238.8355,932.02671 C 229.78869,939.9471 226.35715,942.15095 226.35713,940.04075 C 226.35713,939.62825 226.14118,929.39075 225.87726,917.29075 C 225.26551,889.24451 225.28314,878.71951 225.94366,877.65076 C 226.23338,877.18199 226.68137,823.61699 226.93919,758.61743 C 227.19702,693.61788 227.65046,639.47026 227.94684,638.28938 C 228.55736,635.85687 227.04458,634.25238 223.24039,633.29758 L 220.63483,632.64363 L 219.95614,645.96719 C 219.58287,653.29515 219.36099,724.48905 219.46308,804.17586 L 219.64871,949.06098 L 216.25292,952.00017 C 214.38524,953.61672 209.93214,957.54862 206.35714,960.73772 C 189.66961,975.62394 185.15522,978.68499 184.18433,975.77232 C 183.7178,974.37274 184.11608,775.74813 184.76594,685.72033 C 185.23457,620.79861 185.11754,611.89368 183.77037,609.97033 C 182.93072,608.77156 181.36925,607.79075 180.30044,607.79075 C 178.5229,607.79075 178.35848,608.53712 178.37289,616.54075 C 178.38156,621.35325 178.1408,633.16575 177.83788,642.79075 C 177.53496,652.41575 177.314,716.31575 177.34685,784.79075 C 177.43279,963.91594 177.51132,975.25201 178.70226,980.45642 L 179.76471,985.09936 L 175.81093,988.56124 C 173.63634,990.46528 168.03214,995.21382 163.35714,999.11356 C 158.68214,1003.0133 151.83868,1009.0915 148.14944,1012.6206 C 143.56957,1017.0017 140.93135,1018.8413 139.83279,1018.4198 C 138.35781,1017.8538 138.27679,997.17314 138.85981,770.04656 C 139.5247,511.02455 139.65755,503.46544 143.86229,485.39998 C 145.44723,478.59037 148.84958,470.79239 152.48539,465.63638 C 154.86391,462.26335 154.841,460.09659 152.38423,456.06728 C 148.87253,450.30778 145.35501,437.65947 144.73698,428.5692 C 143.89589,416.19828 146.84306,404.79075 150.88019,404.79075 C 152.03852,404.79075 152.35714,406.26308 152.35714,411.6156 C 152.35714,422.08457 158.40158,438.11739 161.60259,436.13905 C 162.14058,435.80656 162.96728,436.15467 163.43971,436.91263 C 164.88585,439.23282 180.03887,438.3624 189.17369,435.43442 C 215.14919,427.10852 225.74516,425.28721 239.67653,426.75368 C 250.19295,427.86067 254.06448,429.86014 263.0292,438.81424 C 267.31504,443.09501 269.88533,446.70745 271.43968,450.63487 C 272.67081,453.7456 274.28089,457.00118 275.01762,457.86949 C 277.98788,461.3702 276.03219,465.70721 266.14593,477.54362 C 258.70012,486.45819 252.71549,490.64676 243.35714,493.49324 C 229.53619,497.69709 209.86057,492.99251 198.43745,482.75263 C 196.00663,480.5736 193.24299,478.79075 192.29603,478.79075 C 188.74147,478.79075 185.04529,493.37359 185.0673,507.31085 C 185.08455,518.23128 187.03301,525.56096 192.63813,535.79075 C 205.74859,559.71839 217.58906,571.02912 241.85714,582.80773 C 256.80057,590.06059 283.62126,598.63424 304.12261,602.71187 C 319.3881,605.74811 344.07505,608.2711 345.91461,606.98299 C 346.45834,606.60226 347.74867,602.01575 348.78201,596.79075 C 351.20969,584.51544 355.38827,572.21961 359.95723,563.90675 C 364.20015,556.18709 376.4781,539.097 382.96303,531.8842 C 385.4448,529.12388 387.89874,525.3891 388.41624,523.58469 C 390.64411,515.81655 388.68875,491.72236 385.578,488.61161 C 385.02796,488.06157 380.96034,487.30065 376.53885,486.92068 C 370.80119,486.4276 367.90681,485.69319 366.42846,484.3553 C 364.006,482.16299 363.7124,478.97539 365.85714,478.15238 C 366.68214,477.83579 367.35714,477.0098 367.35714,476.31683 C 367.35714,475.00354 354.6132,466.40918 348.10714,463.33486 C 346.04464,462.36026 344.35714,461.16414 344.35714,460.67681 C 344.35714,460.18948 343.56964,459.78778 342.60714,459.78416 C 341.64464,459.78054 339.50714,458.88269 337.85714,457.78894 C 336.20714,456.69519 332.49464,454.64005 329.60714,453.22198 C 326.71964,451.8039 324.35714,450.07553 324.35714,449.38115 C 324.35714,448.68678 321.61574,447.35647 318.26513,446.42492 C 311.30977,444.49116 303.34397,440.68473 301.43245,438.38149 C 299.81058,436.42726 300.7234,433.79075 303.02188,433.79075 C 303.972,433.79075 312.54166,436.94075 322.06556,440.79075 C 339.92637,448.01091 342.98192,448.86129 342.01554,446.34295 C 339.49146,439.76529 336.21174,428.99512 334.81738,422.70509 C 333.27427,415.74404 333.26684,414.86605 334.72716,412.0421 C 336.0209,409.54029 337.26644,408.76147 341.38705,407.87776 C 349.2135,406.19928 361.52461,406.58351 372.99473,408.86422 L 383.42258,410.93769 L 385.87258,408.61422 C 387.22009,407.33631 388.33036,405.82538 388.33986,405.25659 C 388.36221,403.91894 398.19398,394.35831 401.0414,392.90533 C 403.82466,391.48509 421.63805,391.4634 426.71846,392.87407 C 431.98807,394.33727 439.5804,399.08876 447.35714,405.79031 C 458.48803,415.38229 464.4294,418.56965 477.18099,421.78986 C 483.53017,423.39324 485.15333,423.47116 489.37784,422.37534 C 494.5838,421.02493 504.30017,414.33352 506.96853,410.26108 C 508.77725,407.50064 512.10881,406.98005 513.00585,409.31769 C 513.74783,411.25127 509.84062,416.90723 502.18528,424.98123 C 498.89499,428.45147 493.44225,434.66575 490.06808,438.79075 C 486.69391,442.91575 482.56611,447.4899 480.89518,448.95554 C 479.22426,450.42117 476.77615,452.55835 475.45494,453.70484 C 472.44872,456.31349 472.48969,458.93389 475.69868,469.29075 C 477.84153,476.20674 485.39905,504.16694 488.40257,516.29075 C 490.44557,524.53741 494.51327,547.59491 495.37098,555.79075 C 495.86023,560.46575 497.19719,573.69537 498.34199,585.1899 C 499.4868,596.68443 500.67921,606.50286 500.99179,607.00862 C 502.29173,609.11197 536.62883,603.22164 555.46645,597.66381 C 561.18133,595.9777 569.23691,593.60146 573.36775,592.38327 C 610.75276,581.35836 643.99996,549.48229 649.72203,519.17786 C 651.89634,507.66258 650.48254,491.07966 646.90992,486.19382 C 645.64354,484.46194 645.39613,484.49917 641.63625,486.98734 C 635.63391,490.9595 622.54259,494.9561 611.35714,496.23114 C 604.28334,497.03748 590.66102,494.48517 583.98642,491.10289 C 577.03362,487.57964 568.20271,478.85441 564.43497,471.7854 C 562.69757,468.5257 560.8443,465.59183 560.3166,465.2657 C 558.22723,463.9744 559.58767,460.07113 563.61899,455.79075 C 565.94997,453.31575 569.64289,449.26575 571.82548,446.79075 C 576.10178,441.94153 584.32164,434.93946 591.03638,430.42599 C 594.55129,428.06336 596.74933,427.48541 604.86387,426.79017 C 619.53258,425.53339 627.65363,427.06843 640.91763,433.60505 C 647.93183,437.06171 664.34871,440.58055 672.41778,440.35688 C 676.48124,440.24424 679.23951,439.46369 682.66221,437.45785 C 687.72801,434.4891 689.78075,431.45083 690.90599,425.25619 C 691.95919,419.45817 694.44377,413.65296 695.69375,414.06962 C 697.58211,414.69907 700.32943,426.01698 700.34356,433.22503 C 700.35336,438.2299 699.77735,441.35698 698.27339,444.46376 C 696.18109,448.78586 688.80787,456.12711 684.60714,458.07073 C 683.36964,458.64331 682.35714,459.49464 682.35714,459.96257 C 682.35714,460.43051 684.10246,463.39578 686.23564,466.55206 C 691.32703,474.08537 692.66644,476.90459 695.13837,485.29075 C 698.425,496.4408 699.66197,507.22354 699.44028,522.79075 C 699.22852,537.65993 699.03868,748.18894 699.17155,820.79075 C 699.30705,894.82402 698.51262,1012.7302 697.87131,1013.7678 C 696.69548,1015.6704 694.79818,1014.8066 689.68438,1010.0408 C 686.88115,1007.4283 680.85326,1002.2091 676.28907,998.44258 C 671.72488,994.67608 667.06052,990.41184 665.92384,988.96648 L 663.85714,986.33855 L 663.75395,797.81465 C 663.6972,694.12651 663.5847,608.50325 663.50395,607.54075 C 663.32468,605.40378 660.56121,605.32055 657.85714,607.37069 C 655.96778,608.80314 655.85464,610.08753 655.81193,630.58889 C 655.58437,739.81255 655.4675,836.79034 655.51944,873.29075 C 655.55388,897.49075 655.23396,930.90325 654.80852,947.54075 C 653.92169,982.22118 654.38445,980.99056 645.35714,972.67491 C 642.33214,969.88838 638.28214,966.56584 636.35714,965.29148 C 634.43214,964.01713 630.6695,961.01895 627.99571,958.62887 L 623.13429,954.28327 L 622.806,794.89729 C 622.57305,681.80237 622.16177,635.19538 621.3899,634.42351 C 619.36279,632.3964 616.90089,635.19895 616.14418,640.39507 C 614.60135,650.98912 614.32821,676.28479 614.34544,806.97982 C 614.35782,900.92054 614.03938,942.8691 613.31046,943.3196 C 612.73138,943.67749 610.9686,942.9174 609.39317,941.63053 C 600.04251,933.99254 588.51051,924.1187 586.35714,921.90678 L 583.85714,919.33881 L 583.79319,787.81478 C 583.74381,686.24353 583.45113,655.77834 582.50801,654.04075 C 581.74607,652.63696 580.35046,651.79075 578.79721,651.79075 C 577.1202,651.79075 576.04535,652.52512 575.50403,654.04075 C 575.06205,655.27825 574.76431,712.99075 574.84239,782.29075 C 574.92047,851.59075 574.80626,908.82415 574.58858,909.47608 C 574.01237,911.20177 570.48187,908.82093 556.48102,897.26504 C 549.67395,891.64668 544.11358,886.27407 543.74879,884.96274 C 543.3926,883.68234 543.04626,833.73234 542.97915,773.96274 C 542.91205,714.19315 542.4715,664.50325 542.00015,663.54075 C 540.82944,661.15011 535.68113,661.19458 534.91707,663.60193 C 534.6009,664.59808 534.44977,712.60085 534.58122,770.27475 C 534.76869,852.52418 534.55506,875.22478 533.59055,875.54628 C 531.65884,876.19018 525.62618,872.0167 515.85714,863.27805 C 510.90714,858.85015 504.93109,853.73055 502.57704,851.90116 C 497.40001,847.87799 495.11881,843.968 496.50425,841.49237 C 497.74534,839.27465 496.85586,681.50443 495.57851,677.29075 L 494.66908,674.29075 L 494.03084,677.29075 C 493.67981,678.94075 492.46479,686.14075 491.33079,693.29075 C 487.57607,716.96477 485.4177,729.19286 483.47614,737.79075 C 480.36287,751.57743 470.3257,787.67831 464.86832,804.7179 C 459.1993,822.41826 458.93043,820.78852 469.33479,831.79075 C 474.27585,837.01575 478.33363,841.74075 478.35207,842.29075 C 478.37051,842.84075 484.5166,849.59075 492.01005,857.29075 C 499.5035,864.99075 512.8846,879.16575 521.74582,888.79075 C 530.60705,898.41575 541.45714,909.95568 545.85714,914.43504 C 566.6268,935.57929 568.16324,937.55648 565.23216,939.36799 C 564.03958,940.10505 552.85167,937.79074 542.85714,934.73954 C 535.14583,932.38538 526.43464,930.85633 525.87675,931.75902 C 525.63761,932.14596 529.72103,937.14889 534.95103,942.87665 C 540.18103,948.6044 544.82249,953.74075 545.2654,954.29075 C 545.7083,954.84075 547.14763,956.23753 548.46391,957.3947 C 549.78019,958.55188 556.03009,964.78223 562.35258,971.23993 L 573.84803,982.9812 L 577.28845,981.13597 C 579.18068,980.1211 582.77448,977.60325 585.27468,975.54075 C 587.77487,973.47825 590.21932,971.79075 590.70679,971.79075 C 591.19427,971.79075 593.13068,970.44075 595.00992,968.79075 C 599.08717,965.21088 601.86636,964.94357 602.80781,968.04075 C 603.47146,970.22404 603.5231,970.20552 604.54928,967.41624 C 605.56349,964.65948 605.80748,964.5655 610.5058,965.12195 C 613.20024,965.44107 615.78921,965.93975 616.25905,966.23013 C 616.91271,966.63411 618.6601,989.41341 618.83243,999.77705 C 618.84602,1000.5945 618.15545,1001.3985 617.29783,1001.5637 C 615.35603,1001.9376 606.39134,984.63829 604.71936,977.29075 L 603.58158,972.29075 L 603.46936,979.84075 C 603.34833,987.9836 602.44083,989.79075 598.47274,989.79075 C 594.41561,989.79075 584.21461,992.99861 583.65784,994.44953 C 583.11601,995.86151 587.6255,1000.5645 603.11932,1014.7463 C 611.9999,1022.8748 613.58578,1025.4265 611.59183,1028.3784 C 610.71836,1029.6716 596.45653,1037.2411 595.952,1036.6794 C 595.76004,1036.4656 594.6152,1034.3325 593.40792,1031.9392 C 589.95767,1025.0993 576.51761,1004.7908 575.44125,1004.7908 C 574.83698,1004.7908 574.57154,1012.4332 574.73794,1025.0408 C 574.88493,1036.1783 574.83197,1045.7992 574.62025,1046.4207 C 574.36344,1047.1745 572.13727,1047.3823 567.93306,1047.0448 C 563.53226,1046.6915 561.40003,1046.9123 560.86587,1047.7766 C 559.64298,1049.7553 562.35332,1050.697 567.51261,1050.0859 C 571.96311,1049.5588 572.35872,1049.7001 573.51041,1052.2278 C 574.97669,1055.4459 574.03344,1056.3317 568.067,1057.3398 C 565.90263,1057.7054 560.71429,1060.3577 556.14106,1063.4362 C 548.44092,1068.6197 545.35714,1069.4976 545.35714,1066.5062 C 545.35714,1065.7652 547.82463,1062.4885 550.84045,1059.2248 C 557.00155,1052.5573 557.91912,1050.7093 556.44056,1047.9466 C 555.42785,1046.0544 556.98074,1034.9537 558.42086,1033.7908 C 559.03435,1033.2953 564.37229,1006.5067 564.36232,1003.9734 C 564.35901,1003.1303 563.66629,1002.8752 562.4384,1003.265 C 560.1817,1003.9812 542.92907,1014.2528 539.47228,1016.9381 C 535.78865,1019.7997 533.81883,1019.1921 530.07913,1014.0408 C 525.33778,1007.5097 524.15168,1005.0134 524.80769,1002.9466 C 525.31501,1001.3481 537.84081,996.66565 554.85714,991.71329 C 560.3956,990.1014 560.83091,989.42468 558.17384,986.5573 C 556.20242,984.42985 539.80752,969.92212 529.85714,961.50006 C 528.20714,960.10349 522.35714,955.05703 516.85714,950.2857 C 507.07466,941.79927 501.77275,938.41585 499.9866,939.51976 C 498.37382,940.51651 500.29233,969.80919 502.26393,974.29094 C 504.24466,978.79347 504.00121,980.79075 501.47165,980.79075 C 500.39702,980.79075 497.53452,977.32399 493.83395,971.54075 C 490.57857,966.45325 485.65204,959.07406 482.88611,955.14255 C 480.12018,951.21105 476.9623,946.48605 475.86862,944.64255 C 470.17835,935.05119 468.98436,933.16857 466.65347,930.11261 C 463.50857,925.98944 460.60962,925.74646 459.83073,929.54075 C 459.52024,931.05325 458.84643,933.88537 458.33337,935.83434 C 455.46335,946.73681 456.61856,990.62292 460.22748,1007.7908 C 463.80248,1024.7973 469.0647,1040.343 473.99636,1048.4671 C 479.83367,1058.0832 480.64345,1059.0343 487.57744,1064.4194 C 495.50196,1070.5738 500.71269,1072.7425 507.63852,1072.7688 C 511.84017,1072.7848 513.57719,1073.2006 513.99551,1074.2908 C 514.36822,1075.262 515.91823,1075.7908 518.3927,1075.7908 C 520.49457,1075.7908 522.88928,1075.1158 523.71428,1074.2908 C 524.53928,1073.4658 526.93393,1072.7809 529.03571,1072.7688 C 531.1375,1072.7567 534.82999,1071.8517 537.24124,1070.7576 C 545.33117,1067.087 546.10715,1071.5796 539.78642,1085.4929 C 535.42341,1095.0969 523.94379,1106.8015 513.68066,1112.1103 C 504.45388,1116.8831 491.74813,1120.0916 484.39484,1119.5058 C 473.80084,1118.6617 459.47922,1113.5565 448.1343,1106.5801 C 445.19553,1104.7729 444.03764,1104.524 442.63659,1105.3983 C 441.66041,1106.0074 437.93569,1111.6702 434.35943,1117.9822 C 430.78317,1124.2942 427.02824,1130.5458 426.01514,1131.8747 C 425.00204,1133.2035 422.17422,1137.7783 419.73109,1142.0408 C 417.28796,1146.3033 414.83837,1149.7908 414.28755,1149.7908 C 413.73673,1149.7908 412.39357,1147.8783 411.30275,1145.5408 z M 324.18589,1067.9928 C 331.74028,1065.0586 341.7512,1058.2853 346.50013,1052.8952 C 351.75406,1046.9319 361.1959,1032.7305 364.17092,1026.3168 C 367.27234,1019.6306 373.96017,995.79841 375.77512,984.96506 C 378.29512,969.9233 380.38457,940.18646 379.49383,932.04075 C 379.25654,929.87073 377.48242,930.66547 373.35894,934.78895 C 367.94782,940.20007 345.07637,968.69848 341.05479,975.04075 C 339.10362,978.11785 336.90235,978.58741 335.57204,976.21027 C 335.08558,975.34101 334.89845,967.69101 335.15621,959.21027 C 335.55049,946.23795 335.39629,943.79075 334.18459,943.79075 C 332.8495,943.79075 325.98262,948.48692 312.98227,958.29075 C 307.60231,962.34789 291.59183,974.2319 281.10714,981.95053 C 277.94464,984.27871 275.35714,986.48671 275.35714,986.8572 C 275.35714,987.2277 277.49464,988.08499 280.10714,988.7623 C 282.71964,989.43961 287.55714,991.04204 290.85714,992.32326 C 294.15714,993.60447 300.11964,995.59674 304.10714,996.75053 C 310.3204,998.54834 311.35714,999.1681 311.35714,1001.0846 C 311.35714,1002.8066 309.37633,1004.5684 302.74242,1008.7466 C 292.9154,1014.9359 294.7592,1015.1819 282.73967,1006.0774 C 275.29754,1000.4401 271.61352,998.20104 270.92053,998.89402 C 270.67874,999.13581 271.59534,1004.049 272.95741,1009.8122 C 274.31948,1015.5754 276.09555,1024.0846 276.90422,1028.7216 C 277.71289,1033.3586 279.04562,1037.894 279.86584,1038.8004 C 283.0766,1042.3482 281.21635,1043.7325 273.02535,1043.8904 C 270.18284,1043.9453 266.73214,1044.3333 265.35714,1044.7528 C 261.24758,1046.0065 265.5268,1047.1586 271.39944,1046.3795 C 275.20893,1045.8742 276.35714,1046.033 276.35714,1047.0651 C 276.35714,1047.8039 277.99882,1051.0819 280.00533,1054.3496 C 282.06805,1057.7088 283.67603,1061.6473 283.70533,1063.4122 C 283.7492,1066.0551 284.30138,1066.7353 287.30714,1067.8493 C 296.80643,1071.37 315.30541,1071.442 324.18589,1067.9928 z M 290.35714,1034.768 C 290.35714,1033.5638 291.41429,1031.747 292.70637,1030.7307 C 293.99845,1029.7143 297.19577,1025.7217 299.81152,1021.8581 C 304.94018,1014.2829 311.43507,1007.7908 313.88477,1007.7908 C 314.7218,1007.7908 315.84443,1008.8033 316.3795,1010.0408 C 316.91458,1011.2783 317.91594,1013.1237 318.60475,1014.1417 C 319.68955,1015.7449 319.46892,1016.2802 316.95602,1018.1417 C 315.36041,1019.3237 310.57851,1022.9908 306.32958,1026.2908 C 299.78058,1031.3771 294.35655,1035.0504 291.10714,1036.5998 C 290.69464,1036.7965 290.35714,1035.9722 290.35714,1034.768 z M 688.50714,808.29075 C 688.50714,807.76825 688.02339,807.1795 687.43214,806.98242 C 686.84089,806.78533 686.35714,807.37408 686.35714,808.29075 C 686.35714,809.20742 686.84089,809.79617 687.43214,809.59908 C 688.02339,809.402 688.50714,808.81325 688.50714,808.29075 z M 384.65804,461.35241 C 384.54854,459.85646 383.46898,456.58751 382.25903,454.08808 C 380.4438,450.33831 379.10698,449.10776 374.61409,447.05085 C 370.07527,444.97291 368.31282,444.67162 364.02411,445.24054 C 358.51138,445.97183 352.35714,449.13567 352.35714,451.23842 C 352.35714,452.73232 364.34021,458.32174 369.69771,459.32682 C 371.7104,459.7044 373.35714,460.39963 373.35714,460.87178 C 373.35714,461.8339 382.29972,464.80308 383.85714,464.35806 C 384.40714,464.2009 384.76755,462.84836 384.65804,461.35241 z M 149.2745,1100.6016 C 142.65581,1092.488 141.22912,1089.7908 143.55618,1089.7908 C 145.72052,1089.7908 154.35714,1099.8768 154.35714,1102.4044 C 154.35714,1105.8019 153.1745,1105.3824 149.2745,1100.6016 z M 225.02584,1062.5403 C 224.24705,1060.6764 222.3479,1057.1577 220.80552,1054.721 C 219.26314,1052.2844 216.69741,1047.8158 215.10389,1044.7908 C 213.51038,1041.7658 211.61869,1038.6158 210.90015,1037.7908 C 208.72607,1035.2946 208.04834,1031.8465 209.61373,1031.2458 C 211.23619,1030.6232 223.29721,1036.092 224.5069,1037.9988 C 224.95769,1038.7094 225.33341,1041.3337 225.34183,1043.8307 C 225.35025,1046.3276 226.09687,1051.0526 227.00099,1054.3307 C 227.9051,1057.6087 228.6926,1061.3718 228.75099,1062.6931 C 228.91523,1066.4102 226.60315,1066.3153 225.02584,1062.5403 z M 602.94249,1060.2332 C 601.93723,1059.228 601.51816,1057.8702 601.91736,1056.9118 C 602.28875,1056.0202 602.82601,1050.878 603.11127,1045.4846 L 603.62994,1035.6785 L 610.46858,1032.2346 C 614.22983,1030.3405 617.99345,1028.7908 618.83218,1028.7908 C 620.74031,1028.7908 620.81417,1031.6165 618.9608,1033.712 C 618.19282,1034.5803 615.2027,1040.6908 612.3161,1047.2908 C 606.07569,1061.559 605.31648,1062.6072 602.94249,1060.2332 z M 525.97321,1038.264 C 525.08437,1037.3751 524.35714,1035.7229 524.35714,1034.5924 C 524.35714,1033.4619 522.55714,1029.2762 520.35714,1025.2908 C 518.15714,1021.3053 516.36925,1017.4249 516.38404,1016.6676 C 516.39884,1015.9104 517.72577,1013.7158 519.33278,1011.7908 C 521.68923,1008.968 522.58165,1008.4918 523.94463,1009.3296 C 527.18357,1011.3205 530.3244,1019.035 530.73682,1026.0126 C 531.39902,1037.2161 529.5866,1041.8774 525.97321,1038.264 z M 78.346653,978.54075 C 75.110503,971.01572 67.090733,950.75691 66.225283,947.92086 C 65.491263,945.51549 65.517993,944.2299 66.318673,943.42922 C 67.630443,942.11745 69.032323,943.80135 69.949723,947.79075 C 70.265913,949.16575 71.570863,952.31575 72.849603,954.79075 C 74.128343,957.26575 75.711273,961.30821 76.367213,963.774 C 77.023163,966.23979 78.669903,970.44785 80.026643,973.12523 C 82.412943,977.83438 82.544243,980.79075 80.367093,980.79075 C 79.788033,980.79075 78.878843,979.77825 78.346653,978.54075 z M 66.076343,941.12788 C 65.797753,940.66746 65.241593,929.43902 64.840453,916.1758 C 64.282493,897.72799 64.395493,891.88509 65.321253,891.31293 C 68.353013,889.4392 68.834953,892.8527 68.846053,916.27887 C 68.853713,932.44768 68.505393,940.04116 67.720013,940.82709 C 67.094583,941.45295 66.354933,941.58831 66.076343,941.12788 z M 65.023813,869.12408 C 63.845713,867.94599 64.257743,843.97022 65.468943,843.22165 C 67.565013,841.92621 68.326533,845.30249 68.341833,855.95896 C 68.359773,868.45913 67.554393,871.65467 65.023813,869.12408 z M 64.312693,799.11407 C 64.288243,793.71125 64.120283,780.20629 63.939453,769.10307 C 63.589063,747.58893 63.871503,743.79075 65.821753,743.79075 C 67.471583,743.79075 68.213663,758.17494 68.013633,786.27713 C 67.870773,806.34923 67.704773,808.29285 66.107143,808.60046 C 64.538723,808.90244 64.352533,807.91812 64.312693,799.11407 z M 56.780783,716.45236 C 56.498313,715.71624 56.399933,711.55374 56.562173,707.20236 C 56.794623,700.96758 57.175063,699.29075 58.357143,699.29075 C 59.561643,699.29075 59.913783,701.11298 60.144673,708.54075 C 60.388933,716.39905 60.196143,717.79075 58.863283,717.79075 C 58.000383,717.79075 57.063263,717.18847 56.780783,716.45236 z M 65.023813,710.12408 C 64.035573,709.13585 64.244783,689.5165 65.260653,687.91263 C 67.274973,684.73241 68.357143,688.17669 68.357143,697.76798 C 68.357143,709.46408 67.508733,712.609 65.023813,710.12408 z M 56.668543,685.15986 C 55.627383,682.44664 57.230143,631.51775 58.393303,630.35459 C 60.708433,628.03946 61.488233,632.30663 60.923063,644.19775 C 60.611813,650.7466 60.357143,663.0091 60.357143,671.44775 C 60.357143,684.55906 60.134393,686.79075 58.825753,686.79075 C 57.983493,686.79075 57.012753,686.05685 56.668543,685.15986 z M 65.065823,613.54075 C 65.365563,587.00325 65.778733,565.10325 65.983973,564.87408 C 67.455843,563.23064 67.897973,569.77842 68.195253,597.62264 C 68.615043,636.94171 67.700083,661.79075 65.832533,661.79075 C 64.760853,661.79075 64.620553,652.96157 65.065823,613.54075 z M 57.881353,615.54075 C 57.201283,613.48256 56.446243,563.59524 57.049503,560.57893 C 57.602823,557.81235 60.226073,556.6429 60.499873,559.04075 C 61.010083,563.50894 61.245063,607.26358 60.781823,611.54075 C 60.250913,616.44282 58.827863,618.40533 57.881353,615.54075 z M 52.075523,569.1441 C 51.752723,568.6218 51.489493,563.94113 51.490563,558.74261 C 51.491633,553.54409 51.452413,539.6934 51.403413,527.9633 C 51.320293,508.06369 51.432923,506.65892 53.085733,506.98031 C 54.733743,507.30077 54.857143,509.4065 54.857143,537.20793 C 54.857143,557.31876 54.498293,567.58205 53.759783,568.59241 C 53.147173,569.43054 52.403173,569.67424 52.075523,569.1441 z M 57.964133,546.20896 C 57.179273,544.16366 57.198443,520.98483 57.987433,518.04075 C 58.319063,516.80325 59.212923,515.79075 59.973773,515.79075 C 60.993293,515.79075 61.383633,517.43459 61.457863,522.04075 C 61.513263,525.47825 61.577373,529.41575 61.600323,530.79075 C 61.792433,542.2982 61.263793,547.79075 59.964133,547.79075 C 59.197973,547.79075 58.297973,547.07895 57.964133,546.20896 z M 65.864593,542.81422 C 65.135253,540.51629 66.048073,538.4817 67.426243,539.33346 C 68.630123,540.07749 68.632143,543.50276 67.429143,544.24625 C 66.918733,544.5617 66.214693,543.91728 65.864593,542.81422 z M 65.399803,485.3713 C 65.477443,449.93507 65.742843,441.85672 66.843273,441.43444 C 67.584873,441.14987 68.369623,441.45112 68.587183,442.10389 C 68.804743,442.75666 68.791563,462.52825 68.557893,486.04075 C 68.200313,522.02073 67.909083,528.79075 66.718853,528.79075 C 65.520203,528.79075 65.319173,522.17342 65.399803,485.3713 z M 52.551423,502.52484 C 51.743213,501.551 51.418703,485.62072 51.409793,446.48168 C 51.402943,416.40626 51.144873,390.78472 50.836293,389.54492 C 49.944243,385.96081 51.704823,379.34747 53.650803,378.97271 C 55.218573,378.67079 55.368023,380.6194 55.491143,402.96743 C 55.564843,416.34525 55.577383,429.99075 55.519003,433.29075 C 55.460633,436.59075 55.386513,453.24075 55.354303,470.29075 C 55.322093,487.34075 54.932323,501.87455 54.488163,502.58808 C 53.831413,503.64314 53.469723,503.63133 52.551423,502.52484 z M 58.132503,491.54075 C 57.891273,490.85325 57.632803,485.69574 57.558133,480.07961 C 57.426403,470.17137 58.416193,466.69591 60.453633,469.91263 C 61.440573,471.47083 61.681603,488.78164 60.750153,491.20896 C 60.022403,493.10544 58.738643,493.26816 58.132503,491.54075 z M 59.044643,452.14492 C 57.827263,450.92754 58.234033,404.98487 59.468943,404.22165 C 61.872383,402.73625 62.337963,407.15405 62.102163,429.20799 C 61.870513,450.87524 61.388783,454.48905 59.044643,452.14492 z M 65.977423,423.98537 C 65.703663,423.54242 65.488703,408.80492 65.499743,391.23537 C 65.510773,373.66583 65.511353,357.71575 65.501033,355.79075 C 65.471803,350.33883 66.255863,347.79075 67.962693,347.79075 C 69.365363,347.79075 69.473293,351.28602 68.989383,381.04075 C 68.691963,399.32825 68.428043,416.65325 68.402883,419.54075 C 68.361733,424.26372 67.324343,426.16473 65.977423,423.98537 z M 608.71344,1230.0006 C 615.99196,1228.8444 617.28934,1228.2762 615.79047,1226.9012 C 614.27143,1225.5077 547.35714,1224.5219 547.35714,1225.8931 C 547.35714,1226.6831 546.87408,1226.6347 545.79156,1225.7363 C 544.49597,1224.6611 543.75105,1224.7176 541.47202,1226.0638 C 539.06707,1227.4845 538.37691,1227.5136 536.02628,1226.2941 C 533.2256,1224.8411 525.25654,1224.6082 524.31899,1225.9519 C 524.02301,1226.3761 519.54133,1227.2035 514.35971,1227.7905 C 509.17808,1228.3774 503.79525,1229.1801 502.39786,1229.5742 C 495.90778,1231.4045 597.31486,1231.8112 608.71344,1230.0006 z M 393.35714,1229.8745 C 391.92613,1229.0584 378.35714,1227.8382 378.35714,1228.5256 C 378.35714,1228.7069 379.36964,1229.2622 380.60714,1229.7596 C 383.53689,1230.9372 395.40814,1231.0442 393.35714,1229.8745 z M 619.85714,1222.9289 L 623.85714,1222.1823 L 620.35714,1221.6138 C 616.89394,1221.0513 579.25486,1221.1851 547.35714,1221.8733 L 530.85714,1222.2293 L 551.85714,1222.7908 C 585.09651,1223.6794 615.50527,1223.7412 619.85714,1222.9289 z M 618.77381,1216.7934 C 622.57797,1216.7919 625.44968,1216.55 625.15537,1216.2557 C 624.14514,1215.2454 565.78355,1214.5187 556.82033,1215.4047 L 547.85714,1216.2908 L 559.85714,1216.9148 C 566.45714,1217.258 580.85714,1217.3717 591.85714,1217.1674 C 602.85714,1216.9632 614.96964,1216.7948 618.77381,1216.7934 z M 642.60714,1216.1285 C 641.91964,1215.8511 640.79464,1215.8511 640.10714,1216.1285 C 639.41964,1216.4059 639.98214,1216.6329 641.35714,1216.6329 C 642.73214,1216.6329 643.29464,1216.4059 642.60714,1216.1285 z M 652.35714,1210.8277 C 652.35714,1209.3935 637.15806,1208.797 610.85714,1209.199 C 597.10714,1209.4092 580.79464,1209.6283 574.60714,1209.686 C 567.92839,1209.7482 563.35714,1210.1926 563.35714,1210.7797 C 563.35714,1211.4174 579.161,1211.7538 607.85714,1211.7268 C 632.33214,1211.7038 652.35714,1211.2992 652.35714,1210.8277 z M 665.72105,1204.7798 C 666.97161,1204.275 650.58327,1203.8913 626.18893,1203.8541 C 587.79835,1203.7957 573.50381,1204.4737 585.35714,1205.7908 C 592.7001,1206.6066 663.39861,1205.7173 665.72105,1204.7798 z M 674.30714,1199.8138 C 677.06369,1199.7954 677.50636,1199.54 676.50948,1198.5431 C 674.5796,1196.6132 612.04754,1196.1112 598.85714,1197.9197 L 588.85714,1199.2908 L 608.35714,1199.7908 C 619.08214,1200.0658 637.53214,1200.1886 649.35714,1200.0638 C 661.18214,1199.9389 672.40964,1199.8264 674.30714,1199.8138 z M 677.85714,1192.7181 L 684.85714,1192.5716 L 680.35714,1191.5934 C 674.7364,1190.3717 612.29532,1190.1258 606.85714,1191.304 L 602.85714,1192.1706 L 606.85714,1192.7307 C 610.2494,1193.2057 654.9316,1193.1977 677.85714,1192.7181 z M 684.83168,1186.8319 C 685.51038,1185.7338 652.58386,1185.0111 636.85714,1185.779 C 628.50267,1186.1869 630.23047,1186.3567 647.35714,1186.8104 C 658.63214,1187.1091 671.54308,1187.4519 676.04812,1187.5721 C 680.55316,1187.6924 684.50577,1187.3593 684.83168,1186.8319 z M 698.63258,1181.9322 C 705.03342,1181.2213 706.42866,1179.3082 700.58142,1179.2601 C 698.53306,1179.2432 682.81372,1178.8526 665.64955,1178.392 C 636.80895,1177.618 633.88885,1177.6962 627.14955,1179.4226 L 619.85714,1181.2908 L 644.35714,1181.8176 C 681.34165,1182.6129 692.29559,1182.6361 698.63258,1181.9322 z M 713.85714,1173.8278 C 715.44713,1173.174 715.54963,1172.8967 714.35714,1172.4749 C 713.53214,1172.1832 695.93392,1171.652 675.24999,1171.2945 C 642.82368,1170.7341 637.14098,1170.8542 633.99999,1172.1666 C 631.99642,1173.0038 630.35714,1173.9367 630.35714,1174.2397 C 630.35714,1175.1309 711.66358,1174.7298 713.85714,1173.8278 z M 723.50798,1166.0408 C 724.50729,1165.0408 718.76663,1164.7532 694.80714,1164.603 C 661.30561,1164.393 656.23434,1164.4967 648.35714,1165.5531 C 643.47085,1166.2084 644.25195,1166.357 655.35714,1166.884 C 678.26677,1167.9712 722.12103,1167.4286 723.50798,1166.0408 z M 731.94095,1159.5408 C 732.35319,1159.1283 732.3533,1158.4533 731.94119,1158.0408 C 730.96696,1157.0656 653.42328,1157.0588 651.04376,1158.0337 C 645.63996,1160.2476 652.81688,1160.6923 690.80668,1160.4977 C 713.01829,1160.3839 731.52871,1159.9533 731.94095,1159.5408 z M 732.70626,1153.144 C 736.91425,1152.7883 740.35714,1152.1644 740.35714,1151.7576 C 740.35714,1151.3507 738.35562,1150.7177 735.90931,1150.3508 C 730.05809,1149.4734 666.39351,1149.5021 662.71129,1150.3838 C 657.6905,1151.5861 657.73074,1152.2758 662.85714,1152.8837 C 669.92237,1153.7214 723.51221,1153.9212 732.70626,1153.144 z M 746.6114,1145.1336 C 749.51846,1143.3369 741.53718,1142.8199 710.68343,1142.8061 C 677.87616,1142.7914 665.55273,1143.6802 666.96139,1145.9594 C 667.53632,1146.8897 745.07071,1146.0858 746.6114,1145.1336 z M 747.20889,1138.1599 C 753.50964,1137.7332 755.27802,1137.3114 754.40976,1136.4425 C 752.86609,1134.8977 693.50958,1134.3653 683.96005,1135.8106 C 675.80391,1137.0451 673.92334,1137.9318 677.36722,1138.9193 C 680.02839,1139.6823 733.28019,1139.1033 747.20889,1138.1599 z M 738.52383,1131.5306 C 750.99051,1131.3987 761.55248,1130.9288 761.99487,1130.4864 C 764.43633,1128.0449 758.30349,1127.6773 724.35714,1128.231 C 689.09566,1128.8061 682.35714,1129.2303 682.35714,1130.8752 C 682.35714,1131.6965 705.07895,1132.5716 712.35714,1132.0306 C 714.28214,1131.8876 726.05715,1131.6626 738.52383,1131.5306 z M 160.9465,1125.2908 C 161.2916,1123.9158 162.20017,1122.7908 162.96555,1122.7908 C 164.93972,1122.7908 164.68879,1120.417 162.42227,1117.6515 C 160.74785,1115.6085 160.21124,1115.459 158.43584,1116.5408 C 155.42093,1118.3777 153.6193,1118.0925 149.79042,1115.1721 C 147.90212,1113.7318 146.35714,1113.0483 146.35714,1113.6533 C 146.35714,1114.968 158.25031,1127.7908 159.4697,1127.7908 C 159.93683,1127.7908 160.60139,1126.6658 160.9465,1125.2908 z M 767.96707,1123.5142 C 768.21315,1123.2681 766.45028,1122.5168 764.04957,1121.8446 C 760.86012,1120.9516 750.82097,1120.7391 726.77089,1121.0553 C 694.85851,1121.4749 689.35714,1121.9123 689.35714,1124.0304 C 689.35714,1125.0189 766.97209,1124.5091 767.96707,1123.5142 z M 774.92804,1116.5532 C 776.55085,1114.9304 765.33242,1114.2945 735.85714,1114.3387 C 718.25714,1114.3651 702.05714,1114.8 699.85714,1115.3051 L 695.85714,1116.2235 L 701.85714,1116.7572 C 710.25375,1117.5039 774.1557,1117.3255 774.92804,1116.5532 z M 777.96714,1109.5141 C 779.02617,1108.4551 761.01538,1107.6797 735.10528,1107.6688 C 707.73349,1107.6573 703.35714,1107.967 703.35714,1109.9155 C 703.35714,1110.8944 776.98298,1110.4982 777.96714,1109.5141 z M 142.35714,1106.8741 C 142.35714,1105.8199 142.91964,1104.7567 143.60714,1104.5113 C 145.62956,1103.7894 140.34057,1098.6612 138.25603,1099.3228 C 137.1727,1099.6667 135.16296,1098.6812 132.90548,1096.6991 C 130.91695,1094.9531 129.10983,1093.7047 128.88965,1093.9249 C 128.30209,1094.5125 140.3532,1108.7908 141.43667,1108.7908 C 141.94293,1108.7908 142.35714,1107.9283 142.35714,1106.8741 z M 783.27381,1103.1595 C 784.32741,1102.2271 781.92293,1101.9179 768.85714,1101.3059 C 754.30072,1100.6241 716.25108,1100.581 714.09337,1101.2439 C 713.41344,1101.4528 711.50714,1101.9988 709.85714,1102.4572 C 707.97456,1102.9803 717.47267,1103.4933 735.35714,1103.8346 C 761.69897,1104.3372 782.27052,1104.0474 783.27381,1103.1595 z M 788.94091,1096.5408 C 790.66417,1094.8165 787.57775,1094.3453 776.27256,1094.6065 C 769.69603,1094.7585 763.76216,1094.5337 763.08619,1094.1068 C 762.41021,1093.68 752.40714,1093.4529 740.85714,1093.6023 C 716.82798,1093.9129 711.45812,1094.5271 712.86515,1096.8037 C 713.51964,1097.8627 787.87658,1097.6057 788.94091,1096.5408 z M 794.20243,1089.3864 C 796.16016,1088.1764 794.63716,1087.0593 790.11944,1086.3915 C 781.79994,1085.1616 724.94513,1085.4416 721.03622,1086.7317 C 716.01366,1088.3892 716.41899,1089.621 722.10714,1089.986 C 731.75534,1090.6051 793.05545,1090.0952 794.20243,1089.3864 z M 800.08763,1081.0981 C 800.75431,1079.1 795.33778,1078.7596 759.07542,1078.5203 C 729.34397,1078.3241 724.16077,1078.5047 723.37821,1079.7644 C 722.87468,1080.5748 722.84599,1081.4748 723.31445,1081.7644 C 723.7829,1082.0539 741.15897,1082.2908 761.92794,1082.2908 C 790.27962,1082.2908 799.78885,1081.9936 800.08763,1081.0981 z M 805.35458,1072.0408 C 805.35757,1069.4127 807.18992,1069.6476 782.35714,1069.0925 C 749.34405,1068.3545 733.11063,1068.7583 730.60714,1070.3797 C 729.36964,1071.1811 728.35714,1072.2663 728.35714,1072.7912 C 728.35714,1073.8268 752.02396,1074.4825 785.10458,1074.3636 L 805.35202,1074.2908 L 805.35458,1072.0408 z M 118.33969,1069.2625 C 116.63699,1066.5075 116.41463,1065.4264 117.32503,1064.3294 C 118.22826,1063.2411 118.11201,1062.3463 116.80903,1060.3577 C 114.85366,1057.3734 113.82324,1057.1337 112.93214,1059.4559 C 112.38999,1060.8687 111.78772,1060.6312 108.958,1057.8885 C 106.14684,1055.1638 105.52342,1054.9151 104.98999,1056.3051 C 103.80069,1059.4044 104.25962,1060.9565 106.18467,1060.3455 C 107.59433,1059.8981 109.02339,1061.2491 112.43467,1066.2543 C 115.13589,1070.2177 117.56999,1072.7524 118.6887,1072.767 C 120.39677,1072.7892 120.37324,1072.5529 118.33969,1069.2625 z M 807.1127,1064.3685 C 807.43047,1064.0508 807.50297,1063.6131 807.27381,1063.396 C 806.51357,1062.6759 739.64102,1061.6814 736.97469,1062.3506 C 731.02897,1063.8429 735.21839,1064.76 749.60714,1065.1159 C 769.22333,1065.6011 806.36279,1065.1184 807.1127,1064.3685 z M 804.35714,1057.9051 C 809.77441,1057.0174 755.34834,1055.949 745.50532,1056.7498 C 739.45669,1057.242 739.93934,1057.3403 750.85714,1057.8396 C 769.40145,1058.6878 799.35697,1058.7245 804.35714,1057.9051 z M 812.84118,1051.8166 C 813.85278,1050.1798 805.92341,1049.7204 777.23692,1049.7541 C 748.66238,1049.7876 739.93125,1050.2915 742.32191,1051.769 C 743.88583,1052.7355 812.24472,1052.7817 812.84118,1051.8166 z M 809.9876,1045.4936 C 810.86669,1044.6145 812.51473,1044.666 782.85714,1044.647 C 750.20095,1044.6261 744.92915,1044.7994 748.85714,1045.7646 C 752.6394,1046.694 809.03722,1046.444 809.9876,1045.4936 z M 815.69837,1040.1594 C 820.07391,1039.7203 821.25339,1039.2868 820.39899,1038.432 C 819.09563,1037.1279 749.06632,1036.7507 747.7747,1038.0408 C 746.26001,1039.5536 748.7096,1040.3051 757.18595,1040.9277 C 766.63988,1041.6222 806.31398,1041.1012 815.69837,1040.1594 z M 95.735433,1031.7517 C 94.294343,1027.5586 91.481823,1023.3327 90.671473,1024.1431 C 90.195973,1024.6186 94.150443,1033.8368 95.556943,1035.5315 C 97.314853,1037.6497 97.368923,1036.5047 95.735433,1031.7517 z M 89.957143,1033.1908 C 89.601253,1032.2633 89.085063,1031.7295 88.810063,1032.0045 C 88.535063,1032.2795 88.601253,1033.2633 88.957143,1034.1908 C 89.313033,1035.1182 89.829223,1035.652 90.104223,1035.377 C 90.379223,1035.102 90.313033,1034.1182 89.957143,1033.1908 z M 808.64886,1033.1291 C 820.06392,1032.6557 824.13719,1032.1716 823.3459,1031.3825 C 822.13497,1030.1748 755.76092,1030.3942 753.89634,1031.612 C 751.16479,1033.3961 781.76724,1034.244 808.64886,1033.1291 z M 829.30714,1025.966 C 829.55464,1025.8696 829.19522,1025.2283 828.50844,1024.5408 C 826.8573,1022.8879 756.35714,1022.098 756.35714,1023.7324 C 756.35714,1024.3145 756.24464,1025.1283 756.10714,1025.5408 C 755.71016,1026.7317 781.82843,1027.3426 806.35714,1026.716 C 818.73214,1026.3999 829.05964,1026.0624 829.30714,1025.966 z M 823.10714,1019.1365 C 827.64464,1018.7833 831.35714,1018.1314 831.35714,1017.6879 C 831.35714,1015.9818 823.1045,1015.3053 803.35714,1015.3925 C 761.69178,1015.5764 759.35714,1015.6734 759.35714,1017.2212 C 759.35714,1018.008 760.36964,1018.8467 761.60714,1019.085 C 765.27793,1019.792 814.16049,1019.833 823.10714,1019.1365 z M 82.743963,1005.1091 C 81.046793,1001.4977 79.863993,999.9239 79.625633,1000.96 C 79.169233,1002.9438 84.485963,1013.8245 85.073513,1012.1091 C 85.296123,1011.4592 84.247823,1008.3092 82.743963,1005.1091 z M 802.61253,1011.732 C 819.528,1011.6497 833.58739,1011.2272 833.85562,1010.7932 C 834.93178,1009.052 827.64623,1008.6695 798.41751,1008.9327 C 768.75776,1009.1997 759.183,1009.7649 762.35714,1011.0611 C 765.07154,1012.1696 767.82594,1012.6022 769.85714,1012.2391 C 770.95714,1012.0425 785.69707,1011.8143 802.61253,1011.732 z M 835.69099,1004.2974 C 840.18922,1002.372 833.11912,1001.8211 803.85714,1001.8171 C 770.55017,1001.8124 765.35714,1002.1801 765.35714,1004.5429 C 765.35714,1005.8437 769.71444,1005.9728 799.60714,1005.5578 C 818.44464,1005.2963 834.68237,1004.7291 835.69099,1004.2974 z M 835.27603,997.15989 C 838.45092,996.77023 839.29548,996.35826 838.27603,995.69651 C 836.54483,994.57274 770.2121,994.64432 768.38759,995.77193 C 764.3943,998.23992 769.58764,998.64034 799.62533,998.18042 C 816.80282,997.91741 832.84564,997.45817 835.27603,997.15989 z M 838.81708,989.97957 C 846.127,987.97601 837.36432,987.29547 805.55182,987.39607 C 772.48266,987.50065 769.03677,987.84534 770.90125,990.86212 C 771.50365,991.83682 778.65176,991.96454 803.76412,991.4493 C 821.41528,991.08715 837.18911,990.42577 838.81708,989.97957 z M 832.20014,983.13707 C 840.85165,982.67189 844.35714,982.12603 844.35714,981.24406 C 844.35714,980.56243 843.64534,979.73158 842.77535,979.39774 C 841.90537,979.06389 826.41251,978.79075 808.34678,978.79075 C 779.8194,978.79075 775.29335,978.9974 773.92857,980.36218 C 773.06428,981.22646 772.35714,982.35146 772.35714,982.86218 C 772.35714,983.93625 813.79686,984.12661 832.20014,983.13707 z M 843.29453,973.77066 C 845.74084,972.46163 829.1147,971.76471 802.85108,972.07539 C 778.67499,972.36137 774.622,972.79224 775.94665,974.93558 C 776.67433,976.113 840.99636,975.00042 843.29453,973.77066 z M 844.20606,968.06822 C 846.56026,967.69061 847.15431,967.27714 846.20606,966.67621 C 845.46415,966.20605 829.71778,965.81448 811.21413,965.80606 C 781.60462,965.79259 777.49913,965.97834 776.9707,967.35541 C 776.43286,968.75699 779.73091,968.90367 808.61371,968.76273 C 826.3476,968.6762 842.36415,968.36367 844.20606,968.06822 z M 846.18006,960.92136 C 848.3433,959.54979 839.51843,958.7904 821.46757,958.79481 C 800.13905,958.80001 779.35714,959.86119 779.35714,960.94507 C 779.35714,962.04535 844.44371,962.02225 846.18006,960.92136 z M 848.95822,954.523 C 849.36096,954.12026 849.35136,953.45325 848.93689,953.04075 C 848.1127,952.22048 792.78322,951.82012 785.10714,952.57889 C 781.78151,952.90762 780.35714,953.49413 780.35714,954.5348 C 780.35714,955.8283 784.76066,955.97149 814.29156,955.63822 C 832.95549,955.42758 848.55549,954.92574 848.95822,954.523 z M 848.99995,948.34426 C 851.97852,947.59669 852.02787,946.14454 849.10714,945.19082 C 847.86964,944.78673 832.69777,944.50177 815.39188,944.55758 C 786.35708,944.65121 783.82532,944.79758 782.61523,946.45247 C 781.51654,947.95501 781.54505,948.33062 782.791,948.76832 C 784.81293,949.47862 846.04283,949.08645 848.99995,948.34426 z M 850.32025,940.0001 C 851.91329,939.4108 852.30354,938.87566 851.50167,938.38007 C 850.01353,937.46035 785.99075,937.28113 784.51603,938.19255 C 783.92668,938.55679 783.72507,939.586 784.06801,940.47968 C 784.6323,941.9502 787.69586,942.0464 816.31648,941.49232 C 833.7102,941.15559 849.0119,940.48409 850.32025,940.0001 z M 853.7515,932.79639 C 854.28627,932.26162 854.37927,931.47908 853.95817,931.05742 C 852.85981,929.95758 793.46827,929.44564 789.39585,930.50091 C 785.54051,931.49993 784.35671,933.353 787.0518,934.17019 C 790.18919,935.12148 852.71422,933.83367 853.7515,932.79639 z M 855.20728,925.23311 C 855.39985,925.063 855.26079,924.44387 854.89826,923.85728 C 854.45267,923.13631 843.40414,922.79075 820.79812,922.79075 C 793.5973,922.79075 787.35714,923.03955 787.35714,924.12408 C 787.35714,924.85742 787.68216,925.78243 788.0794,926.17967 C 788.74818,926.84845 854.42706,925.92232 855.20728,925.23311 z M 855.17052,919.22235 C 855.89288,918.99274 856.20382,918.3517 855.86151,917.79781 C 855.15028,916.64703 794.42663,916.54925 790.35714,917.69234 C 787.9314,918.37371 787.91655,918.43053 789.85714,919.60495 C 791.36532,920.51768 799.48036,920.67079 822.85714,920.22757 C 839.90714,919.90431 854.44816,919.45196 855.17052,919.22235 z M 853.35714,911.79075 C 853.35714,910.45841 794.41878,910.45841 792.35714,911.79075 C 791.37095,912.42807 801.56159,912.76537 822.10714,912.77544 C 842.28402,912.78532 853.35714,912.43641 853.35714,911.79075 z M 851.35714,906.65719 C 851.35714,905.11017 794.48238,905.32544 792.89204,906.87849 C 792.28747,907.46888 803.02772,907.76542 821.64204,907.6723 C 837.98534,907.59053 851.35714,907.13374 851.35714,906.65719 z M 854.07501,901.40621 C 854.7464,900.73482 854.30717,900.7086 840.35714,900.58727 C 812.51153,900.34509 791.28468,900.8645 791.84696,901.77428 C 792.50837,902.84446 852.99452,902.4867 854.07501,901.40621 z M 854.35714,895.71702 C 855.85954,894.85018 833.10642,894.40762 806.36405,894.78352 C 793.05675,894.97058 788.55795,895.65781 793.30496,896.77843 C 797.0504,897.66261 852.66071,896.69581 854.35714,895.71702 z M 56.357143,887.29075 C 56.357143,883.62408 55.921243,880.79075 55.357143,880.79075 C 54.793043,880.79075 54.357143,883.62408 54.357143,887.29075 C 54.357143,890.95742 54.793043,893.79075 55.357143,893.79075 C 55.921243,893.79075 56.357143,890.95742 56.357143,887.29075 z M 849.27381,890.15188 C 849.50297,889.95326 836.90297,889.79764 821.27381,889.80606 C 802.6047,889.81612 793.37167,890.15305 794.35714,890.78828 C 795.73311,891.67523 848.21793,891.06701 849.27381,890.15188 z M 50.357143,881.62408 C 50.357143,877.68242 50.077893,874.73667 49.736583,875.07798 C 48.808203,876.00636 48.920603,888.79075 49.857143,888.79075 C 50.132143,888.79075 50.357143,885.56575 50.357143,881.62408 z M 839.51613,885.79075 C 849.41014,885.79075 855.35714,885.41533 855.35714,884.79075 C 855.35714,883.54058 793.71493,883.40282 792.94334,884.65127 C 791.69446,886.672 794.68431,887.00535 808.76613,886.41538 C 816.96608,886.07183 830.80358,885.79075 839.51613,885.79075 z M 834.6467,880.12786 C 866.47788,879.16663 860.74352,877.58658 825.19966,877.5248 C 796.80527,877.47544 790.6915,877.90471 791.90164,879.86275 C 792.57756,880.95642 804.71565,881.0317 834.6467,880.12786 z M 831.74848,873.73739 C 845.40496,873.66846 856.19115,873.23154 855.71779,872.76646 C 854.71612,871.78231 848.50267,871.61778 816.10714,871.71758 C 801.86501,871.76146 792.35714,872.17016 792.35714,872.73849 C 792.35714,873.70029 801.17189,874.69903 804.88783,874.15825 C 806.00471,873.99572 818.09201,873.80633 831.74848,873.73739 z M 848.10714,868.04316 C 852.64464,867.74205 856.35714,867.11208 856.35714,866.64322 C 856.35714,865.48175 792.62818,865.54318 791.90993,866.70534 C 791.59904,867.20836 791.90998,867.86108 792.60091,868.15581 C 794.2206,868.84674 837.31563,868.75927 848.10714,868.04316 z M 853.35714,861.95262 C 863.33576,860.42283 853.9914,859.66089 824.4656,859.59679 C 794.87374,859.53255 789.38737,859.92794 792.50038,861.90044 C 794.09874,862.91321 846.7966,862.9584 853.35714,861.95262 z M 855.35714,855.06825 C 857.66712,854.51849 857.59112,854.42833 854.35714,853.88201 C 847.67177,852.75264 791.35714,853.50278 791.35714,854.7212 C 791.35714,855.23295 792.36964,855.84449 793.60714,856.08018 C 796.82092,856.69228 852.3574,855.78217 855.35714,855.06825 z M 854.35714,849.13798 L 857.85714,848.42769 L 852.85714,847.69683 C 841.67922,846.06292 791.35714,847.02545 791.35714,848.87317 C 791.35714,849.30133 792.36964,849.82358 793.60714,850.03371 C 797.40538,850.67868 850.63245,849.89387 854.35714,849.13798 z M 852.35714,842.84179 C 855.09118,842.35531 844.88785,842.01955 826.35714,841.9862 C 809.58214,841.95602 794.95714,842.31806 793.85714,842.79075 C 791.30433,843.88773 846.20974,843.93564 852.35714,842.84179 z M 857.0034,837.47782 C 859.06301,835.41821 852.96405,834.82022 829.75383,834.80606 C 800.59457,834.78828 792.35714,835.39162 792.35714,837.54516 C 792.35714,838.81487 796.69752,838.96428 824.28236,838.64415 C 841.84123,838.44037 856.5657,837.91552 857.0034,837.47782 z M 827.10714,831.86418 C 842.30116,831.81619 850.35714,831.43488 850.35714,830.76369 C 850.35714,830.09881 844.27426,829.75338 833.10714,829.78411 C 811.97851,829.84226 793.79848,830.82744 795.41522,831.82665 C 796.07573,832.23486 798.24536,832.42682 800.23664,832.25323 C 802.22791,832.07964 814.31964,831.90456 827.10714,831.86418 z M 828.93893,826.79075 C 846.55107,826.79075 856.35714,826.4331 856.35714,825.79075 C 856.35714,825.146 845.55107,824.79075 825.93893,824.79075 C 796.78799,824.79075 787.28973,825.44317 795.35714,826.89135 C 797.28214,827.23691 799.45644,827.35564 800.18893,827.15519 C 800.92141,826.95475 813.85891,826.79075 828.93893,826.79075 z M 852.60408,821.05034 C 855.21489,820.79707 857.10083,820.18505 856.79506,819.6903 C 855.66,817.85374 792.35714,819.11427 792.35714,820.97343 C 792.35714,821.8481 843.70476,821.91365 852.60408,821.05034 z M 856.94079,814.54075 C 857.35312,814.12825 857.39534,813.49562 857.03463,813.1349 C 856.02459,812.12487 812.96269,811.43254 802.04788,812.25085 C 794.39223,812.82482 792.35714,813.29454 792.35714,814.48759 C 792.35714,815.81034 796.31839,815.9539 824.27412,815.64426 C 841.82846,815.44983 856.52846,814.95325 856.94079,814.54075 z M 856.7139,808.05964 C 859.64722,806.2831 851.40471,805.84973 824.39397,806.36034 C 807.63922,806.67707 793.56938,807.15958 793.12766,807.43258 C 792.68593,807.70558 792.61228,808.39456 792.96399,808.96364 C 793.61369,810.01487 854.92099,809.14551 856.7139,808.05964 z M 856.2636,801.78329 C 857.35565,801.14478 855.49686,800.82545 850.35714,800.76858 C 807.59129,800.29536 790.62715,800.6792 792.46449,802.07849 C 794.40919,803.55954 853.69482,803.28522 856.2636,801.78329 z M 853.35714,796.13449 C 857.70389,795.47556 857.75497,795.42806 854.85714,794.73985 C 850.99323,793.82221 811.37358,793.60684 800.60714,794.44496 C 792.72976,795.05818 789.80577,796.2893 794.60714,796.9712 C 798.66033,797.54684 848.74576,796.83353 853.35714,796.13449 z M 846.35714,790.07669 C 863.5367,789.02356 854.07946,787.95651 826.75383,787.86487 C 803.73628,787.78768 792.35714,788.47193 792.35714,789.93321 C 792.35714,790.96531 830.21998,791.06592 846.35714,790.07669 z M 847.23422,784.3345 C 846.15384,783.25411 794.03434,783.45874 794.70166,784.54075 C 794.95607,784.95325 806.96782,785.16344 821.39444,785.00784 C 835.82106,784.85224 847.44896,784.54924 847.23422,784.3345 z M 833.85714,780.08495 C 856.48233,779.25121 854.04155,778.07383 829.35714,777.91424 C 809.22153,777.78406 792.35714,778.70811 792.35714,779.94157 C 792.35714,780.97171 808.29858,781.02678 833.85714,780.08495 z M 838.10615,774.13623 C 852.64339,773.60966 856.07485,773.21868 855.65947,772.13623 C 855.24682,771.06087 850.34633,770.79075 831.25015,770.79075 C 815.98814,770.79075 807.35714,771.15199 807.35714,771.79075 C 807.35714,772.34075 804.76964,772.82238 801.60714,772.86104 C 798.44464,772.89969 794.95714,773.31806 793.85714,773.79075 C 791.36082,774.86345 813.30039,775.03475 838.10615,774.13623 z M 52.607143,771.17476 C 54.702383,770.43571 55.011593,765.79075 52.965553,765.79075 C 52.200173,765.79075 51.291603,764.66575 50.946503,763.29075 C 49.781393,758.6486 48.345533,760.71228 48.483833,766.83021 C 48.575813,770.89928 48.985233,772.69389 49.738753,772.33086 C 50.353863,772.03451 51.644643,771.51426 52.607143,771.17476 z M 855.29485,767.7658 C 857.12975,766.69204 856.05753,766.6623 820.07329,766.78883 C 795.53138,766.87513 786.90788,767.52265 793.77778,768.7633 C 798.63266,769.64006 853.61554,768.74851 855.29485,767.7658 z M 855.80714,761.69943 C 856.85977,760.69258 849.88315,760.53484 815.38382,760.78548 C 803.02349,760.87528 792.51295,761.19445 792.02706,761.49475 C 791.54116,761.79505 791.75416,762.46005 792.50038,762.97254 C 794.23294,764.16241 854.49923,762.95045 855.80714,761.69943 z M 854.35714,755.79075 C 854.35714,755.14563 843.37681,754.79075 823.41616,754.79075 C 803.86752,754.79075 792.24762,755.15895 791.85714,755.79075 C 791.4501,756.44935 802.01342,756.79075 822.79812,756.79075 C 843.1708,756.79075 854.35714,756.43629 854.35714,755.79075 z M 851.85714,749.80791 C 849.38926,748.76859 817.61477,748.71834 803.35714,749.73121 C 795.52082,750.2879 800.5945,750.49908 823.35714,750.56365 C 840.71058,750.61288 852.99507,750.28713 851.85714,749.80791 z M 854.85714,744.87483 L 857.85714,744.19554 L 854.85714,743.53246 C 849.94521,742.44681 794.22068,743.52721 793.01644,744.73145 C 791.82154,745.92635 849.62142,746.06036 854.85714,744.87483 z M 834.07325,739.69078 C 855.11396,739.45266 861.47796,738.65445 853.80789,737.21553 C 849.38966,736.38667 792.43379,737.38077 791.51171,738.30285 C 790.11277,739.70178 793.78629,740.27938 803.01051,740.11082 C 808.42616,740.01186 822.40439,739.82284 834.07325,739.69078 z M 857.10829,732.37293 C 859.0983,730.38293 852.32727,729.82002 826.23214,729.80606 C 795.74832,729.78976 791.35714,730.1364 791.35714,732.55915 C 791.35714,733.89628 795.24057,734.01704 823.88725,733.5707 C 841.77881,733.29194 856.72828,732.75294 857.10829,732.37293 z M 858.04132,725.4399 C 858.45816,725.02306 858.13725,724.26336 857.32818,723.75169 C 855.72297,722.73652 797.29277,722.43332 793.60714,723.42104 C 792.36964,723.75267 791.35714,724.7026 791.35714,725.53199 C 791.35714,726.85397 795.42273,726.98803 824.32028,726.61888 C 842.45001,726.38729 857.62448,725.85675 858.04132,725.4399 z M 856.94903,718.5322 C 857.35682,718.1244 857.35293,717.45325 856.94038,717.04075 C 856.10261,716.20308 795.86796,716.5322 793.09262,717.38961 C 792.12213,717.68943 791.61691,718.40206 791.96991,718.97322 C 792.7121,720.1741 855.73487,719.74636 856.94903,718.5322 z M 852.60714,712.16054 C 855.21964,711.85393 857.35714,711.25826 857.35714,710.83681 C 857.35714,709.42281 847.02423,709.00645 822.35714,709.42651 C 792.51217,709.93474 789.26048,710.34189 792.10714,713.21416 C 792.89846,714.01261 844.48053,713.11429 852.60714,712.16054 z M 857.35714,704.71451 C 857.35714,703.46184 792.58808,703.60807 791.8128,704.86249 C 791.15404,705.92839 809.09405,706.38482 836.60714,706.00214 C 849.56758,705.82187 857.35714,705.33849 857.35714,704.71451 z M 855.86125,699.04839 C 858.9981,697.29292 842.27339,696.57263 816.12583,697.3371 C 795.05406,697.95316 791.35714,698.286 791.35714,699.56705 C 791.35714,700.88726 795.22481,701.00833 822.73584,700.54938 C 840.23303,700.25747 854.88726,699.59346 855.86125,699.04839 z M 848.70626,693.14401 C 863.79376,691.86865 855.91616,690.79075 831.50802,690.79075 C 805.20217,690.79075 791.35714,691.531 791.35714,692.93749 C 791.35714,693.93112 837.43193,694.09704 848.70626,693.14401 z M 849.35714,686.89078 C 856.302,686.31766 857.32614,686.03455 854.95484,685.3434 C 850.66658,684.09353 793.43519,685.3127 792.06478,686.68311 C 790.80154,687.94635 834.64084,688.10525 849.35714,686.89078 z M 856.92706,680.55417 C 858.12895,679.35227 843.26784,678.69097 818.55015,678.84644 C 803.869,678.93878 791.5123,679.22012 791.09083,679.47164 C 790.66936,679.72316 790.61329,680.3962 790.96624,680.96728 C 791.61246,682.01289 855.87078,681.61044 856.92706,680.55417 z M 855.66616,674.84194 C 856.66112,674.81379 857.19706,674.34075 856.85714,673.79075 C 856.47047,673.16511 846.39565,672.79075 829.94481,672.79075 C 802.13469,672.79075 790.29406,673.477 792.53998,674.95863 C 793.53107,675.61246 830.87634,675.54342 855.66616,674.84194 z M 840.35714,668.8373 C 853.83248,668.23851 851.70213,668.12518 824.04812,667.96965 C 803.05193,667.85156 792.44919,668.13068 792.85714,668.79075 C 793.54779,669.90825 815.76596,669.93002 840.35714,668.8373 z M 852.35714,662.84968 C 855.2129,662.31962 844.89075,661.97357 824.10714,661.90259 C 804.00879,661.83396 791.35714,662.15778 791.35714,662.74085 C 791.35714,663.2634 793.94464,663.8259 797.10714,663.99085 C 807.51358,664.53362 847.76374,663.70227 852.35714,662.84968 z M 850.89089,656.73614 C 851.58309,655.61613 813.37033,655.62722 799.85714,656.75094 C 793.46642,657.28238 799.47494,657.52577 820.58187,657.59045 C 838.28073,657.64468 850.54299,657.29905 850.89089,656.73614 z M 808.64365,652.05477 C 805.77623,651.85347 800.82623,651.85162 797.64365,652.05067 C 794.46107,652.24972 796.80714,652.41443 802.85714,652.41668 C 808.90714,652.41894 811.51107,652.25608 808.64365,652.05477 z M 848.35714,651.79075 C 848.35714,651.17667 844.40142,650.86462 838.10714,650.98217 L 827.85714,651.17358 L 837.35714,651.79075 C 842.58214,652.13019 847.19464,652.49406 847.60714,652.59933 C 848.01964,652.70461 848.35714,652.34075 848.35714,651.79075 z M 853.51984,646.66904 C 855.15645,645.63165 811.46734,645.72282 802.35714,646.77581 C 798.28726,647.24621 806.38618,647.52515 824.01984,647.5219 C 839.50932,647.51904 852.78432,647.13525 853.51984,646.66904 z M 844.85714,641.29001 C 845.40714,641.10226 834.04464,640.91312 819.60714,640.8697 C 804.84695,640.82531 793.35714,641.18092 793.35714,641.68214 C 793.35714,642.49176 842.43132,642.11809 844.85714,641.29001 z M 856.85714,636.72133 C 857.40714,636.6822 856.95714,636.26344 855.85714,635.79075 C 853.60383,634.82247 795.39104,634.45678 792.94467,635.39553 C 787.85219,637.3497 795.22359,637.80401 824.18424,637.32087 C 841.60433,637.03026 856.30714,636.76046 856.85714,636.72133 z M 849.35714,630.87293 C 851.01386,630.79817 851.43245,630.49051 850.59809,629.96082 C 849.90561,629.52121 844.95561,629.27166 839.59809,629.40627 C 834.24057,629.54087 821.08214,629.68934 810.35714,629.73619 C 797.40147,629.79279 791.36055,630.14596 792.35714,630.78855 C 793.54272,631.55299 832.99132,631.61139 849.35714,630.87293 z M 857.19255,624.28868 C 857.46641,624.01482 857.35329,623.45325 856.94119,623.04075 C 856.00462,622.10329 792.77839,622.03867 791.8414,622.97422 C 791.46491,623.35013 791.49631,624.20691 791.91118,624.87818 C 792.49329,625.82007 799.97378,625.94892 824.68005,625.44264 C 842.28806,625.08182 856.91869,624.56254 857.19255,624.28868 z M 805.77381,618.54075 C 806.2094,617.60734 806.49852,617.58826 806.91536,618.4654 C 807.33552,619.34955 808.26915,619.30763 810.69057,618.2959 C 813.04283,617.31306 818.26151,617.02707 830.10527,617.23194 C 840.77111,617.41644 846.09086,617.16892 845.68189,616.50719 C 844.98497,615.37956 794.32035,616.07742 792.43831,617.24058 C 790.05474,618.71371 792.7554,619.79075 798.83282,619.79075 C 802.94117,619.79075 805.39685,619.34851 805.77381,618.54075 z M 846.35714,611.80196 C 846.35714,610.53325 795.30322,610.57962 793.29527,611.85015 C 792.41062,612.40991 802.34464,612.76602 819.10714,612.77544 C 836.41159,612.78516 846.35714,612.42987 846.35714,611.80196 z M 845.35714,606.79075 C 846.34552,606.15201 837.37213,605.81615 819.04812,605.80606 C 800.75961,605.79599 791.45069,606.1331 791.85714,606.79075 C 792.67405,608.11254 843.31182,608.11254 845.35714,606.79075 z M 846.85714,601.97781 C 853.09834,601.82685 855.39734,601.46298 854.35714,600.79075 C 853.50087,600.23739 842.94406,599.8148 829.75802,599.80606 C 806.42434,599.79059 790.42135,600.59449 792.19891,601.69281 C 793.1195,602.26163 827.67428,602.44181 846.85714,601.97781 z M 843.85714,595.79075 C 844.26324,595.13367 835.36752,594.79075 817.91616,594.79075 C 800.87681,594.79075 791.35714,595.14918 791.35714,595.79075 C 791.35714,596.43172 800.6708,596.79075 817.29812,596.79075 C 833.51342,596.79075 843.47082,596.41583 843.85714,595.79075 z M 841.35714,590.84439 C 847.37025,590.31808 841.28206,590.05511 820.54812,589.94558 C 802.56064,589.85056 791.46253,590.15226 791.81751,590.72663 C 792.50374,591.83697 829.02504,591.92378 841.35714,590.84439 z M 839.68462,585.79075 C 844.08784,585.79075 847.45804,585.55831 847.17395,585.27423 C 846.68528,584.78556 825.85815,584.52397 802.04812,584.70745 C 794.15595,584.76827 791.43145,585.10197 791.95189,585.94406 C 792.47351,586.78805 797.89646,586.92215 812.17172,586.44406 C 822.90059,586.08474 835.28139,585.79075 839.68462,585.79075 z M 851.35714,580.08128 L 856.85714,579.3892 L 852.85714,578.64761 C 843.60357,576.932 791.35714,578.03127 791.35714,579.94157 C 791.35714,580.95411 843.45666,581.07543 851.35714,580.08128 z M 829.60714,574.12905 C 841.56964,573.76781 851.35714,573.09391 851.35714,572.6315 C 851.35714,571.68159 795.3888,571.45763 792.93893,572.39774 C 792.06894,572.73158 791.35714,573.40658 791.35714,573.89774 C 791.35714,574.95949 800.31327,575.01365 829.60714,574.12905 z M 838.35714,567.69413 C 846.17209,567.6299 849.92013,567.29131 848.35714,566.79075 C 846.98214,566.3504 833.59464,565.94525 818.60714,565.89043 C 793.86132,565.79991 791.35714,565.94306 791.35714,567.44815 C 791.35714,568.95259 792.94918,569.04516 808.60714,568.45121 C 818.09464,568.09132 831.48214,567.75063 838.35714,567.69413 z M 848.56036,561.64399 C 850.22357,560.58893 835.70199,560.27246 803.10714,560.65342 C 796.0366,560.73606 791.35714,561.18877 791.35714,561.79017 C 791.35714,563.01189 846.62664,562.87065 848.56036,561.64399 z M 849.35714,556.07717 C 852.07412,555.4753 850.50807,555.18875 842.35714,554.7963 C 826.90239,554.05219 790.35714,554.72669 790.35714,555.75604 C 790.35714,556.24447 791.14464,556.82092 792.10714,557.03704 C 795.18983,557.72922 845.72418,556.88195 849.35714,556.07717 z M 831.10714,550.92265 C 845.18587,550.83919 853.35714,550.4235 853.35714,549.79075 C 853.35714,549.14594 842.52381,548.79075 822.85714,548.79075 C 804.79937,548.79075 792.35714,549.16878 792.35714,549.71743 C 792.35714,550.98123 794.61721,551.31156 802.31358,551.17265 C 805.91254,551.1077 818.86964,550.9952 831.10714,550.92265 z M 853.80714,543.67473 C 854.8901,542.66703 795.46511,542.42835 792.85508,543.42991 C 791.681,543.88045 791.53739,544.28411 792.36844,544.79773 C 794.0278,545.82328 852.64967,544.75176 853.80714,543.67473 z M 832.27381,538.16108 C 832.50297,537.9574 832.50297,537.62313 832.27381,537.41827 C 831.46403,536.69437 791.41437,538.07434 791.86932,538.81046 C 792.3168,539.5345 831.43595,538.90577 832.27381,538.16108 z M 842.60714,532.79338 C 849.20751,532.79176 853.35714,532.39916 853.35714,531.7763 C 853.35714,531.10667 842.93318,530.85174 822.69012,531.0263 C 797.32611,531.24502 791.9417,531.53512 791.5524,532.70392 C 791.15238,533.90488 794.14315,534.0179 811.46942,533.45654 C 822.68266,533.09325 836.69464,532.79482 842.60714,532.79338 z M 821.35714,526.81312 C 829.34895,526.70894 833.13583,526.34022 831.85714,525.79075 C 829.48656,524.77208 796.30733,524.4889 793.76204,525.46562 C 792.09179,526.10655 792.09123,526.1713 793.75094,526.7535 C 794.7121,527.09065 798.5042,527.27866 802.17782,527.17128 C 805.85145,527.06391 814.48214,526.90273 821.35714,526.81312 z M 811.60714,508.08502 C 810.36964,507.84666 808.34464,507.84666 807.10714,508.08502 C 805.86964,508.32337 806.88214,508.51839 809.35714,508.51839 C 811.83214,508.51839 812.84464,508.32337 811.60714,508.08502 z M 808.10714,503.05571 C 805.49464,502.84971 801.21964,502.84971 798.60714,503.05571 C 795.99464,503.26171 798.13214,503.43025 803.35714,503.43025 C 808.58214,503.43025 810.71964,503.26171 808.10714,503.05571 z M 805.85714,492.79075 C 806.20177,492.23312 805.45373,491.79752 804.16616,491.80606 C 802.30852,491.81838 802.15037,492.01087 803.35714,492.79075 C 805.21788,493.99325 805.11395,493.99325 805.85714,492.79075 z M 810.63731,487.06002 C 808.31641,486.8503 804.26641,486.8478 801.63731,487.05448 C 799.00822,487.26115 800.90714,487.43275 805.85714,487.43579 C 810.80714,487.43884 812.95822,487.26974 810.63731,487.06002 z M 810.85714,481.84704 C 804.80714,481.51544 798.28214,481.54036 796.35714,481.90244 C 794.43214,482.26451 799.38214,482.53583 807.35714,482.50536 L 821.85714,482.44997 L 810.85714,481.84704 z" id="path4217" style="fill:#000000"/>
  </g>
</svg>
