<?xml version="1.0" encoding="utf-8"?>
<!DOCTYPE svg PUBLIC "-//W3C//DTD SVG 1.1//EN" "http://www.w3.org/Graphics/SVG/1.1/DTD/svg11.dtd">
<svg version="1.1" xmlns="http://www.w3.org/2000/svg" x="0" y="0" width="138" height="138" viewBox="0 0 138 138">
<style type="text/css">
	.st0{fill:#010ABD;}
	.st1{fill:none;stroke:#010ABD;stroke-linecap:round;stroke-linejoin:round;}
	.st2{fill:none;stroke:#010ABD;stroke-width:5;stroke-linecap:round;}
	.st3{fill:none;stroke:#010ABD;stroke-width:5;stroke-linecap:round;stroke-linejoin:round;}
</style>
<g>
	<g>
		<path class="st0" d="M131.1,59.4c-0.4-4-0.6-8.2-1.3-11.8c-0.4-2-1.9-2.5-3.5-2.3c1.3-1,2-2.4,0.9-4.1c-2-3.1-4.9-6.3-7.4-9.3
			c-2.5-3.1-3.3-7.6-3.2-10.2c-2.7,0.1-7.3-0.8-10.3-3.3c-3.1-2.5-6.2-5.4-9.3-7.4c-1.7-1.1-3.1-0.4-4.1,0.9
			c0.2-1.6-0.3-3.1-2.3-3.5c-3.6-0.8-7.9-1-11.8-1.3c-4-0.4-7.7-3-9.5-5c-1.8,2-5.7,4.6-9.6,5c-4,0.4-8.2,0.6-11.8,1.3
			c-2,0.4-2.5,1.9-2.3,3.5c-1-1.3-2.4-2-4.1-0.9c-3.1,2-6.3,4.9-9.3,7.4c-3.1,2.5-7.6,3.3-10.2,3.2c0.1,2.7-0.8,7.3-3.3,10.3
			c-2.5,3.1-5.4,6.2-7.4,9.3c-1.1,1.7-0.4,3.1,0.9,4.1c-1.6-0.2-3.1,0.3-3.5,2.3c-0.8,3.6-1,7.9-1.3,11.8s-3,7.7-5,9.5
			c2,1.8,4.6,5.7,5,9.6c0.4,4,0.6,8.2,1.3,11.8c0.4,2,1.9,2.5,3.5,2.3c-1.3,1-2,2.4-0.9,4.1c2,3.1,4.9,6.3,7.4,9.3
			c2.5,3.1,3.3,7.6,3.2,10.2c2.7-0.1,7.3,0.8,10.3,3.3c3.1,2.5,6.2,5.4,9.3,7.4c1.7,1.1,3.1,0.4,4.1-0.9c-0.2,1.6,0.3,3.1,2.3,3.5
			c3.6,0.8,7.9,1,11.8,1.3c4,0.4,7.7,3,9.5,5c1.8-2,5.7-4.6,9.6-5s8.2-0.6,11.8-1.3c2-0.4,2.5-1.9,2.3-3.5c1,1.3,2.4,2,4.1,0.9
			c3.1-2,6.3-4.9,9.3-7.4c3.1-2.5,7.6-3.3,10.2-3.2c-0.1-2.7,0.8-7.3,3.3-10.3c2.5-3.1,5.4-6.2,7.4-9.3c1.1-1.7,0.4-3.1-0.9-4.1
			c1.6,0.2,3.1-0.3,3.5-2.3c0.8-3.6,1-7.9,1.3-11.8c0.4-4,3-7.7,5-9.5C134.1,67.3,131.4,63.4,131.1,59.4z M125.7,77.4
			c-0.3,3.8,0.3,5.5-0.4,7.8c-0.6,2.3-2.6,3.9-4.8,5.1c0.7,2.4,1,4.9-0.2,7c-1.2,2.1-2.7,2.9-5.3,5.8c-2.5,2.9-3.9,6.3-3.8,8.1
			c-1.8-0.1-5.2,1.2-8.1,3.8c-2.9,2.5-3.7,4.1-5.8,5.3c-2.1,1.2-4.6,0.9-7,0.2c-1.2,2.2-2.8,4.2-5.1,4.8c-2.3,0.6-4,0.1-7.8,0.4
			c-3.8,0.3-7.2,1.7-8.4,3c-1.2-1.3-4.6-2.8-8.4-3c-3.8-0.3-5.5,0.3-7.8-0.4s-3.9-2.6-5.1-4.8c-2.4,0.7-4.9,1-7-0.2
			c-2.1-1.2-2.9-2.7-5.8-5.3c-2.9-2.5-6.3-3.9-8.1-3.8c0.1-1.8-1.2-5.2-3.8-8.1c-2.5-2.9-4.1-3.7-5.3-5.8c-1.2-2.1-0.9-4.6-0.2-7
			c-2.2-1.2-4.2-2.8-4.8-5.1c-0.6-2.3-0.1-4-0.4-7.8c-0.3-3.8-1.7-7.2-3-8.4c1.3-1.2,2.8-4.6,3-8.4c0.3-3.8-0.3-5.5,0.4-7.8
			c0.6-2.3,2.6-3.9,4.8-5.1c-0.7-2.4-1-4.9,0.2-7c1.2-2.1,2.7-2.9,5.3-5.8c2.5-2.9,3.9-6.3,3.8-8.1c1.8,0.1,5.2-1.2,8.1-3.8
			c2.9-2.5,3.7-4.1,5.8-5.3c2.1-1.2,4.6-0.9,7-0.2c1.2-2.2,2.8-4.2,5.1-4.8c2.3-0.6,4-0.1,7.8-0.4c3.8-0.3,7.2-1.7,8.4-3
			c1.2,1.3,4.6,2.8,8.4,3c3.8,0.3,5.5-0.3,7.8,0.4c2.3,0.6,3.9,2.6,5.1,4.8c2.4-0.7,4.9-1,7,0.2s2.9,2.7,5.8,5.3
			c2.9,2.5,6.3,3.9,8.1,3.8c-0.1,1.8,1.2,5.2,3.8,8.1s4.1,3.7,5.3,5.8c1.2,2.1,0.9,4.6,0.2,7c2.2,1.2,4.2,2.8,4.8,5.1
			c0.6,2.3,0.1,4,0.4,7.8c0.3,3.8,1.7,7.2,3,8.4C127.4,70.2,126,73.6,125.7,77.4z"/>
		<path class="st1" d="M113.3,87.3c6.7,2.8-11.5,14.5-6.9,19c-4.6-4.6-16.3,13.6-19,6.9c2.8,6.7-18.3,2.1-18.3,8.6
			c0-6.4-21.1-1.9-18.3-8.6c-2.8,6.7-14.5-11.5-19-6.9c4.6-4.6-13.6-16.3-6.9-19C18,90.1,22.6,69,16.1,69c6.4,0,1.9-21.1,8.6-18.3
			c-6.7-2.8,11.5-14.5,6.9-19c4.6,4.6,16.3-13.6,19-6.9C47.9,18,69,22.6,69,16.1c0,6.4,21.1,1.9,18.3,8.6c2.8-6.7,14.5,11.5,19,6.9
			c-4.6,4.6,13.6,16.3,6.9,19c6.7-2.8,2.1,18.3,8.6,18.3C115.4,69,120,90.1,113.3,87.3z"/>
		<g>
			<path class="st2" d="M52.8,61.7v26.9c0,3.6-3,6.6-6.6,6.6c-3.6,0-6.6-3-6.6-6.6V47.3"/>
			<path class="st2" d="M52.8,51.1v-12c0-3.6,3-6.6,6.6-6.6s6.6,3,6.6,6.6v66.4"/>
			<line class="st2" x1="46.6" y1="67.7" x2="32.6" y2="67.7"/>
			<line class="st2" x1="79.2" y1="33" x2="79.2" y2="72"/>
			<path class="st3" d="M79.2,64.7h26.3c0-13.3-5.9-24.1-13.1-24.1v37.6h11.6c0,14.1-11.4,25.5-25.5,25.5"/>
		</g>
	</g>
</g>
</svg>
