<?xml version="1.0" encoding="UTF-8"?>
<svg width="864px" height="864px" version="1.1" viewBox="0 0 864 864" xml:space="preserve" xmlns="http://www.w3.org/2000/svg" xmlns:cc="http://creativecommons.org/ns#" xmlns:dc="http://purl.org/dc/elements/1.1/" xmlns:rdf="http://www.w3.org/1999/02/22-rdf-syntax-ns#"><title>National Endowment for the Arts (NEA) Logo Square</title><metadata><rdf:RDF><cc:Work rdf:about=""><dc:format>image/svg+xml</dc:format><dc:type rdf:resource="http://purl.org/dc/dcmitype/StillImage"/><dc:title>National Endowment for the Arts (NEA) Logo Square</dc:title><dc:date>2018</dc:date></cc:Work></rdf:RDF></metadata>
<polygon points="41.353 744.67 493.36 744.67 493.36 757.96 41.353 757.96" fill="#fff"/><polygon points="41.353 731.34 493.36 731.34 493.36 744.63 41.353 744.63" fill="#db2532"/><polygon points="41.353 758 493.36 758 493.36 771.3 41.353 771.3" fill="#007db6"/><g><polygon points="55.864 102.2 55.864 171.54 39.463 171.54 39.463 66.585 52.914 66.585 83.433 117.65 94.093 136.87 94.093 66.585 110.5 66.585 110.5 171.54 98.358 171.54 67.025 121.43"/><path d="m160.87 89.279-10.333 41.287h21zm21.327 82.261-7.0562-27.105h-28.048l-6.729 27.105h-17.062l28.877-104.96h18.369l29.204 104.96z"/><polygon points="231.26 171.54 231.26 81.714 204.69 81.714 204.69 66.585 275.23 66.585 275.23 81.714 248.66 81.714 248.66 171.54"/><polygon points="306.57 66.585 306.57 171.54 289.18 171.54 289.18 66.585"/><path d="m379.91 96.842c0-10.715-5.5801-18.28-17.882-18.28-12.143 0-17.716 7.5654-17.716 18.28v44.441c0 10.717 5.5732 18.28 17.716 18.28 12.302 0 17.882-7.563 17.882-18.28zm-17.882 77.375c-24.445 0-35.272-14.655-35.272-34.038v-42.234c0-19.227 10.827-33.881 35.272-33.881 24.611 0 35.271 14.655 35.271 33.881v42.234c-1e-5 19.383-10.66 34.038-35.271 34.038z"/><polygon points="434.06 102.2 434.06 171.54 417.66 171.54 417.66 66.585 431.11 66.585 461.63 117.65 472.29 136.87 472.29 66.585 488.7 66.585 488.7 171.54 476.56 171.54 445.22 121.43"/><path d="m539.07 89.279-10.333 41.287h21zm21.326 82.261-7.0557-27.105h-28.048l-6.7285 27.105h-17.062l28.877-104.96h18.369l29.204 104.96z"/><polygon points="608.31 66.585 608.31 156.57 649 156.57 649 171.54 590.92 171.54 590.92 66.585"/><polygon points="67.078 121.39 67.025 121.43 67.079 121.4 55.801 101.97 55.801 171.48 39.526 171.48 39.526 66.647 52.878 66.647 83.379 117.68 83.433 117.65 83.378 117.67 94.155 137.11 94.155 66.647 110.44 66.647 110.44 171.48 98.358 171.48 98.358 171.54 98.411 171.51 98.358 171.54 98.358 171.6 110.56 171.6 110.56 66.522 94.03 66.522 94.03 136.63 83.488 117.61 52.949 66.522 39.401 66.522 39.401 171.6 55.926 171.6 55.926 102.43 66.973 121.46 98.323 171.6 98.358 171.6 98.358 171.54 98.411 171.51"/><path d="m160.87 89.279-0.061-0.01514-10.353 41.364h21.162l-10.75-41.602-0.0591 0.23779 0.061 0.01514-0.061 0.01563 10.647 41.208h-20.839l10.313-41.209-0.06-0.01515-0.061 0.01563 0.061-0.01563zm21.327 82.261 0.0596-0.0161-7.0679-27.152h-28.146l-6.728 27.106h-16.931l28.843-104.83h18.273l29.17 104.83h-17.473v0.062l0.0596-0.0161-0.0596 0.0161v0.063h17.637l-29.238-105.08h-18.465l-28.911 105.08h17.192l6.73-27.106h27.95l7.0557 27.106h0.0493v-0.063z"/><polygon points="248.6 171.48 231.32 171.48 231.33 81.651 204.75 81.651 204.75 66.647 275.17 66.647 275.17 81.651 248.6 81.651 248.6 81.714 248.66 81.714 248.66 81.776 275.29 81.776 275.29 66.522 204.63 66.522 204.63 81.776 231.2 81.776 231.2 171.6 248.72 171.6 248.72 81.714 248.66 81.714 248.66 81.776 248.66 81.714 248.6 81.714"/><polygon points="289.25 66.647 306.51 66.647 306.51 171.48 289.18 171.48 289.18 171.54 289.25 171.54 289.18 171.54 289.18 171.6 306.63 171.6 306.63 66.522 289.12 66.522 289.12 171.6 289.18 171.6 289.18 171.54 289.25 171.54"/><path d="m379.91 96.842h0.063c0-5.3677-1.398-9.9546-4.3452-13.2-2.9458-3.2461-7.437-5.1431-13.6-5.1426-6.084-4.9e-4 -10.534 1.897-13.458 5.1426-2.9253 3.2456-4.3213 7.8325-4.3213 13.2v44.441c0 5.3677 1.396 9.9551 4.3213 13.2 2.9238 3.2461 7.3735 5.1431 13.458 5.1421 6.1631 9.8e-4 10.654-1.896 13.6-5.1421 2.9473-3.2446 4.3452-7.832 4.3452-13.2v-44.441h-0.125v44.441c-8e-3 10.696-5.5478 18.211-17.82 18.217-12.113-6e-3 -17.646-7.521-17.654-18.217v-44.441c8e-3 -10.694 5.541-18.211 17.654-18.218 12.272 0.0063 17.812 7.5239 17.82 18.218zm-17.882 77.375v-0.0615c-24.416-7e-3 -35.202-14.616-35.209-33.976v-42.234c7e-3 -19.203 10.792-33.812 35.209-33.819 24.583 0.0063 35.201 14.616 35.208 33.819v42.234c-7e-3 19.36-10.625 33.969-35.208 33.976v0.125c12.317 0 21.155-3.6694 26.91-9.7705 5.7549-6.1016 8.4228-14.629 8.4228-24.331v-42.234c0-9.6245-2.668-18.112-8.4228-24.193-5.7549-6.082-14.593-9.751-26.91-9.7505-12.235-4.9e-4 -21.072 3.6685-26.848 9.75s-8.4873 14.569-8.4858 24.194v42.234c-1e-3 9.7026 2.71 18.23 8.4858 24.331 5.7759 6.1011 14.613 9.7705 26.848 9.7705v-0.0635z"/><polygon points="445.28 121.39 445.22 121.43 445.28 121.4 434 101.97 434 171.48 417.73 171.48 417.73 66.647 431.08 66.647 461.58 117.68 461.63 117.65 461.58 117.67 472.35 137.11 472.35 66.647 488.64 66.647 488.64 171.48 476.56 171.48 476.56 171.54 476.61 171.51 476.56 171.54 476.56 171.6 488.76 171.6 488.76 66.522 472.23 66.522 472.23 136.63 461.69 117.61 431.15 66.522 417.6 66.522 417.6 171.6 434.12 171.6 434.12 102.43 445.17 121.46 476.52 171.6 476.56 171.6 476.56 171.54 476.61 171.51"/><path d="m539.07 89.279-0.0605-0.01514-10.353 41.364h21.161l-10.75-41.602-0.0586 0.23779 0.0605 0.01514-0.0605 0.01563 10.646 41.208h-20.84l10.314-41.209-0.0605-0.01515-0.0605 0.01563 0.0605-0.01563zm21.326 82.261 0.0615-0.0161-7.0674-27.152h-28.146l-6.7295 27.106h-16.931l28.842-104.83h18.274l29.17 104.83h-17.475v0.062l0.0615-0.0161-0.0615 0.0161v0.063h17.639l-29.239-105.08h-18.464l-28.911 105.08h17.192l6.7285-27.106h27.951l7.0566 27.106h0.0469v-0.063z"/><polygon points="590.99 66.647 608.25 66.647 608.25 156.63 648.94 156.63 648.94 171.48 590.92 171.48 590.92 171.54 590.99 171.54 590.92 171.54 590.92 171.6 649.06 171.6 649.06 156.51 608.38 156.51 608.38 66.522 590.86 66.522 590.86 171.6 590.92 171.6 590.92 171.54 590.99 171.54"/><polygon points="96.366 193.21 96.366 208.18 56.343 208.18 56.343 235.76 85.182 235.76 85.182 249.94 56.343 249.94 56.343 283.19 96.366 283.19 96.366 298.16 39.639 298.16 39.639 193.21"/><polygon points="128.67 228.82 128.67 298.16 112.92 298.16 112.92 193.21 125.84 193.21 155.15 244.27 165.4 263.5 165.4 193.21 181.15 193.21 181.15 298.16 169.49 298.16 139.39 248.05"/><path d="m252.22 225.83c0-11.031-5.352-17.651-17.176-17.651h-16.233v75.013h16.233c11.824 0 17.176-6.6186 17.176-17.493zm-15.754 72.333h-34.359v-104.96h34.359c22.377 0 32.458 13.868 32.458 30.888v43.178c0 17.02-10.081 30.889-32.458 30.889z"/><path d="m337.96 223.47c0-10.715-5.3599-18.28-17.176-18.28-11.663 0-17.023 7.5649-17.023 18.28v44.441c0 10.717 5.3604 18.28 17.023 18.28 11.816 0 17.176-7.563 17.176-18.28zm-17.176 77.376c-23.486 0-33.88-14.655-33.88-34.038v-42.234c0-19.226 10.394-33.882 33.88-33.882 23.638 0 33.88 14.656 33.88 33.882v42.234c0 19.383-10.242 34.038-33.88 34.038z"/><polygon points="421.01 223.78 404.3 298.16 387.91 298.16 366.17 193.21 383.34 193.21 396.42 271.85 413.6 193.21 429.2 193.21 445.28 271.85 458.51 193.21 475.22 193.21 453.15 298.16 436.76 298.16"/><polygon points="557.48 236.07 540.77 298.16 524.23 298.16 508 236.07 502.79 215.27 502.79 298.16 487.83 298.16 487.83 193.21 510.99 193.21 527.86 259.08 532.9 280.04 537.94 258.92 554.49 193.21 577.65 193.21 577.65 298.16 562.68 298.16 562.68 215.27"/><polygon points="655.5 193.21 655.5 208.18 615.47 208.18 615.47 235.76 644.31 235.76 644.31 249.94 615.47 249.94 615.47 283.19 655.5 283.19 655.5 298.16 598.77 298.16 598.77 193.21"/><polygon points="687.65 228.82 687.65 298.16 671.89 298.16 671.89 193.21 684.82 193.21 714.13 244.27 724.37 263.5 724.37 193.21 740.13 193.21 740.13 298.16 728.47 298.16 698.37 248.05"/><polygon points="779.05 298.16 779.05 208.34 753.53 208.34 753.53 193.21 821.29 193.21 821.29 208.34 795.75 208.34 795.75 298.16"/><polygon points="39.701 193.27 96.303 193.27 96.304 208.12 56.28 208.12 56.28 235.82 85.119 235.82 85.119 249.88 56.28 249.88 56.28 283.25 96.303 283.25 96.304 298.1 39.639 298.1 39.639 298.16 39.701 298.16 39.639 298.16 39.639 298.23 96.429 298.23 96.429 283.13 56.405 283.13 56.405 250 85.244 250 85.244 235.7 56.405 235.7 56.405 208.24 96.429 208.24 96.429 193.15 39.576 193.15 39.576 298.23 39.639 298.23 39.639 298.16 39.701 298.16"/><polygon points="139.45 248.02 139.39 248.05 139.45 248.02 128.61 228.58 128.61 298.1 112.98 298.1 112.98 193.27 125.8 193.27 155.1 244.3 155.15 244.27 155.1 244.3 165.46 263.75 165.46 193.27 181.09 193.27 181.09 298.1 169.49 298.1 169.49 298.16 169.55 298.13 169.49 298.16 169.49 298.23 181.21 298.23 181.21 193.15 165.33 193.15 165.33 263.25 155.21 244.23 125.87 193.15 112.85 193.15 112.85 298.23 128.73 298.23 128.73 229.06 139.34 248.08 139.34 248.08 169.46 298.23 169.49 298.23 169.49 298.16 169.55 298.13"/><path d="m252.22 225.83h0.063c0-5.5249-1.3413-9.9551-4.1709-13.005-2.831-3.0503-7.145-4.709-13.068-4.709h-16.295v75.138h16.295c5.9233 9.8e-4 10.237-1.6577 13.068-4.688 2.8296-3.0298 4.1709-7.4209 4.1709-12.867v-39.869h-0.125v39.869c-9e-3 10.854-5.3169 17.422-17.114 17.43h-16.17v-74.888h16.17c11.797 8e-3 17.105 6.5776 17.114 17.589h0.062zm-15.754 72.333v-0.063h-34.296v-104.83h34.296c22.347 6e-3 32.389 13.831 32.396 30.826v43.178c-7e-3 16.996-10.049 30.821-32.396 30.826v0.125c11.201 9.8e-4 19.335-3.4722 24.666-9.081 5.3301-5.6079 7.8555-13.348 7.8555-21.87v-43.178c0-8.522-2.5254-16.261-7.8555-21.869-5.3306-5.6089-13.465-9.082-24.666-9.082h-34.421v105.08h34.421v-0.062z"/><path d="m337.96 223.47h0.063c0-5.3667-1.3428-9.9526-4.1728-13.199s-7.145-5.144-13.066-5.1431c-5.8442-9.8e-4 -10.122 1.897-12.933 5.1431-2.8101 3.2461-4.1528 7.832-4.1528 13.199v44.441c0 5.3677 1.3428 9.9536 4.1528 13.199 2.811 3.2461 7.0889 5.144 12.933 5.1431 5.9209 9.8e-4 10.236-1.896 13.066-5.1431 2.8301-3.2451 4.1728-7.831 4.1728-13.199v-44.441h-0.125v44.441c-8e-3 10.697-5.3301 18.211-17.114 18.217-11.631-6e-3 -16.953-7.52-16.961-18.217v-44.441c8e-3 -10.695 5.3296-18.212 16.961-18.217 11.784 5e-3 17.106 7.522 17.114 18.217zm-17.176 77.376v-0.063c-23.456-6e-3 -33.81-14.614-33.817-33.975v-42.234c7e-3 -19.204 10.361-33.813 33.817-33.819 23.608 6e-3 33.81 14.614 33.818 33.819v42.234c-8e-3 19.361-10.21 33.969-33.818 33.975v0.125c11.832 1e-3 20.322-3.669 25.851-9.771 5.5283-6.1006 8.0923-14.627 8.0923-24.329v-42.234c0-9.624-2.564-18.111-8.0923-24.193-5.5288-6.082-14.019-9.752-25.851-9.751-11.756-9.8e-4 -20.246 3.669-25.793 9.751-5.5483 6.082-8.1494 14.569-8.1494 24.193v42.234c0 9.7017 2.6011 18.228 8.1494 24.329 5.5469 6.102 14.037 9.7725 25.793 9.771z"/><polygon points="436.81 298.1 421.01 223.49 404.25 298.1 387.96 298.1 366.24 193.27 383.29 193.27 396.41 272.18 413.65 193.27 429.15 193.27 445.28 272.19 458.57 193.27 475.14 193.27 453.09 298.15 453.15 298.16 453.15 298.1 453.15 298.16 453.21 298.18 475.29 193.15 458.46 193.15 445.27 271.51 429.25 193.15 413.55 193.15 396.43 271.52 383.39 193.15 366.09 193.15 387.86 298.23 404.35 298.23 421.01 224.07 436.71 298.23 453.21 298.23 453.21 298.18 453.15 298.16 453.15 298.1"/><polygon points="562.74 214.76 557.42 236.06 540.72 298.1 524.28 298.1 508.06 236.06 502.73 214.77 502.73 298.1 487.89 298.1 487.89 193.27 510.94 193.27 527.79 259.1 532.9 280.31 538 258.94 554.54 193.27 577.59 193.27 577.59 298.1 562.68 298.1 562.68 298.16 562.74 298.16 562.68 298.16 562.68 298.23 577.71 298.23 577.71 193.15 554.44 193.15 537.88 258.91 532.9 279.77 527.92 259.07 511.04 193.15 487.76 193.15 487.76 298.23 502.86 298.23 502.86 215.78 507.94 236.09 524.18 298.23 540.82 298.23 557.54 236.09 562.62 215.78 562.62 298.23 562.68 298.23 562.68 298.16 562.74 298.16"/><polygon points="598.83 193.27 655.44 193.27 655.44 208.12 615.41 208.12 615.41 235.82 644.25 235.82 644.25 249.88 615.41 249.88 615.41 283.25 655.44 283.25 655.44 298.1 598.77 298.1 598.77 298.16 598.83 298.16 598.77 298.16 598.77 298.23 655.56 298.23 655.56 283.13 615.54 283.13 615.54 250 644.38 250 644.38 235.7 615.54 235.7 615.54 208.24 655.56 208.24 655.56 193.15 598.71 193.15 598.71 298.23 598.77 298.23 598.77 298.16 598.83 298.16"/><polygon points="698.42 248.02 698.37 248.05 698.42 248.02 687.59 228.58 687.59 298.1 671.95 298.1 671.95 193.27 684.78 193.27 714.07 244.3 714.13 244.27 714.07 244.3 724.43 263.75 724.43 193.27 740.07 193.27 740.07 298.1 728.47 298.1 728.47 298.16 728.52 298.13 728.47 298.16 728.47 298.23 740.19 298.23 740.19 193.15 724.31 193.15 724.31 263.25 714.18 244.24 684.85 193.15 671.83 193.15 671.83 298.23 687.71 298.23 687.71 229.06 698.31 248.08 728.43 298.23 728.47 298.23 728.47 298.16 728.52 298.13"/><polygon points="795.69 298.1 779.11 298.1 779.11 208.27 753.59 208.27 753.59 193.27 821.22 193.27 821.22 208.27 795.69 208.27 795.69 208.34 795.75 208.34 795.75 208.4 821.35 208.4 821.35 193.15 753.46 193.15 753.46 208.4 778.99 208.4 778.99 298.23 795.82 298.23 795.82 208.34 795.75 208.34 795.75 208.4 795.75 208.34 795.69 208.34"/><path d="m75.157 637.73h47.193v12.312h-47.193v8.6904h-9.2949v-8.6904h-3.2578c-12.675 0-21.004-6.1553-21.004-19.433v-4.707h9.5342v3.5c0 6.3965 3.623 8.8106 10.021 8.8106h4.706v-11.465h9.2949v10.982z"/><path d="m86.623 582.82c-7.6035 0-12.553 4.3447-12.553 12.07 0 7.8438 4.9492 12.189 12.553 12.189h14.724c7.7246 0 12.553-4.3457 12.553-12.189 0-7.7256-4.8281-12.07-12.553-12.07zm36.692 12.07c0 14.242-8.5679 24.14-23.052 24.14h-12.314c-14.484 0-23.296-9.8975-23.296-24.14 0-14.123 8.8125-24.021 23.296-24.021h12.314c14.484 0 23.052 9.8975 23.052 24.021z"/><path d="m76.966 525.86c-2.2925 13.762 2.2925 19.191 8.5688 19.191h36.815v12.312h-56.488v-10.381l12.31-0.72461c-11.465-3.9824-14.241-10.017-12.67-20.398z"/><path d="m75.157 472.77h28.968c7.2422 0 13.157-1.3262 18.225-4.9473v13.277c-4.5889 3.0156-10.017 3.9814-18.225 3.9814h-28.968v8.8115h-9.2949v-9.1728h-10.378l-3.8623-11.95h14.241v-10.621h9.2949z"/><path d="m122.35 416.17h-38.142c-6.6377 0-10.378 3.3799-10.378 9.293 0 8.0879 10.622 13.642 17.259 13.642h31.261v12.189h-80.385v-12.189h35.846c-9.1733-3.8633-13.158-11.469-13.158-18.71 0-10.259 7.8467-16.535 18.951-16.535h38.746v12.311z"/><path d="m84.931 355.35c-6.0332 0-10.861 4.4658-10.861 11.829 0 7.4844 4.5884 11.949 10.861 11.949h3.623v-23.778zm38.384 11.707c0 14.485-8.812 23.899-22.691 23.899h-12.914c-13.519 0-23.057-8.8101-23.057-23.657 0-14.845 9.417-23.053 23.175-23.053h7.0024v34.882h7.7251c6.6367 0 11.344-4.707 11.344-12.795 0-7.3623-4.102-11.346-9.0518-11.346h-1.2051v-10.741h0.23975c12.192-1e-5 19.433 10.139 19.433 22.811z"/><path d="m75.157 637.73v0.0625h47.131v12.186h-47.194v8.6914h-9.1704l4.9e-4 -8.6914h-3.3203c-12.656-6e-3 -20.935-6.123-20.941-19.369v-4.6455h9.4092v3.4385c-9.8e-4 3.21 0.91064 5.4356 2.6338 6.8525s4.2436 2.0205 7.4502 2.0205h4.7686v-11.465h9.1699v10.982h0.0625v-0.0625h0.0625v-11.045h-9.4199v11.465h-4.6436c-6.3857-0.01-9.9502-2.3809-9.959-8.748v-3.5635h-9.6592v4.7705c-9.8e-4 6.6523 2.0879 11.531 5.77 14.742s8.9492 4.752 15.296 4.752h3.1953v8.6914h9.4199v-8.6914h47.194v-12.436h-47.256v0.0625h0.0625-0.0625z"/><path d="m86.623 582.82v-0.0635c-3.8135 0-6.9688 1.0908-9.1704 3.1562-2.2022 2.0635-3.4453 5.1025-3.4448 8.9775-4.9e-4 3.9346 1.2422 7.002 3.4443 9.082s5.3574 3.1699 9.1709 3.1699h14.724c3.874 0 7.0288-1.0898 9.2158-3.1699 2.188-2.0801 3.3999-5.1475 3.3989-9.082 9.8e-4 -3.875-1.2119-6.9121-3.3989-8.9775s-5.3418-3.1562-9.2158-3.1562h-14.724v0.125h14.724c7.7007 7e-3 12.485 4.3115 12.49 12.009-6e-3 7.8154-4.7891 12.121-12.49 12.127h-14.724c-7.5796-6e-3 -12.485-4.3115-12.49-12.127 0.0054-7.6953 4.9106-12.002 12.49-12.009zm36.692 12.07h-0.062c-5e-3 14.217-8.5381 24.072-22.99 24.078h-12.314c-14.453-5e-3 -23.229-9.8633-23.234-24.078 0.0044-14.098 8.7812-23.955 23.234-23.959h12.314c14.452 4e-3 22.985 9.8604 22.99 23.959h0.125c0-7.0742-2.147-13.097-6.1118-17.35-3.9653-4.2529-9.7471-6.7344-17.003-6.7344h-12.314c-7.2559 0-13.099 2.4814-17.125 6.7344-4.0264 4.2529-6.2344 10.275-6.2339 17.35-4.9e-4 7.1328 2.2075 13.186 6.2339 17.453 4.0259 4.2676 9.8686 6.749 17.125 6.749h12.314c7.2559 0 13.038-2.4814 17.003-6.749 3.9648-4.2686 6.1118-10.32 6.1118-17.453h-0.063z"/><path d="m76.966 525.86-0.06201-0.01c-0.41016 2.4629-0.60059 4.6582-0.60059 6.6064 0 4.4756 1.0054 7.6396 2.665 9.6865 1.6602 2.0469 3.9746 2.9717 6.5664 2.9717h36.753v12.186h-56.364v-10.259l12.566-0.73828-0.29834-0.10352c-9.541-3.3203-13.027-8.0254-13.032-15.497 0-1.4961 0.14063-3.1025 0.40234-4.832l-0.06152-0.0107v0.0635h11.465v-0.0635l-0.06201-0.01 0.06201 0.01v-0.0615h-11.52l-0.0078 0.0537c-0.2627 1.7324-0.40381 3.3467-0.40381 4.8506-0.0049 7.5166 3.5498 12.299 13.116 15.614l0.02051-0.0586-0.0039-0.0615-12.368 0.72754v10.501h56.614v-12.435h-36.878c-5.1196-5e-3 -9.0991-3.6172-9.1064-12.533 0-1.9385 0.18994-4.1289 0.59912-6.585l0.01221-0.0732h-0.07373v0.0615z"/><path d="m75.157 472.77v0.0625h28.968c7.249 9.8e-4 13.18-1.3291 18.261-4.959l-0.0361-0.0508h-0.062v13.277h0.062l-0.0352-0.0537c-4.5728 3.0068-9.9858 3.9736-18.19 3.9736h-29.031v8.8115h-9.1699v-9.1748h-10.396l-3.8213-11.824h14.217v-10.622h9.1699v10.622h0.0625v-0.0625h0.0625v-10.685h-9.4199v10.622h-14.265l3.9028 12.075h10.362v9.1738h9.4199v-8.8115h28.906c8.2109 0 13.655-0.96777 18.259-3.9941l0.0293-0.0186v-13.432l-0.1001 0.0713c-5.0542 3.6104-10.953 4.9356-18.188 4.9356h-28.968v0.0625h0.0625-0.0625z"/><path d="m122.35 416.17v-0.062h-38.142c-3.3291 0-5.9404 0.84814-7.7202 2.4448-1.7803 1.5972-2.7212 3.9414-2.7207 6.9102 0.01172 8.1475 10.658 13.699 17.322 13.703h31.199v12.065h-80.261v-12.065h36.094l-0.28613-0.12012c-9.1509-3.8555-13.118-11.433-13.119-18.652 0.0024-10.222 7.8062-16.468 18.889-16.473h38.684v12.249h0.062v-0.062 0.062h0.063v-12.374h-38.809c-5.564 0-10.317 1.5732-13.68 4.436-3.3638 2.8618-5.334 7.0171-5.3335 12.162-0.0015 7.2637 4 14.896 13.196 18.767l0.02441-0.0566v-0.0635h-35.908v12.315h80.511v-12.315h-31.324c-3.3022 9.8e-4 -7.6094-1.3838-11.084-3.7764-3.4756-2.3926-6.1143-5.7866-6.1133-9.8018 0.0063-5.8818 3.6987-9.2231 10.316-9.23h38.205v-0.063h-0.063z"/><path d="m84.931 355.35v-0.062c-3.0322 0-5.7646 1.1221-7.7378 3.1719-1.9736 2.0488-3.186 5.023-3.1856 8.7188-4.9e-4 3.7544 1.1514 6.7593 3.0952 8.8242 1.9434 2.064 4.6772 3.188 7.8281 3.187h3.6856v-23.902h-3.6856v0.125h3.5606v23.652h-3.5606c-6.2402-4e-3 -10.794-4.4292-10.798-11.886 0.0029-7.335 4.7974-11.763 10.798-11.766zm38.384 11.707h-0.062c-5e-3 14.459-8.7808 23.832-22.629 23.837h-12.914c-13.49-5e-3 -22.99-8.7769-22.995-23.595 0.0054-14.816 9.3799-22.985 23.112-22.991h6.9399v34.882h7.7876c3.333 9.8e-4 6.188-1.1831 8.207-3.3838 2.019-2.2022 3.1987-5.4175 3.1987-9.4731 0-3.6919-1.0278-6.544-2.6851-8.4741-1.6548-1.9302-3.937-2.9351-6.4287-2.9341h-1.1431v-10.617h0.17773c12.151 9.8e-4 19.367 10.098 19.371 22.749h0.125c0-6.3481-1.814-12.065-5.1592-16.197-3.3438-4.1318-8.2236-6.6768-14.337-6.6768h-0.30175v10.867h1.2671c4.9116 2e-3 8.9849 3.9443 8.9888 11.283-4e-3 8.064-4.6758 12.728-11.281 12.732h-7.6631l4.9e-4 -34.882h-7.0649c-6.8911 0-12.702 2.0557-16.79 5.977-4.0879 3.9209-6.4478 9.7026-6.4473 17.139-4.9e-4 7.436 2.3896 13.369 6.4775 17.44 4.0874 4.0723 9.8691 6.2803 16.642 6.2803h12.914c6.9541 0 12.645-2.3599 16.596-6.5381 3.9497-4.1772 6.1577-10.169 6.1577-17.424h-0.063z"/><path d="m241.9 430.26-13.998 125.01h24.616zm20.27 226.86-4.3408-51.646h-36.686l-5.311 51.646h-55.99l46.821-321.47h71.436l46.337 321.47z"/><path d="m427.74 402.27c0-10.62-3.8579-14.48-10.617-14.48h-15.446v90.744h15.446c6.7588 0 10.617-3.8613 10.617-14.481zm16.413 254.86c-9.6523 0-14.963-29.443-14.963-49.718v-64.196c0-8.206-4.3423-16.895-13.032-16.895h-14.48v130.81h-62.267v-321.47h85.92c30.408 0 61.783 19.306 61.783 62.266v64.196c0 15.929-9.6553 30.408-25.584 39.581 15.929 8.6875 26.547 23.651 26.547 39.579v62.267c0 20.272 3.8613 36.685 8.207 52.13v1.4492h-52.131z"/><polygon points="547.45 657.12 547.45 392.13 503.05 392.13 503.05 335.66 653.64 335.66 653.64 392.13 609.24 392.13 609.24 657.12"/><path d="m739.04 663.32c-47.212 0-75.344-27.661-75.344-74.869v-27.659h52.93v29.566c0 12.875 6.6768 21.459 19.552 21.459 12.397 0 18.598-7.6289 18.598-20.983 0-25.75-15.26-45.301-36.721-72.005-23.84-26.705-52.93-64.854-52.93-104.44 0-43.393 25.273-80.587 76.773-80.587 41.013 0 68.668 29.565 68.668 74.389v27.658h-52.928v-31.474c0-11.445-6.6768-18.12-15.74-18.12-9.0586 0-17.643 6.1978-17.643 18.597 0 30.519 15.26 43.874 37.195 72.961 25.752 30.996 52.454 64.376 52.454 105.39-1e-5 50.071-32.425 80.115-74.865 80.115z"/><path d="m556.03 752.74c-7.6035 1.6914-11.223 4.5889-11.223 9.9004v3.2559c0 3.1396 1.6885 5.4336 4.8281 5.4336 3.4971 0 6.3945-2.5361 6.3945-6.0371zm12.195 28.125c-4.7139 0-8.2109-2.1738-9.4199-7.3643-2.7754 4.8281-7.2383 7.3643-12.91 7.3643-7.6035 0-13.162-5.4336-13.162-14.846v-1.6914c0-11.707 9.7783-16.172 23.297-19.553v-8.3281c0-3.1387-1.5664-5.0703-4.9492-5.0703-3.498 0-4.707 1.8106-4.707 5.3106v4.2266h-11.587v-3.623c0-9.293 5.3154-16.294 16.901-16.294 11.588 0 16.658 7.4834 16.658 17.622v30.175c0 1.9326 0.84375 2.8975 2.8906 3.0186v9.0527h-3.0117z"/><path d="m591.03 741.88v38.02h-12.676v-57.937h10.744l0.84375 9.8975c2.2969-8.6904 7.4814-11.828 14.605-10.381v13.158c-10.021-1.4492-13.518 2.0508-13.518 7.2422z"/><path d="m626.87 732.34v29.813c0 7.1201 0.60059 12.673 3.0186 17.741h-13.039c-2.0537-4.5859-2.7754-9.5332-2.7754-17.741v-29.813h-6.5156v-10.382h7.1162v-10.138l12.195-3.2598v13.397h7.7246v10.382h-7.7246z"/><path d="m656.44 780.87c-11.353 0-17.625-6.8828-17.625-16.899v-2.7744h10.865v3.1367c0 4.708 2.4102 6.6387 6.2734 6.6387 3.8613 0 6.0352-1.6894 6.0352-5.4297 0-5.1914-3.7393-7.2432-10.985-11.709-6.8809-3.7412-11.466-8.5693-11.466-16.657 0-10.019 7.124-16.174 16.902-16.174 10.735 0 16.65 6.7588 16.65 16.415v2.1728h-10.5v-2.8975c0-3.3789-1.9307-5.4307-5.915-5.4307-3.498 0-5.3066 1.6885-5.3066 4.8281 0 3.7412 2.5303 6.0342 8.6904 9.6572 7.6035 4.1006 13.519 8.9287 13.519 18.707 1e-5 8.4492-5.5518 16.416-17.138 16.416z"/><polygon points="692.64 764.57 692.64 779.9 681.05 779.9 681.05 764.57"/><path d="m725.09 736.81c0-3.5-2.167-6.1562-5.6719-6.1562-3.6191 0-5.6719 2.6562-5.6719 6.1562v6.7578c0 3.3809 2.0527 6.0371 5.6719 6.0371 3.5049 0 5.6719-2.6562 5.6719-6.0371zm3.2617 44.297c0-3.3789-2.0527-5.5508-8.2031-5.5508-5.6797 0-8.334 2.291-8.334 5.6719v3.0176c0 3.3799 2.7754 5.794 8.334 5.794 5.794 0 8.2031-2.5361 8.2031-5.915zm7.6035-53.228c-1.209 0-2.4102-0.24414-3.8613-0.96582 3.1387 3.0176 4.9482 6.6377 4.9482 10.861v4.2256c0 9.6562-7.002 16.535-17.624 16.535-0.96484 0-3.1318-0.12012-3.9844-0.36133-2.6523 0-4.2197 1.9307-4.2197 3.9844 0 2.4131 2.167 3.8623 9.8916 3.8623 12.919 0 18.591 5.6719 18.591 14.362v2.7754c0 9.8994-7.2393 16.778-19.67 16.778-11.351 0-19.8-5.5527-19.8-14.002v-2.6562c0-4.1025 2.6543-7.8457 7.4824-9.4131-4.4629-1.5684-6.7588-5.0703-6.7588-8.6914 0-4.1025 3.748-8.4482 8.5693-9.1728-4.9424-1.9316-7.6045-8.0879-7.6045-14.363v-3.7422c0-9.5332 7.6045-16.897 17.503-16.897 3.7412 0 5.794 0.96484 6.8809 0.96484 5.0723 0 6.1582-2.6553 6.1582-6.2764h9.1699c0.36523 2.4141 0.36523 3.6211 0.36523 4.8281 1e-5 4.8281-2.7754 7.3643-6.0371 7.3643z"/><path d="m768.79 737.29c0-3.5-2.1748-6.0342-5.4365-6.0342-3.498 0-5.4287 2.5342-5.4287 6.0342v27.398c0 3.5 1.9307 5.9141 5.4287 5.9141 3.2617 0 5.4365-2.4141 5.4365-5.9141zm-5.4365 43.574c-10.621 0-17.859-7.001-17.859-18.59v-22.57c0-11.466 7.2383-18.708 17.859-18.708 10.5 0 17.746 7.2422 17.746 18.708v22.57c0 11.589-7.2461 18.59-17.746 18.59z"/><polygon points="785.91 721.96 798.34 721.96 803.78 750.69 805.59 761.79 807.4 750.69 812.59 721.96 824.54 721.96 810.78 779.9 799.67 779.9"/>
</g></svg>
