<?xml version="1.0" encoding="utf-8"?>
<!DOCTYPE svg PUBLIC "-//W3C//DTD SVG 1.1//EN" "http://www.w3.org/Graphics/SVG/1.1/DTD/svg11.dtd">
<svg version="1.1" xmlns="http://www.w3.org/2000/svg" x="0" y="0" width="123" height="117" viewBox="0 0 123 117">
<style type="text/css">
	.st0{fill:none;stroke:#000;}
</style>
		<path class="st0" d="M65.9,31.4c14.7,2.1,26,14.8,26,30.1c0,16.8-13.6,30.4-30.4,30.4c-16.8,0-30.4-13.6-30.4-30.4
			c0-15.3,11.3-28,26.1-30.1"/>
		<path class="st0" d="M66,39.4c10.3,2.1,18,11.2,18,22.1C84,73.9,73.9,84,61.5,84S39,73.9,39,61.5c0-10.9,7.7-20,18-22.1"/>
		<path class="st0" d="M65.9,47.5c5.9,1.9,10.2,7.4,10.2,13.9c0,8.1-6.5,14.6-14.6,14.6s-14.6-6.5-14.6-14.6
			c0-6.5,4.3-12.1,10.2-13.9"/>
		<path d="M121.2,51.8c-5.6-4.7-6.8-5.2-8.6-6.9c0.5-2.4,1.2-3.6,2.9-10.6c-8.3-6.5-20.4-7.8-29.6-6.4c-1.5-9.2-6.5-20.2-15.2-26.2
			c-6.2,3.8-7.1,4.9-9.2,6c-2.1-1.2-3-2.2-9.2-6c-8.7,5.9-13.8,17-15.2,26.2c-9.2-1.4-21.3-0.1-29.6,6.4c1.7,7.1,2.4,8.2,2.9,10.6
			c-1.8,1.7-3,2.2-8.6,6.9C4.7,61.9,13.7,70.1,22,74.3c-4.2,8.3-6.6,20.2-3.1,30.1c7.3,0.5,8.6,0.2,11,0.5c1,2.2,1.2,3.6,3.9,10.3
			c10.5,0.3,21.1-5.7,27.7-12.2c6.6,6.6,17.2,12.5,27.7,12.2c2.8-6.7,2.9-8.1,3.9-10.3c2.4-0.3,3.7,0,11-0.5
			c3.6-9.9,1.2-21.8-3.1-30.1C109.3,70.1,118.3,61.9,121.2,51.8z M93.2,71.9c5.2,7.4,8.2,22,6.6,27.3c-1.6,0.1-10.4,0.7-10.4,0.7
			s-3.3,8.2-3.9,9.7c-5.6-0.1-18.6-7-24-14.2c-5.4,7.2-18.4,14.2-24,14.2c-0.6-1.5-3.9-9.7-3.9-9.7s-8.8-0.6-10.4-0.7
			c-1.6-5.3,1.4-20,6.6-27.4c-8.5-2.9-19.6-13-21.4-18.3c1.3-1,8-6.7,8-6.7s-2.1-8.6-2.6-10.1c4.5-3.2,19.1-4.4,27.7-1.7
			c0.1-9,6.7-23.2,11.1-26.5c1.3,0.9,8.8,5.6,8.8,5.6s7.5-4.7,8.8-5.6c4.4,3.3,10.6,17.1,10.7,26.1c8.6-2.7,23.6-1.1,28.1,2.1
			c-0.4,1.5-2.6,10.1-2.6,10.1s6.8,5.7,8,6.7C112.8,58.8,101.8,69,93.2,71.9z"/>
</svg>
