<?xml version="1.0" encoding="UTF-8" standalone="no"?>
<!-- Created with Inkscape (http://www.inkscape.org/) -->

<svg
   xmlns:dc="http://purl.org/dc/elements/1.1/"
   xmlns:cc="http://creativecommons.org/ns#"
   xmlns:rdf="http://www.w3.org/1999/02/22-rdf-syntax-ns#"
   xmlns:svg="http://www.w3.org/2000/svg"
   xmlns="http://www.w3.org/2000/svg"
   xmlns:xlink="http://www.w3.org/1999/xlink"
   xmlns:sodipodi="http://sodipodi.sourceforge.net/DTD/sodipodi-0.dtd"
   xmlns:inkscape="http://www.inkscape.org/namespaces/inkscape"
   width="352.57001mm"
   height="102.0945mm"
   viewBox="0 0 352.57001 102.0945"
   version="1.1"
   id="svg3790"
   sodipodi:docname="NNSA_Logo.svg"
   inkscape:version="0.92+devel unknown">
  <defs
     id="defs3784">
    <linearGradient
       inkscape:collect="always"
       id="linearGradient4670">
      <stop
         style="stop-color:#2a2e6c;stop-opacity:1"
         offset="0"
         id="stop4666" />
      <stop
         id="stop5533"
         offset="0.25"
         style="stop-color:#293374;stop-opacity:1" />
      <stop
         id="stop4699"
         offset="0.5"
         style="stop-color:#3d4682;stop-opacity:1" />
      <stop
         style="stop-color:#7077a3;stop-opacity:1"
         offset="1"
         id="stop4668" />
    </linearGradient>
    <linearGradient
       inkscape:collect="always"
       xlink:href="#linearGradient4670"
       id="linearGradient4672"
       x1="743.87634"
       y1="414.12628"
       x2="743.87634"
       y2="112.91711"
       gradientUnits="userSpaceOnUse" />
    <clipPath
       id="SVGID_2_">
      <use
         height="100%"
         width="100%"
         y="0"
         x="0"
         style="overflow:visible"
         id="use89"
         overflow="visible"
         xlink:href="#SVGID_1_" />
    </clipPath>
    <linearGradient
       gradientTransform="matrix(3.3132,0,0,-3.3132,-506.3868,546.0483)"
       y2="142.6543"
       x2="348.11911"
       y1="142.6543"
       x1="342.17191"
       gradientUnits="userSpaceOnUse"
       id="SVGID_5_">
      <stop
         id="stop98"
         style="stop-color:#EDE80D"
         offset="0" />
      <stop
         id="stop100"
         style="stop-color:#EC5024"
         offset="0.85" />
      <stop
         id="stop102"
         style="stop-color:#ED2024"
         offset="1" />
    </linearGradient>
    <clipPath
       id="SVGID_4_">
      <use
         height="100%"
         width="100%"
         y="0"
         x="0"
         style="overflow:visible"
         id="use95"
         overflow="visible"
         xlink:href="#SVGID_3_" />
    </clipPath>
    <clipPath
       id="SVGID_7_">
      <use
         height="100%"
         width="100%"
         y="0"
         x="0"
         style="overflow:visible"
         id="use114"
         overflow="visible"
         xlink:href="#SVGID_6_" />
    </clipPath>
    <linearGradient
       gradientTransform="matrix(3.4875,0,0,-3.4875,-553.3053,568.264)"
       y2="144.71581"
       x2="346.2471"
       y1="144.71581"
       x1="340.30081"
       gradientUnits="userSpaceOnUse"
       id="SVGID_10_">
      <stop
         id="stop123"
         style="stop-color:#EDE80D"
         offset="0" />
      <stop
         id="stop125"
         style="stop-color:#EC5024"
         offset="0.85" />
      <stop
         id="stop127"
         style="stop-color:#ED2024"
         offset="1" />
    </linearGradient>
    <clipPath
       id="SVGID_9_">
      <use
         height="100%"
         width="100%"
         y="0"
         x="0"
         style="overflow:visible"
         id="use120"
         overflow="visible"
         xlink:href="#SVGID_8_" />
    </clipPath>
    <clipPath
       id="SVGID_12_">
      <use
         height="100%"
         width="100%"
         y="0"
         x="0"
         style="overflow:visible"
         id="use139"
         overflow="visible"
         xlink:href="#SVGID_11_" />
    </clipPath>
    <linearGradient
       gradientTransform="matrix(3.3132,0,0,-3.3132,-504.293,546.2241)"
       y2="142.3945"
       x2="351.24121"
       y1="142.3945"
       x1="345.29489"
       gradientUnits="userSpaceOnUse"
       id="SVGID_15_">
      <stop
         id="stop148"
         style="stop-color:#EDE80D"
         offset="0" />
      <stop
         id="stop150"
         style="stop-color:#EC5024"
         offset="0.85" />
      <stop
         id="stop152"
         style="stop-color:#ED2024"
         offset="1" />
    </linearGradient>
    <clipPath
       id="SVGID_14_">
      <use
         height="100%"
         width="100%"
         y="0"
         x="0"
         style="overflow:visible"
         id="use145"
         overflow="visible"
         xlink:href="#SVGID_13_" />
    </clipPath>
    <path
       inkscape:connector-curvature="0"
       d="m 646.984,73.41 c 0,5.441 -4.414,9.855 -9.855,9.855 -5.434,0 -9.848,-4.414 -9.848,-9.855 0,-5.441 4.414,-9.848 9.848,-9.848 5.441,0 9.855,4.407 9.855,9.848"
       id="SVGID_1_" />
    <rect
       height="19.702999"
       width="19.702999"
       y="63.562"
       x="627.28101"
       id="SVGID_3_" />
    <path
       inkscape:connector-curvature="0"
       d="m 654.242,63.562 c 0,5.727 -4.645,10.371 -10.371,10.371 -5.726,0 -10.367,-4.645 -10.367,-10.371 0,-5.723 4.641,-10.371 10.367,-10.371 5.726,0 10.371,4.649 10.371,10.371"
       id="SVGID_6_" />
    <rect
       height="20.742001"
       width="20.738001"
       y="53.191002"
       x="633.50403"
       id="SVGID_8_" />
    <path
       inkscape:connector-curvature="0"
       d="m 659.426,74.449 c 0,5.441 -4.41,9.848 -9.852,9.848 -5.442,0 -9.852,-4.406 -9.852,-9.848 0,-5.438 4.41,-9.852 9.852,-9.852 5.442,0 9.852,4.415 9.852,9.852"
       id="SVGID_11_" />
    <rect
       height="19.698999"
       width="19.698999"
       y="64.598"
       x="639.72302"
       id="SVGID_13_" />
  </defs>
  <sodipodi:namedview
     id="base"
     pagecolor="#ffffff"
     bordercolor="#666666"
     borderopacity="1.0"
     inkscape:pageopacity="0.0"
     inkscape:pageshadow="2"
     inkscape:zoom="0.5"
     inkscape:cx="637.58607"
     inkscape:cy="176.21054"
     inkscape:document-units="mm"
     inkscape:current-layer="layer1"
     showgrid="false"
     fit-margin-top="0"
     fit-margin-left="0"
     fit-margin-right="0"
     fit-margin-bottom="0"
     inkscape:window-width="1366"
     inkscape:window-height="704"
     inkscape:window-x="0"
     inkscape:window-y="0"
     inkscape:window-maximized="1"
     showguides="false"
     inkscape:object-paths="false"
     inkscape:document-rotation="0" />
  <metadata
     id="metadata3787">
    <rdf:RDF>
      <cc:Work
         rdf:about="">
        <dc:format>image/svg+xml</dc:format>
        <dc:type
           rdf:resource="http://purl.org/dc/dcmitype/StillImage" />
        <dc:title></dc:title>
        <cc:license
           rdf:resource="http://creativecommons.org/publicdomain/zero/1.0/" />
        <dc:source />
        <dc:creator>
          <cc:Agent>
            <dc:title></dc:title>
          </cc:Agent>
        </dc:creator>
      </cc:Work>
      <cc:License
         rdf:about="http://creativecommons.org/publicdomain/zero/1.0/">
        <cc:permits
           rdf:resource="http://creativecommons.org/ns#Reproduction" />
        <cc:permits
           rdf:resource="http://creativecommons.org/ns#Distribution" />
        <cc:permits
           rdf:resource="http://creativecommons.org/ns#DerivativeWorks" />
      </cc:License>
    </rdf:RDF>
  </metadata>
  <g
     inkscape:label="NNSA Logo"
     inkscape:groupmode="layer"
     id="layer1"
     transform="translate(-63.848585,-180.84665)"
     style="display:inline"
     sodipodi:insensitive="true">
    <path
       style="display:inline;fill:url(#linearGradient4672);fill-opacity:1;stroke:none;stroke-width:0.99999994;stroke-opacity:1"
       d="m 930.41797,113.42578 c -16.54127,0.0337 -31.88279,0.49168 -38.41797,1.41211 -57.23943,8.0617 -92.3802,27.63035 -106.3457,59.2207 -2.84852,6.44338 -5.6543,19.26269 -5.6543,25.83789 0,12.6288 6.97727,28.10991 17.37891,38.5586 17.27089,17.34905 34.22917,24.70744 107.62109,46.69726 48.48416,14.52688 61.19014,19.41163 69.10742,26.56446 5.44925,4.92302 7.89258,10.00745 7.89258,16.42773 0,12.00106 -9.70993,22.00435 -27.69141,28.53125 -26.1787,9.50238 -88.86585,8.83452 -113.58789,-1.21094 -16.92759,-6.87828 -24.08148,-16.50712 -26.43359,-35.57226 l -0.78906,-6.91431 h -85.78321 l 0.55274,10.76001 c 0.82496,16.08798 6.62318,32.00041 15.93945,43.74219 19.02785,23.9818 60.90399,40.0146 118.78711,45.47851 H 863 c 14.65463,1.38168 70.43256,0.45028 83.49414,-1.39453 22.71118,-3.20776 40.93277,-7.58706 56.15036,-13.49609 4.0421,-1.56953 7.3496,-2.34961 7.3496,-2.34961 0,0 -5.3499,6.93781 -8.3886,11.0296 h 87.3437 C 1100.9791,391.74832 1125.0391,363 1125.0391,363 h 33.955 c 0,0 0.2313,-8.76487 0.463,-13.14218 0.2041,-3.8546 0.8165,-11.55118 0.8165,-11.55118 l -9.1562,-0.68945 c -22.5663,-1.70355 -41.2721,-9.7148 -49.0352,-20.99805 -4.1861,-6.08425 -6.4825,-15.3708 -5.6406,-22.8125 0.3613,-3.19378 0.2774,-5.80664 0.2774,-5.80664 l -24.3809,29.66992 c 0,0 -0.9024,-3.50335 -1.7402,-7.52148 -4.3499,-20.86171 -17.9905,-35.99723 -42.9395,-47.64649 -13.3396,-6.22858 -30.75496,-12.32567 -65.95703,-23.08984 -66.80542,-20.42793 -79.05861,-25.09147 -88.29101,-33.60156 -13.27711,-12.23845 -6.80892,-30.76944 13.53711,-38.78907 20.53417,-8.09382 65.47905,-8.79645 91.00976,-1.42187 17.02175,4.91675 29.85657,15.98058 34.54687,29.7793 l 1.91,5.62109 h 86.6093 l -0.6172,-4.25 c -0.9685,-6.66958 -5.8476,-20.21608 -9.541,-26.48828 -4.1785,-7.0961 -19.3494,-22.60264 -27.3652,-27.9707 -19.9952,-13.39053 -46.278,-22.30821 -79.5,-26.97657 -9.06433,-1.27372 -32.31468,-1.93206 -53.58203,-1.88867 z m 332.85743,7.67343 H 1229.5 l -21.8477,29.30112 19.4571,14.39676 c 0,0 6.4726,-9.27892 8.6085,-12.52979 9.4217,-12.95515 12.3205,-16.71451 17.6473,-22.23607 2.7504,-2.85098 9.9102,-8.93202 9.9102,-8.93202 z m 47.9141,0 c 0,0 2.3815,6.35969 3.8671,17.0883 0.7942,10.02744 0.5599,15.54034 0.076,23.66602 -0.3782,6.35407 -2.2402,17.66601 -2.2402,17.66601 0,0 8.4479,-0.74479 12.8281,-1.05469 5.9356,-0.41994 15.0195,-0.87304 15.0195,-0.87304 l -12.0114,-56.4926 z m -26.711,4.02385 c -2.151,-0.10987 -3.4937,0.67399 -6.1562,1.96289 -7.6726,4.28294 -20.11,17.95722 -32.8965,38.76367 l -5.4648,9.16211 3.5976,2.86328 c 1.8754,1.45421 4.2977,3.2844 6.2227,5.06055 2.2634,1.89488 4.7187,4.03515 4.7187,4.03515 0,0 5.625,-1.28455 11.125,-2.34765 5.5,-1.06311 14.7447,-2.40788 20.6211,-3.06446 l 10.2324,-1.24024 0.957,-11.21874 c 0.3178,-4.42492 0.3309,-7.72672 0.063,-15.24295 -0.5837,-16.36192 -3.4012,-22.98098 -7.7597,-26.44279 -1.4132,-1.16127 -3.3503,-2.19326 -5.2603,-2.29082 z M 572.16406,125.5 669.84961,314.48242 729.81055,125.49858 Z M 412.66602,125.499 350.29883,324.17815 249.56836,127.50215 H 162.69922 L 77,407.76367 152.37305,407.76167 214.02344,206.00776 320.5,408.94426 h 81 l 84.53516,-283.44568 z m 738.64448,3.57369 c -11.8571,-0.25407 -20.8573,4.22364 -25.2656,12.92773 -8.0037,15.80277 -3.8755,41.64517 12.1836,76.25 2.2334,4.81251 4.666,8.73242 4.666,8.73242 l 8.1086,-9.89159 c 0,0 -2.0218,-3.66171 -4.4777,-8.27833 -17.3365,-32.58917 -19.4523,-59.21435 -5.4414,-68.48633 10.8006,-7.1475 30.9477,-2.64775 53.916,12.04297 l 5.5,3.51758 4.3398,-5.38672 -5.1699,-3.32031 c -9.3134,-5.98296 -27.0041,-14.0587 -35.6152,-16.25781 -4.5228,-1.15502 -8.7918,-1.76493 -12.7442,-1.84961 z M 1200.875,158 l -47.8654,60.33804 c 0,0 0.9886,1.85952 1.8642,3.54252 0.7617,1.49171 1.5285,2.96319 1.5285,2.96319 0,0 6.3952,-3.24488 14.041,-6.9043 7.6458,-3.65937 18.3843,-8.28268 23.8629,-10.58241 l 10.1157,-4.02696 7.8847,-13.41406 c 4.3368,-7.3784 8.6305,-15.2911 8.6305,-15.2911 z m 141.832,27 -14.8223,0.10935 c -11.6113,0.21055 -16.2129,0.8125 -16.2129,0.8125 0,0 -1.0057,5.52813 -2.4823,11.57813 -1.4766,6.05 -4.4245,16.93534 -6.4375,23.34961 l -4.0352,10.97461 6.0469,7.33789 c 7.246,8.79337 23.4958,31.5224 23.4958,31.5224 0,0 5.2349,-2.83228 13.676,-9.19818 8.5108,-6.53602 13.3848,-11.03321 13.3848,-11.03321 z m -108.252,0.9375 -4.1242,7.86064 c 3.3061,-1.21089 5.3075,-1.79446 9.4093,-3.16272 z m 27.0235,6.90234 c 0,0 6.4399,5.85534 13.9649,13.23438 7.525,7.37903 8.984,9.2135 13.2421,13.54687 5.0572,-20.32455 6.8301,-32.4375 6.8301,-32.4375 0,0 -15.4546,1.34446 -34.0371,5.65625 z m -14.9863,3.23438 -9.5899,2.80859 c -5.2749,1.54409 -11.166,3.77539 -11.166,3.77539 0,0 -7.3844,13.94299 -20.2544,43.37841 -5.0356,11.51701 -12.5444,29.2837 -12.5444,29.2837 0,0 11.7403,13.17748 22.41,23.34678 7.6854,7.3249 16.4614,15.52777 16.4614,15.52777 0,0 7.8786,-1.92754 13.3786,-3.68509 L 1255.5,307.4707 c 0,0 11.869,-25.49608 16.22,-35.95993 6.0333,-15.23253 13.28,-37.23538 13.28,-37.23538 0,0 -20.7565,-21.82112 -34.5039,-34.50586 z M 1199.6543,212 c 0,0 -13.8029,5.77253 -25.2051,11.21289 -10.5299,5.02416 -14.5938,7.41602 -14.5938,7.41602 0,0 4.794,7.4516 9.252,13.45507 4.4579,6.00348 9.0371,10.91602 9.0371,10.91602 0,0 5.8401,-13.03552 10.6496,-22.50216 C 1192.5327,225.21034 1199.6543,212 1199.6543,212 Z M 540.8457,214.13867 480,408.94426 h 161.54883 z m 602.7228,16.24024 c 0,0 -11.4512,13.80007 -16.477,20.12107 -16.0789,20.2278 -21.3454,28.80699 -22.8711,37.25586 -3.2481,17.9879 10.4058,30.41861 38.2461,34.81836 4.4185,0.69827 10.3946,1.13767 13.8457,1.25391 l 5.625,0.1094 c 0,0 0.7206,-5.30122 1.1562,-7.77344 0.3637,-2.06413 1.1953,-6.14518 1.1953,-6.14518 h 6.7344 c 0,0 -0.3294,4.09999 -0.4628,6.39938 -0.1335,2.29939 -0.4004,7.77318 -0.4004,7.77318 l 13.373,-1.06055 c 11.2094,-0.88896 28.5371,-4.48242 28.5371,-4.48242 0,0 -5.5371,-5.43609 -13.1875,-14.05274 l -12.1953,-14.33984 -3.0937,4.0332 c -3.7787,4.92813 -9.1963,10.39549 -15.3484,6.40518 -2.4088,-1.56237 -4.3186,-3.78486 -4.2415,-8.95791 0,-1.52047 1.6961,-7.92139 3.6211,-12.69531 1.925,-4.77393 3.4855,-8.313 3.4855,-8.313 0,0 -7.8358,-10.90084 -12.3132,-17.03363 -2.0232,-2.47502 -9.5394,-13.01396 -11.7934,-17.01666 -1.2069,-2.20332 -3.4351,-6.29883 -3.4351,-6.29883 z m 150.4769,13.43937 c 0,0 -2.0641,5.82274 -2.9515,7.97453 -1.8879,5.72039 -11.9228,26.96585 -18.6896,40.00016 -3.4745,6.69267 -5.5044,10.89999 -5.5044,10.89999 0,0 5.079,-1.61935 12.2134,-4.75155 16.8098,-7.38 40.9751,-21.87891 40.9751,-21.87891 0,0 -8.442,-11.38072 -12.8447,-16.82922 -4.282,-5.29905 -13.1983,-15.415 -13.1983,-15.415 z M 1359.9219,275 l -21.9816,13.26153 c 0,0 2.074,4.86917 4.5187,10.42402 2.4446,5.55484 5.6988,14.31079 7.2324,19.45703 2.4693,8.28608 3.7875,10.14701 4.3613,22.98242 -0.5525,7.8898 -0.91,12.76522 -3.9472,19.67578 -1.9164,4.24161 -1.2207,3.01104 -2.2903,5.22097 -2.2525,0.66294 -6.2568,-0.43978 -5.6921,-1.65783 0.6545,-1.41163 2.1684,-3.60079 3.9374,-7.86392 3.0718,-8.56342 2.3781,-24.54365 -1.5644,-36 -4.0377,-9.6791 -7.8585,-19.54163 -13.5996,-28.30664 l -15.1973,7.31641 c -17.0265,8.19571 -35.0396,16.12147 -49.9804,20.94726 -4.6299,1.49545 -11.56,3.91442 -11.56,3.91442 l -3.3356,4.8671 c 0,0 24.8675,17.76711 38.9991,24.82981 5.5053,3.02498 14.8679,8.1019 21.1875,10.97461 12.6674,5.7583 16.4745,8.62879 17.3691,13.10156 0.741,3.70511 -1.4031,9.05819 -4.4961,11.22461 -4.5637,3.19657 -14.4293,1.44176 -26.6211,-4.73633 C 1294.4048,383.18514 1291.7168,382 1291.7168,382 l 3.2461,26.24882 h 91.8301 z m -134.793,56.3125 -6.3144,1.30859 c -11.5521,2.39471 -27.1859,4.45547 -38.459,5.06836 l -11.3636,0.64966 c 0,0 -0.1699,8.10247 -0.1251,12.15366 0.046,4.17101 0.4052,12.50723 0.4052,12.50723 h 47.6269 l 9.3643,-11.28125 8.7393,-11.53125 -4.9356,-4.4375 z m 15.2358,13.83391 c 0,0 -2.3886,3.40318 -6.6818,9.21032 l -6.6556,8.64358 h 35.0157 c 0,0 -7.1877,-5.86225 -12.0263,-9.78439 -3.4814,-2.85986 -9.652,-8.06951 -9.652,-8.06951 z"
       id="path3857"
       inkscape:connector-curvature="0"
       sodipodi:nodetypes="cscscscscsccccscccccccccccccccccssccsccccccsccccccscccccscccsccccccccccccscccccccccccccccccccccscccccccccccccccccccsccccccccccccsccccccscsccccccccsccccccccccccccccccccsccccscscccccccccscsccccccccscccsccccccccccccccccccccccccccccc"
       transform="matrix(0.26458333,0,0,0.26458333,47.5116,150.83661)"
       inkscape:label="NNSA"
       sodipodi:insensitive="true" />
    <g
       transform="matrix(0.51154192,0,0,0.51154192,46.441301,180.4144)"
       id="g3887"
       style="display:inline"
       inkscape:label="triton"
       sodipodi:insensitive="true">
      <g
         id="g109"
         style="display:inline"
         sodipodi:insensitive="true"
         inkscape:label="p1">
        <defs
           id="defs87" />
        <clipPath
           id="clipPath3925">
          <use
             height="100%"
             width="100%"
             y="0"
             x="0"
             style="overflow:visible"
             id="use3923"
             overflow="visible"
             xlink:href="#SVGID_1_" />
        </clipPath>
        <g
           id="g107"
           clip-path="url(#SVGID_2_)">
          <defs
             id="defs93" />
          <clipPath
             id="clipPath3931">
            <use
               height="100%"
               width="100%"
               y="0"
               x="0"
               style="overflow:visible"
               id="use3929"
               overflow="visible"
               xlink:href="#SVGID_3_" />
          </clipPath>
          <linearGradient
             gradientTransform="matrix(3.3132,0,0,-3.3132,-506.3868,546.0483)"
             y2="142.6543"
             x2="348.11911"
             y1="142.6543"
             x1="342.17191"
             gradientUnits="userSpaceOnUse"
             id="linearGradient3939">
            <stop
               id="stop3933"
               style="stop-color:#EDE80D"
               offset="0" />
            <stop
               id="stop3935"
               style="stop-color:#EC5024"
               offset="0.85" />
            <stop
               id="stop3937"
               style="stop-color:#ED2024"
               offset="1" />
          </linearGradient>
          <rect
             style="fill:url(#SVGID_5_)"
             id="rect105"
             height="19.702999"
             width="19.702999"
             clip-path="url(#SVGID_4_)"
             y="63.562"
             x="627.28101" />
        </g>
      </g>
      <g
         id="g134"
         style="display:inline"
         sodipodi:insensitive="true"
         inkscape:label="n1">
        <defs
           id="defs112" />
        <clipPath
           id="clipPath3948">
          <use
             height="100%"
             width="100%"
             y="0"
             x="0"
             style="overflow:visible"
             id="use3946"
             overflow="visible"
             xlink:href="#SVGID_6_" />
        </clipPath>
        <g
           id="g132"
           clip-path="url(#SVGID_7_)">
          <defs
             id="defs118" />
          <clipPath
             id="clipPath3954">
            <use
               height="100%"
               width="100%"
               y="0"
               x="0"
               style="overflow:visible"
               id="use3952"
               overflow="visible"
               xlink:href="#SVGID_8_" />
          </clipPath>
          <linearGradient
             gradientTransform="matrix(3.4875,0,0,-3.4875,-553.3053,568.264)"
             y2="144.71581"
             x2="346.2471"
             y1="144.71581"
             x1="340.30081"
             gradientUnits="userSpaceOnUse"
             id="linearGradient3962">
            <stop
               id="stop3956"
               style="stop-color:#EDE80D"
               offset="0" />
            <stop
               id="stop3958"
               style="stop-color:#EC5024"
               offset="0.85" />
            <stop
               id="stop3960"
               style="stop-color:#ED2024"
               offset="1" />
          </linearGradient>
          <rect
             style="fill:url(#SVGID_10_)"
             id="rect130"
             height="20.742001"
             width="20.738001"
             clip-path="url(#SVGID_9_)"
             y="53.191002"
             x="633.50403" />
        </g>
      </g>
      <g
         id="g159"
         style="display:inline"
         sodipodi:insensitive="true"
         inkscape:label="n2">
        <defs
           id="defs137" />
        <clipPath
           id="clipPath3971">
          <use
             height="100%"
             width="100%"
             y="0"
             x="0"
             style="overflow:visible"
             id="use3969"
             overflow="visible"
             xlink:href="#SVGID_11_" />
        </clipPath>
        <g
           id="g157"
           clip-path="url(#SVGID_12_)">
          <defs
             id="defs143" />
          <clipPath
             id="clipPath3977">
            <use
               height="100%"
               width="100%"
               y="0"
               x="0"
               style="overflow:visible"
               id="use3975"
               overflow="visible"
               xlink:href="#SVGID_13_" />
          </clipPath>
          <linearGradient
             gradientTransform="matrix(3.3132,0,0,-3.3132,-504.293,546.2241)"
             y2="142.3945"
             x2="351.24121"
             y1="142.3945"
             x1="345.29489"
             gradientUnits="userSpaceOnUse"
             id="linearGradient3985">
            <stop
               id="stop3979"
               style="stop-color:#EDE80D"
               offset="0" />
            <stop
               id="stop3981"
               style="stop-color:#EC5024"
               offset="0.85" />
            <stop
               id="stop3983"
               style="stop-color:#ED2024"
               offset="1" />
          </linearGradient>
          <rect
             style="fill:url(#SVGID_15_)"
             id="rect155"
             height="19.698999"
             width="19.698999"
             clip-path="url(#SVGID_14_)"
             y="64.598"
             x="639.72302" />
        </g>
      </g>
    </g>
    <g
       transform="matrix(0.5101038,0,0,0.5101038,55.986355,181.00404)"
       id="g4031"
       style="display:inline"
       inkscape:label="National Nuclear Security Administration"
       sodipodi:insensitive="true">
      <g
         id="g80"
         style="display:inline"
         inkscape:label="Administration"
         sodipodi:insensitive="true">
        <path
           inkscape:connector-curvature="0"
           id="path82"
           d="m 691.158,175.039 h 4.737 l -0.664,2.292 c 1.26,-0.975 2.419,-1.67 3.479,-2.085 1.06,-0.415 2.157,-0.623 3.296,-0.623 1.521,0 2.688,0.416 3.501,1.246 0.813,0.83 1.166,1.933 1.061,3.305 -0.048,0.621 -0.329,1.794 -0.845,3.521 l -2.946,9.982 h -4.998 l 2.965,-10.016 c 0.44,-1.495 0.671,-2.386 0.693,-2.674 0.047,-0.608 -0.105,-1.088 -0.455,-1.438 -0.352,-0.349 -0.863,-0.522 -1.536,-0.522 -0.731,0 -1.567,0.294 -2.506,0.88 -0.939,0.587 -1.701,1.362 -2.286,2.325 -0.425,0.687 -0.951,2.088 -1.577,4.202 l -2.143,7.242 h -4.999 z"
           inkscape:label="n"
           sodipodi:insensitive="true" />
        <path
           inkscape:connector-curvature="0"
           id="path78"
           d="m 665.373,185.354 c 0.252,-3.267 1.418,-5.872 3.501,-7.815 2.083,-1.943 4.697,-2.915 7.844,-2.915 2.729,0 4.805,0.718 6.227,2.151 1.423,1.434 2.041,3.362 1.854,5.788 -0.22,2.857 -1.368,5.326 -3.444,7.408 -2.076,2.081 -4.722,3.121 -7.938,3.121 -1.742,0 -3.26,-0.332 -4.556,-0.996 -1.297,-0.664 -2.229,-1.605 -2.797,-2.823 -0.568,-1.218 -0.798,-2.526 -0.691,-3.919 z m 14.509,-3.406 c 0.087,-1.13 -0.188,-2.035 -0.827,-2.716 -0.639,-0.682 -1.504,-1.021 -2.595,-1.021 -1.08,0 -2.062,0.318 -2.948,0.955 -0.885,0.637 -1.605,1.562 -2.164,2.773 -0.557,1.212 -0.875,2.328 -0.954,3.347 -0.097,1.263 0.186,2.265 0.85,3.007 0.662,0.742 1.539,1.112 2.631,1.112 1.37,0 2.562,-0.559 3.578,-1.677 1.444,-1.583 2.255,-3.51 2.429,-5.78 z"
           inkscape:label="o"
           sodipodi:insensitive="true" />
        <path
           inkscape:connector-curvature="0"
           id="path76"
           d="m 659.392,175.039 h 4.999 l -5.225,17.639 h -4.999 z m 1.978,-6.711 h 4.999 l -1.272,4.318 h -4.999 z"
           inkscape:label="i"
           sodipodi:insensitive="true" />
        <path
           inkscape:connector-curvature="0"
           id="path74"
           d="m 644.629,178.576 1.038,-3.537 h 2.438 l 0.827,-2.824 5.982,-3.289 -1.811,6.113 h 3.048 l -1.039,3.537 h -3.065 l -2.188,7.392 c -0.395,1.34 -0.598,2.103 -0.612,2.292 -0.028,0.365 0.072,0.65 0.3,0.854 0.229,0.206 0.662,0.308 1.301,0.308 0.221,0 0.774,-0.038 1.663,-0.116 l -1.056,3.538 c -0.872,0.166 -1.761,0.248 -2.667,0.248 -1.766,0 -3.022,-0.323 -3.774,-0.971 -0.751,-0.648 -1.083,-1.547 -0.994,-2.699 0.041,-0.542 0.353,-1.794 0.933,-3.753 l 2.097,-7.093 z"
           inkscape:label="t"
           sodipodi:insensitive="true" />
        <path
           inkscape:connector-curvature="0"
           id="path72"
           d="m 630.478,180.038 -4.847,-0.398 c 0.679,-1.572 1.745,-2.802 3.201,-3.688 1.455,-0.886 3.327,-1.329 5.614,-1.329 2.38,0 4.104,0.457 5.172,1.371 1.067,0.913 1.552,2.028 1.45,3.347 -0.041,0.53 -0.135,1.096 -0.279,1.694 -0.145,0.598 -0.61,2.169 -1.398,4.716 -0.649,2.104 -1.007,3.577 -1.071,4.418 -0.059,0.754 0.018,1.589 0.225,2.509 h -4.859 c -0.147,-0.643 -0.219,-1.308 -0.212,-1.993 -0.791,0.774 -1.68,1.369 -2.662,1.785 -0.985,0.415 -1.959,0.622 -2.922,0.622 -1.533,0 -2.763,-0.478 -3.687,-1.436 -0.926,-0.958 -1.33,-2.19 -1.214,-3.695 0.129,-1.684 0.781,-3.028 1.956,-4.036 1.175,-1.008 3.181,-1.617 6.02,-1.827 2.394,-0.188 4.002,-0.415 4.823,-0.681 0.261,-0.664 0.405,-1.196 0.437,-1.596 0.039,-0.509 -0.143,-0.936 -0.545,-1.278 -0.403,-0.343 -1.029,-0.515 -1.877,-0.515 -0.895,0 -1.613,0.174 -2.156,0.522 -0.545,0.35 -0.935,0.846 -1.169,1.488 z m 4.415,4.417 c -0.309,0.078 -0.715,0.15 -1.219,0.217 -2.53,0.288 -4.2,0.709 -5.009,1.263 -0.576,0.398 -0.891,0.936 -0.942,1.61 -0.043,0.554 0.13,1.021 0.519,1.404 0.389,0.382 0.926,0.572 1.611,0.572 0.754,0 1.479,-0.174 2.174,-0.522 0.693,-0.349 1.228,-0.798 1.601,-1.346 0.373,-0.549 0.732,-1.403 1.077,-2.565 z"
           inkscape:label="a"
           sodipodi:insensitive="true" />
        <path
           inkscape:connector-curvature="0"
           id="path70"
           d="m 613.516,175.039 h 4.667 l -1.013,3.422 c 1.939,-2.559 3.924,-3.838 5.956,-3.838 0.72,0 1.479,0.173 2.277,0.516 l -2.217,3.903 c -0.44,-0.156 -0.916,-0.232 -1.427,-0.232 -0.859,0 -1.758,0.31 -2.693,0.93 -0.935,0.62 -1.694,1.447 -2.272,2.482 -0.579,1.036 -1.198,2.677 -1.859,4.925 l -1.645,5.531 h -4.999 z"
           inkscape:label="r"
           sodipodi:insensitive="true" />
        <path
           inkscape:connector-curvature="0"
           id="path68"
           d="m 599.03,178.576 1.038,-3.537 h 2.438 l 0.827,-2.824 5.982,-3.289 -1.811,6.113 h 3.048 l -1.039,3.537 h -3.065 l -2.188,7.392 c -0.395,1.34 -0.598,2.103 -0.612,2.292 -0.028,0.365 0.072,0.65 0.3,0.854 0.229,0.206 0.662,0.308 1.301,0.308 0.221,0 0.774,-0.038 1.663,-0.116 l -1.056,3.538 c -0.872,0.166 -1.762,0.248 -2.666,0.248 -1.766,0 -3.023,-0.323 -3.775,-0.971 -0.751,-0.648 -1.083,-1.547 -0.994,-2.699 0.041,-0.542 0.353,-1.794 0.933,-3.753 l 2.097,-7.093 z"
           inkscape:label="t"
           sodipodi:insensitive="true" />
        <path
           inkscape:connector-curvature="0"
           id="path66"
           d="m 576.589,187.744 4.898,-0.73 c 0.354,0.975 0.835,1.664 1.443,2.067 0.607,0.404 1.463,0.607 2.566,0.607 1.138,0 2.067,-0.244 2.79,-0.731 0.501,-0.332 0.771,-0.736 0.808,-1.213 0.024,-0.321 -0.075,-0.608 -0.299,-0.863 -0.237,-0.243 -0.906,-0.542 -2.005,-0.896 -2.945,-0.952 -4.757,-1.705 -5.434,-2.259 -1.06,-0.864 -1.536,-1.993 -1.429,-3.389 0.107,-1.396 0.746,-2.596 1.915,-3.604 1.629,-1.406 3.941,-2.11 6.938,-2.11 2.38,0 4.148,0.416 5.304,1.246 1.156,0.83 1.841,1.954 2.058,3.371 l -4.676,0.765 c -0.193,-0.642 -0.552,-1.124 -1.072,-1.445 -0.71,-0.432 -1.588,-0.647 -2.633,-0.647 -1.045,0 -1.81,0.166 -2.294,0.498 -0.483,0.333 -0.742,0.715 -0.775,1.146 -0.034,0.443 0.17,0.81 0.611,1.097 0.276,0.177 1.188,0.487 2.733,0.93 2.387,0.676 3.967,1.341 4.74,1.993 1.091,0.919 1.587,2.026 1.486,3.322 -0.128,1.672 -0.977,3.123 -2.546,4.352 -1.569,1.229 -3.696,1.843 -6.378,1.843 -2.67,0 -4.699,-0.467 -6.084,-1.402 -1.385,-0.939 -2.274,-2.254 -2.665,-3.948 z"
           inkscape:label="s"
           sodipodi:insensitive="true" />
        <path
           inkscape:connector-curvature="0"
           id="path64"
           d="m 572.167,175.039 h 4.999 l -5.224,17.639 h -4.999 z m 1.979,-6.711 h 4.999 l -1.273,4.318 h -4.999 z"
           inkscape:label="i"
           sodipodi:insensitive="true" />
        <path
           inkscape:connector-curvature="0"
           id="path62"
           d="m 550.447,175.039 h 4.737 l -0.664,2.292 c 1.26,-0.975 2.418,-1.67 3.479,-2.085 1.059,-0.415 2.157,-0.623 3.296,-0.623 1.521,0 2.688,0.416 3.5,1.246 0.812,0.83 1.166,1.933 1.061,3.305 -0.048,0.621 -0.33,1.794 -0.845,3.521 l -2.946,9.982 h -4.998 l 2.965,-10.016 c 0.44,-1.495 0.671,-2.386 0.693,-2.674 0.046,-0.608 -0.105,-1.088 -0.455,-1.438 -0.351,-0.349 -0.863,-0.522 -1.536,-0.522 -0.731,0 -1.567,0.294 -2.506,0.88 -0.94,0.587 -1.702,1.362 -2.287,2.325 -0.425,0.687 -0.951,2.088 -1.577,4.202 l -2.142,7.242 h -4.999 z"
           inkscape:label="n"
           sodipodi:insensitive="true" />
        <path
           inkscape:connector-curvature="0"
           id="path60"
           d="m 540.467,175.039 h 4.999 l -5.224,17.639 h -4.999 z m 1.98,-6.711 h 4.999 l -1.273,4.318 h -4.999 z"
           inkscape:label="i"
           sodipodi:insensitive="true" />
        <path
           inkscape:connector-curvature="0"
           id="path58"
           d="m 508.593,175.039 h 4.703 l -0.635,2.142 c 1.966,-1.704 3.959,-2.558 5.98,-2.558 1.393,0 2.445,0.277 3.158,0.831 0.713,0.554 1.135,1.318 1.269,2.292 0.707,-0.887 1.682,-1.628 2.923,-2.227 1.242,-0.598 2.507,-0.896 3.796,-0.896 1.475,0 2.595,0.377 3.361,1.13 0.767,0.753 1.103,1.749 1.007,2.99 -0.047,0.608 -0.291,1.66 -0.731,3.155 l -3.197,10.779 h -4.999 l 3.198,-10.779 c 0.395,-1.352 0.599,-2.114 0.612,-2.292 0.037,-0.487 -0.087,-0.872 -0.373,-1.154 -0.286,-0.283 -0.737,-0.424 -1.353,-0.424 -1.242,0 -2.399,0.626 -3.471,1.877 -0.777,0.896 -1.503,2.486 -2.177,4.767 l -2.376,8.006 h -4.998 l 3.154,-10.663 c 0.361,-1.229 0.557,-2.026 0.584,-2.392 0.036,-0.466 -0.101,-0.847 -0.409,-1.146 -0.307,-0.3 -0.752,-0.449 -1.333,-0.449 -0.546,0 -1.12,0.154 -1.725,0.465 -0.604,0.311 -1.145,0.736 -1.622,1.279 -0.478,0.542 -0.906,1.24 -1.285,2.092 -0.169,0.399 -0.465,1.302 -0.887,2.708 l -2.4,8.105 h -4.999 z"
           inkscape:label="m"
           sodipodi:insensitive="true" />
        <path
           inkscape:connector-curvature="0"
           id="path56"
           d="m 498.824,192.678 h -4.737 l 0.565,-1.911 c -0.97,0.831 -1.906,1.427 -2.811,1.786 -0.905,0.359 -1.908,0.539 -3.011,0.539 -1.916,0 -3.421,-0.622 -4.516,-1.868 -1.094,-1.245 -1.547,-3.086 -1.36,-5.521 0.217,-2.824 1.25,-5.376 3.097,-7.657 1.847,-2.28 4.148,-3.422 6.9,-3.422 2.484,0 4.275,0.941 5.374,2.824 l 2.705,-9.119 h 4.998 z m -10.995,-7.176 c -0.097,1.262 0.161,2.248 0.774,2.956 0.612,0.709 1.407,1.063 2.382,1.063 0.906,0 1.773,-0.296 2.603,-0.889 0.83,-0.592 1.526,-1.497 2.089,-2.715 0.564,-1.218 0.89,-2.387 0.976,-3.505 0.098,-1.273 -0.184,-2.303 -0.843,-3.089 -0.659,-0.787 -1.459,-1.18 -2.399,-1.18 -1.464,0 -2.725,0.775 -3.784,2.325 -1.06,1.553 -1.66,3.23 -1.798,5.034 z"
           inkscape:label="d"
           sodipodi:insensitive="true" />
        <path
           inkscape:connector-curvature="0"
           id="path54"
           d="m 473.147,187.296 h -10.119 l -3.479,5.382 h -5.399 l 16.312,-24.35 h 5.835 l 2.272,24.35 h -4.981 z m -0.332,-4.053 -0.727,-9.799 -6.92,9.799 z"
           inkscape:label="A"
           sodipodi:insensitive="true" />
      </g>
      <g
         id="g5965"
         inkscape:label="Security"
         sodipodi:insensitive="true">
        <path
           d="m 430.462,175.039 h 4.981 l 0.578,8.785 c 0.14,2.259 0.192,3.843 0.157,4.751 0.789,-1.806 1.829,-3.71 3.121,-5.714 l 5.026,-7.822 h 5.294 l -12.915,19.365 c -1.064,1.605 -1.891,2.729 -2.48,3.372 -0.589,0.642 -1.279,1.146 -2.067,1.512 -0.789,0.364 -1.717,0.548 -2.786,0.548 -1.057,0 -2.233,-0.178 -3.529,-0.532 l 0.709,-3.554 c 0.591,0.166 1.17,0.249 1.74,0.249 1.533,0 2.878,-1.107 4.035,-3.321 z"
           id="path50"
           inkscape:connector-curvature="0"
           inkscape:label="y"
           sodipodi:insensitive="true" />
        <path
           d="m 418.017,178.576 1.038,-3.537 h 2.438 l 0.828,-2.824 5.982,-3.289 -1.811,6.113 h 3.048 l -1.039,3.537 h -3.065 l -2.188,7.392 c -0.395,1.34 -0.598,2.103 -0.612,2.292 -0.028,0.365 0.072,0.65 0.3,0.854 0.228,0.206 0.662,0.308 1.3,0.308 0.221,0 0.774,-0.038 1.664,-0.116 l -1.056,3.538 c -0.872,0.166 -1.761,0.248 -2.667,0.248 -1.766,0 -3.023,-0.323 -3.775,-0.971 -0.751,-0.648 -1.083,-1.547 -0.995,-2.699 0.042,-0.542 0.353,-1.794 0.933,-3.753 l 2.097,-7.093 z"
           id="path48"
           inkscape:connector-curvature="0"
           inkscape:label="t"
           sodipodi:insensitive="true" />
        <path
           d="m 410.991,175.039 h 4.999 l -5.224,17.639 h -4.999 z m 1.979,-6.711 h 4.999 l -1.273,4.318 h -4.999 z"
           id="path46"
           inkscape:connector-curvature="0"
           inkscape:label="i"
           sodipodi:insensitive="true" />
        <path
           d="m 396.831,175.039 h 4.667 l -1.012,3.422 c 1.939,-2.559 3.924,-3.838 5.957,-3.838 0.72,0 1.479,0.173 2.277,0.516 l -2.216,3.903 c -0.441,-0.156 -0.917,-0.232 -1.428,-0.232 -0.859,0 -1.757,0.31 -2.692,0.93 -0.937,0.62 -1.694,1.447 -2.273,2.482 -0.579,1.036 -1.198,2.677 -1.859,4.925 l -1.645,5.531 h -4.999 z"
           id="path44"
           inkscape:connector-curvature="0"
           inkscape:label="r"
           sodipodi:insensitive="true" />
        <path
           d="m 375.285,175.039 h 4.999 l -3.086,10.446 c -0.375,1.252 -0.574,2.032 -0.598,2.342 -0.039,0.51 0.125,0.946 0.492,1.312 0.366,0.365 0.857,0.549 1.473,0.549 0.44,0 0.882,-0.081 1.324,-0.242 0.442,-0.159 0.902,-0.403 1.38,-0.729 0.478,-0.327 0.913,-0.7 1.305,-1.122 0.392,-0.421 0.771,-0.974 1.139,-1.66 0.259,-0.51 0.561,-1.34 0.905,-2.492 l 2.492,-8.403 h 4.999 l -5.223,17.639 h -4.668 l 0.707,-2.392 c -2.188,1.871 -4.483,2.806 -6.887,2.806 -1.521,0 -2.685,-0.414 -3.492,-1.245 -0.807,-0.83 -1.157,-1.943 -1.05,-3.338 0.047,-0.609 0.337,-1.821 0.873,-3.638 z"
           id="path42"
           inkscape:connector-curvature="0"
           inkscape:label="u"
           sodipodi:insensitive="true" />
        <path
           d="m 363.31,186.034 4.802,0.747 c -0.96,2.06 -2.264,3.626 -3.915,4.7 -1.65,1.074 -3.509,1.61 -5.575,1.61 -2.357,0 -4.175,-0.669 -5.454,-2.01 -1.279,-1.339 -1.828,-3.183 -1.647,-5.53 0.147,-1.915 0.705,-3.726 1.672,-5.431 0.967,-1.705 2.33,-3.048 4.089,-4.027 1.759,-0.98 3.643,-1.471 5.652,-1.471 2.183,0 3.882,0.544 5.099,1.628 1.217,1.086 1.839,2.514 1.865,4.285 l -4.792,0.481 c -0.04,-0.985 -0.301,-1.71 -0.782,-2.176 -0.481,-0.465 -1.139,-0.697 -1.975,-0.697 -0.964,0 -1.891,0.343 -2.779,1.029 -0.888,0.686 -1.609,1.714 -2.162,3.081 -0.551,1.368 -0.874,2.649 -0.965,3.845 -0.08,1.041 0.125,1.845 0.615,2.409 0.491,0.563 1.137,0.847 1.938,0.847 0.802,0 1.594,-0.277 2.38,-0.83 0.786,-0.552 1.431,-1.383 1.934,-2.49 z"
           id="path40"
           inkscape:connector-curvature="0"
           inkscape:label="c"
           sodipodi:insensitive="true" />
        <path
           d="m 348.995,185.336 h -12.54 c -0.026,0.188 -0.043,0.333 -0.051,0.432 -0.09,1.174 0.188,2.121 0.835,2.841 0.647,0.72 1.476,1.08 2.486,1.08 1.66,0 3.017,-0.82 4.073,-2.459 l 4.42,0.715 c -1.002,1.716 -2.265,3.003 -3.788,3.86 -1.524,0.859 -3.191,1.287 -5.002,1.287 -2.485,0 -4.448,-0.749 -5.888,-2.25 -1.44,-1.5 -2.066,-3.484 -1.876,-5.954 0.186,-2.414 1.054,-4.562 2.603,-6.443 2.112,-2.548 4.944,-3.821 8.498,-3.821 2.264,0 4.012,0.667 5.245,2.002 1.232,1.334 1.757,3.202 1.572,5.605 -0.088,1.152 -0.284,2.187 -0.587,3.105 z m -3.992,-2.906 c 0.028,-0.211 0.046,-0.37 0.055,-0.481 0.101,-1.307 -0.132,-2.286 -0.698,-2.94 -0.565,-0.652 -1.364,-0.979 -2.397,-0.979 -1.034,0 -1.988,0.371 -2.864,1.113 -0.875,0.741 -1.515,1.838 -1.916,3.288 h 7.82 z"
           id="path38"
           inkscape:connector-curvature="0"
           inkscape:label="e"
           sodipodi:insensitive="true" />
        <path
           d="m 308.072,184.788 5.017,-0.249 c -0.046,1.518 0.147,2.541 0.583,3.072 0.699,0.863 2.083,1.296 4.149,1.296 1.719,0 2.983,-0.293 3.795,-0.88 0.812,-0.588 1.249,-1.296 1.313,-2.127 0.055,-0.72 -0.211,-1.328 -0.8,-1.826 -0.414,-0.365 -1.579,-0.958 -3.495,-1.777 -1.917,-0.82 -3.309,-1.503 -4.179,-2.052 -0.869,-0.548 -1.531,-1.259 -1.986,-2.134 -0.455,-0.875 -0.638,-1.899 -0.548,-3.072 0.158,-2.049 1.067,-3.748 2.727,-5.1 1.66,-1.351 3.964,-2.026 6.914,-2.026 2.996,0 5.264,0.67 6.803,2.01 1.541,1.34 2.306,3.123 2.298,5.349 l -5.051,0.216 c -0.039,-1.163 -0.411,-2.054 -1.118,-2.674 -0.707,-0.62 -1.799,-0.931 -3.272,-0.931 -1.452,0 -2.507,0.244 -3.165,0.73 -0.659,0.488 -1.017,1.103 -1.074,1.845 -0.054,0.697 0.186,1.273 0.721,1.727 0.533,0.465 1.743,1.102 3.632,1.91 2.845,1.207 4.638,2.187 5.382,2.94 1.11,1.106 1.599,2.529 1.465,4.268 -0.165,2.148 -1.198,3.984 -3.097,5.506 -1.899,1.523 -4.44,2.283 -7.621,2.283 -2.195,0 -4.07,-0.352 -5.623,-1.055 -1.554,-0.702 -2.614,-1.679 -3.18,-2.931 -0.565,-1.251 -0.762,-2.691 -0.59,-4.318 z"
           id="path36"
           inkscape:connector-curvature="0"
           inkscape:label="S"
           sodipodi:insensitive="true" />
      </g>
      <g
         id="g5975"
         inkscape:label="Nuclear"
         sodipodi:insensitive="true">
        <path
           d="m 287.782,175.039 h 4.667 l -1.012,3.422 c 1.939,-2.559 3.924,-3.838 5.957,-3.838 0.72,0 1.479,0.173 2.277,0.516 l -2.216,3.903 c -0.441,-0.156 -0.917,-0.232 -1.428,-0.232 -0.859,0 -1.757,0.31 -2.692,0.93 -0.937,0.62 -1.694,1.447 -2.273,2.482 -0.579,1.036 -1.198,2.677 -1.859,4.925 l -1.645,5.531 h -4.999 z"
           id="path34"
           inkscape:connector-curvature="0"
           inkscape:label="r"
           sodipodi:insensitive="true" />
        <path
           d="m 271.025,180.038 -4.847,-0.398 c 0.679,-1.572 1.745,-2.802 3.201,-3.688 1.456,-0.886 3.328,-1.329 5.615,-1.329 2.38,0 4.104,0.457 5.172,1.371 1.067,0.913 1.551,2.028 1.45,3.347 -0.041,0.53 -0.134,1.096 -0.279,1.694 -0.145,0.598 -0.61,2.169 -1.399,4.716 -0.649,2.104 -1.007,3.577 -1.071,4.418 -0.058,0.754 0.017,1.589 0.225,2.509 h -4.859 c -0.148,-0.643 -0.219,-1.308 -0.212,-1.993 -0.791,0.774 -1.68,1.369 -2.663,1.785 -0.985,0.415 -1.958,0.622 -2.922,0.622 -1.533,0 -2.762,-0.478 -3.687,-1.436 -0.925,-0.958 -1.33,-2.19 -1.214,-3.695 0.13,-1.684 0.782,-3.028 1.956,-4.036 1.175,-1.008 3.181,-1.617 6.02,-1.827 2.395,-0.188 4.003,-0.415 4.824,-0.681 0.26,-0.664 0.406,-1.196 0.437,-1.596 0.039,-0.509 -0.143,-0.936 -0.545,-1.278 -0.403,-0.343 -1.029,-0.515 -1.876,-0.515 -0.895,0 -1.613,0.174 -2.156,0.522 -0.545,0.35 -0.935,0.846 -1.17,1.488 z m 4.415,4.417 c -0.309,0.078 -0.715,0.15 -1.219,0.217 -2.53,0.288 -4.2,0.709 -5.008,1.263 -0.577,0.398 -0.892,0.936 -0.943,1.61 -0.042,0.554 0.13,1.021 0.519,1.404 0.389,0.382 0.926,0.572 1.611,0.572 0.754,0 1.479,-0.174 2.174,-0.522 0.694,-0.349 1.228,-0.798 1.601,-1.346 0.373,-0.549 0.732,-1.403 1.077,-2.565 z"
           id="path32"
           inkscape:connector-curvature="0"
           inkscape:label="a"
           sodipodi:insensitive="true" />
        <path
           d="m 261.735,185.336 h -12.54 c -0.026,0.188 -0.043,0.333 -0.051,0.432 -0.09,1.174 0.188,2.121 0.835,2.841 0.647,0.72 1.476,1.08 2.486,1.08 1.66,0 3.017,-0.82 4.073,-2.459 l 4.42,0.715 c -1.002,1.716 -2.265,3.003 -3.788,3.86 -1.524,0.859 -3.191,1.287 -5.002,1.287 -2.485,0 -4.448,-0.749 -5.888,-2.25 -1.44,-1.5 -2.066,-3.484 -1.876,-5.954 0.186,-2.414 1.054,-4.562 2.603,-6.443 2.112,-2.548 4.944,-3.821 8.498,-3.821 2.264,0 4.012,0.667 5.245,2.002 1.232,1.334 1.757,3.202 1.572,5.605 -0.088,1.152 -0.284,2.187 -0.587,3.105 z m -3.991,-2.906 c 0.028,-0.211 0.046,-0.37 0.055,-0.481 0.101,-1.307 -0.132,-2.286 -0.698,-2.94 -0.565,-0.652 -1.364,-0.979 -2.397,-0.979 -1.034,0 -1.988,0.371 -2.864,1.113 -0.875,0.741 -1.515,1.838 -1.916,3.288 h 7.82 z"
           id="path30"
           inkscape:connector-curvature="0"
           inkscape:label="e"
           sodipodi:insensitive="true" />
        <path
           d="m 233.215,192.678 7.22,-24.35 h 4.981 l -7.203,24.35 z"
           id="path28"
           inkscape:connector-curvature="0"
           inkscape:label="l"
           sodipodi:insensitive="true" />
        <path
           d="m 226.463,186.034 4.802,0.747 c -0.96,2.06 -2.264,3.626 -3.915,4.7 -1.65,1.074 -3.509,1.61 -5.575,1.61 -2.357,0 -4.175,-0.669 -5.454,-2.01 -1.279,-1.339 -1.828,-3.183 -1.647,-5.53 0.147,-1.915 0.705,-3.726 1.672,-5.431 0.967,-1.705 2.33,-3.048 4.089,-4.027 1.759,-0.98 3.643,-1.471 5.652,-1.471 2.183,0 3.882,0.544 5.099,1.628 1.217,1.086 1.839,2.514 1.865,4.285 l -4.792,0.481 c -0.04,-0.985 -0.301,-1.71 -0.782,-2.176 -0.481,-0.465 -1.139,-0.697 -1.975,-0.697 -0.964,0 -1.891,0.343 -2.779,1.029 -0.888,0.686 -1.609,1.714 -2.162,3.081 -0.551,1.368 -0.874,2.649 -0.965,3.845 -0.08,1.041 0.125,1.845 0.615,2.409 0.491,0.563 1.137,0.847 1.938,0.847 0.802,0 1.594,-0.277 2.38,-0.83 0.786,-0.552 1.431,-1.383 1.934,-2.49 z"
           id="path26"
           inkscape:connector-curvature="0"
           inkscape:label="c"
           sodipodi:insensitive="true" />
        <path
           d="m 196.811,175.039 h 4.999 l -3.086,10.446 c -0.375,1.252 -0.574,2.032 -0.598,2.342 -0.039,0.51 0.125,0.946 0.492,1.312 0.366,0.365 0.857,0.549 1.473,0.549 0.44,0 0.882,-0.081 1.324,-0.242 0.442,-0.159 0.902,-0.403 1.38,-0.729 0.478,-0.327 0.913,-0.7 1.305,-1.122 0.392,-0.421 0.771,-0.974 1.139,-1.66 0.259,-0.51 0.561,-1.34 0.905,-2.492 l 2.492,-8.403 h 4.999 l -5.223,17.639 h -4.668 l 0.707,-2.392 c -2.188,1.871 -4.483,2.806 -6.887,2.806 -1.521,0 -2.685,-0.414 -3.492,-1.245 -0.807,-0.83 -1.157,-1.943 -1.05,-3.338 0.047,-0.609 0.337,-1.821 0.873,-3.638 z"
           id="path24"
           inkscape:connector-curvature="0"
           inkscape:label="u"
           sodipodi:insensitive="true" />
        <path
           d="m 186.311,192.678 h -4.895 l -5.638,-16.36 -4.847,16.36 h -4.895 l 7.203,-24.35 h 4.912 l 5.661,16.294 4.825,-16.294 h 4.877 z"
           id="path22"
           inkscape:connector-curvature="0"
           inkscape:label="N"
           sodipodi:insensitive="true" />
      </g>
      <g
         id="g5985"
         inkscape:label="National"
         sodipodi:insensitive="true">
        <path
           d="m 146.008,192.678 7.22,-24.35 h 4.981 l -7.203,24.35 z"
           id="path20"
           inkscape:connector-curvature="0"
           inkscape:label="l"
           sodipodi:insensitive="true" />
        <path
           d="m 134.231,180.038 -4.847,-0.398 c 0.679,-1.572 1.745,-2.802 3.201,-3.688 1.456,-0.886 3.328,-1.329 5.615,-1.329 2.38,0 4.104,0.457 5.172,1.371 1.067,0.913 1.551,2.028 1.45,3.347 -0.041,0.53 -0.134,1.096 -0.279,1.694 -0.145,0.598 -0.61,2.169 -1.399,4.716 -0.649,2.104 -1.007,3.577 -1.071,4.418 -0.058,0.754 0.017,1.589 0.225,2.509 h -4.859 c -0.148,-0.643 -0.219,-1.308 -0.212,-1.993 -0.791,0.774 -1.68,1.369 -2.663,1.785 -0.985,0.415 -1.958,0.622 -2.922,0.622 -1.533,0 -2.762,-0.478 -3.687,-1.436 -0.925,-0.958 -1.33,-2.19 -1.214,-3.695 0.13,-1.684 0.782,-3.028 1.956,-4.036 1.175,-1.008 3.181,-1.617 6.02,-1.827 2.395,-0.188 4.003,-0.415 4.824,-0.681 0.26,-0.664 0.406,-1.196 0.437,-1.596 0.039,-0.509 -0.143,-0.936 -0.545,-1.278 -0.403,-0.343 -1.029,-0.515 -1.876,-0.515 -0.895,0 -1.613,0.174 -2.156,0.522 -0.545,0.35 -0.935,0.846 -1.17,1.488 z m 4.415,4.417 c -0.309,0.078 -0.715,0.15 -1.219,0.217 -2.53,0.288 -4.2,0.709 -5.008,1.263 -0.577,0.398 -0.892,0.936 -0.943,1.61 -0.042,0.554 0.13,1.021 0.519,1.404 0.389,0.382 0.926,0.572 1.611,0.572 0.754,0 1.479,-0.174 2.174,-0.522 0.694,-0.349 1.228,-0.798 1.601,-1.346 0.373,-0.549 0.732,-1.403 1.077,-2.565 z"
           id="path18"
           inkscape:connector-curvature="0"
           inkscape:label="a"
           sodipodi:insensitive="true" />
        <path
           d="m 109.708,175.039 h 4.737 l -0.664,2.292 c 1.26,-0.975 2.418,-1.67 3.479,-2.085 1.059,-0.415 2.157,-0.623 3.296,-0.623 1.521,0 2.688,0.416 3.5,1.246 0.812,0.83 1.166,1.933 1.061,3.305 -0.048,0.621 -0.33,1.794 -0.845,3.521 l -2.946,9.982 h -4.998 l 2.965,-10.016 c 0.44,-1.495 0.671,-2.386 0.693,-2.674 0.046,-0.608 -0.105,-1.088 -0.455,-1.438 -0.351,-0.349 -0.863,-0.522 -1.536,-0.522 -0.731,0 -1.567,0.294 -2.506,0.88 -0.94,0.587 -1.702,1.362 -2.287,2.325 -0.425,0.687 -0.951,2.088 -1.577,4.202 l -2.142,7.242 h -4.999 z"
           id="path16"
           inkscape:connector-curvature="0"
           inkscape:label="n"
           sodipodi:insensitive="true" />
        <path
           d="m 83.922,185.354 c 0.251,-3.267 1.417,-5.872 3.501,-7.815 2.083,-1.943 4.698,-2.915 7.844,-2.915 2.729,0 4.804,0.718 6.226,2.151 1.423,1.434 2.041,3.362 1.854,5.788 -0.22,2.857 -1.368,5.326 -3.444,7.408 -2.076,2.081 -4.723,3.121 -7.938,3.121 -1.742,0 -3.261,-0.332 -4.556,-0.996 -1.297,-0.664 -2.228,-1.605 -2.796,-2.823 -0.568,-1.218 -0.798,-2.526 -0.691,-3.919 z m 14.509,-3.406 c 0.087,-1.13 -0.189,-2.035 -0.827,-2.716 -0.639,-0.682 -1.504,-1.021 -2.595,-1.021 -1.08,0 -2.063,0.318 -2.948,0.955 -0.885,0.637 -1.606,1.562 -2.165,2.773 -0.557,1.212 -0.875,2.328 -0.954,3.347 -0.097,1.263 0.185,2.265 0.849,3.007 0.663,0.742 1.54,1.112 2.631,1.112 1.37,0 2.562,-0.559 3.578,-1.677 1.446,-1.583 2.256,-3.51 2.431,-5.78 z"
           id="path14"
           inkscape:connector-curvature="0"
           inkscape:label="o"
           sodipodi:insensitive="true" />
        <path
           d="m 77.94,175.039 h 4.999 l -5.224,17.639 h -4.999 z m 1.979,-6.711 h 4.999 l -1.273,4.318 h -4.999 z"
           id="path12"
           inkscape:connector-curvature="0"
           inkscape:label="i"
           sodipodi:insensitive="true" />
        <path
           d="m 63.177,178.576 1.038,-3.537 h 2.438 l 0.828,-2.824 5.982,-3.289 -1.811,6.113 H 74.7 l -1.039,3.537 h -3.065 l -2.188,7.392 c -0.395,1.34 -0.598,2.103 -0.612,2.292 -0.028,0.365 0.072,0.65 0.3,0.854 0.228,0.206 0.662,0.308 1.3,0.308 0.221,0 0.774,-0.038 1.664,-0.116 l -1.056,3.538 c -0.872,0.166 -1.761,0.248 -2.667,0.248 -1.766,0 -3.023,-0.323 -3.775,-0.971 -0.751,-0.648 -1.083,-1.547 -0.995,-2.699 0.042,-0.542 0.353,-1.794 0.933,-3.753 l 2.097,-7.093 z"
           id="path10"
           inkscape:connector-curvature="0"
           inkscape:label="t"
           sodipodi:insensitive="true" />
        <path
           d="m 49.026,180.038 -4.847,-0.398 c 0.679,-1.572 1.745,-2.802 3.201,-3.688 1.456,-0.886 3.328,-1.329 5.615,-1.329 2.38,0 4.104,0.457 5.172,1.371 1.067,0.913 1.551,2.028 1.45,3.347 -0.041,0.53 -0.134,1.096 -0.279,1.694 -0.145,0.598 -0.61,2.169 -1.399,4.716 -0.649,2.104 -1.007,3.577 -1.071,4.418 -0.058,0.754 0.017,1.589 0.225,2.509 h -4.859 c -0.148,-0.643 -0.219,-1.308 -0.212,-1.993 -0.791,0.774 -1.68,1.369 -2.663,1.785 -0.985,0.415 -1.958,0.622 -2.922,0.622 -1.533,0 -2.762,-0.478 -3.687,-1.436 -0.925,-0.958 -1.33,-2.19 -1.214,-3.695 0.13,-1.684 0.782,-3.028 1.956,-4.036 1.175,-1.008 3.181,-1.617 6.02,-1.827 2.395,-0.188 4.003,-0.415 4.824,-0.681 0.26,-0.664 0.406,-1.196 0.437,-1.596 0.039,-0.509 -0.143,-0.936 -0.545,-1.278 -0.403,-0.343 -1.029,-0.515 -1.876,-0.515 -0.895,0 -1.613,0.174 -2.156,0.522 -0.545,0.35 -0.935,0.846 -1.17,1.488 z m 4.415,4.417 c -0.309,0.078 -0.715,0.15 -1.219,0.217 -2.53,0.288 -4.2,0.709 -5.008,1.263 -0.577,0.398 -0.892,0.936 -0.943,1.61 -0.042,0.554 0.13,1.021 0.519,1.404 0.389,0.382 0.926,0.572 1.611,0.572 0.754,0 1.479,-0.174 2.174,-0.522 0.694,-0.349 1.228,-0.798 1.601,-1.346 0.373,-0.549 0.732,-1.403 1.077,-2.565 z"
           id="path8"
           inkscape:connector-curvature="0"
           inkscape:label="a"
           sodipodi:insensitive="true" />
        <path
           d="m 35.688,192.678 h -4.895 l -5.638,-16.36 -4.847,16.36 h -4.895 l 7.203,-24.35 h 4.912 l 5.661,16.294 4.825,-16.294 h 4.877 z"
           id="path6"
           inkscape:connector-curvature="0"
           inkscape:label="N"
           sodipodi:insensitive="true" />
      </g>
    </g>
  </g>
</svg>
